Vesper Devanagari Libre-Regular.ufo
<glyph name="exclam" format="1">
  <advance width="490"/>
  <unicode hex="0021"/>
  <outline>
    <contour>
      <point x="318" y="397" type="line"/>
      <point x="349" y="1384" type="line"/>
      <point x="161" y="1384" type="line"/>
      <point x="161" y="1038"/>
      <point x="151" y="697"/>
      <point x="166" y="451" type="curve"/>
    </contour>
    <contour>
      <point x="139" y="208"/>
      <point x="125" y="149"/>
      <point x="124" y="98" type="curve"/>
      <point x="122" y="67"/>
      <point x="126" y="38"/>
      <point x="135" y="26" type="curve" smooth="yes"/>
      <point x="151" y="6"/>
      <point x="212" y="-8"/>
      <point x="263" y="-10" type="curve" smooth="yes"/>
      <point x="293" y="-11"/>
      <point x="320" y="-7"/>
      <point x="332" y="1" type="curve"/>
      <point x="352" y="18"/>
      <point x="365" y="76"/>
      <point x="367" y="127" type="curve" smooth="yes"/>
      <point x="369" y="158"/>
      <point x="366" y="187"/>
      <point x="356" y="199" type="curve"/>
      <point x="341" y="219"/>
      <point x="279" y="233"/>
      <point x="228" y="235" type="curve" smooth="yes"/>
      <point x="198" y="236"/>
      <point x="171" y="233"/>
      <point x="159" y="224" type="curve" smooth="yes"/>
    </contour>
  </outline>
</glyph>
<glyph name="percent" format="1">
  <advance width="1488"/>
  <unicode hex="0025"/>
  <outline>
    <contour>
      <point x="581" y="690"/>
      <point x="713" y="849"/>
      <point x="713" y="1043" type="curve" smooth="yes"/>
      <point x="713" y="1233"/>
      <point x="575" y="1365"/>
      <point x="407" y="1365" type="curve" smooth="yes"/>
      <point x="212" y="1365"/>
      <point x="81" y="1202"/>
      <point x="81" y="1010" type="curve" smooth="yes"/>
      <point x="81" y="821"/>
      <point x="220" y="690"/>
      <point x="392" y="690" type="curve" smooth="yes"/>
    </contour>
    <contour>
      <point x="294" y="821"/>
      <point x="223" y="936"/>
      <point x="223" y="1054" type="curve" smooth="yes"/>
      <point x="223" y="1144"/>
      <point x="278" y="1233"/>
      <point x="376" y="1233" type="curve" smooth="yes"/>
      <point x="498" y="1233"/>
      <point x="572" y="1126"/>
      <point x="572" y="1001" type="curve" smooth="yes"/>
      <point x="572" y="905"/>
      <point x="512" y="821"/>
      <point x="420" y="821" type="curve" smooth="yes"/>
    </contour>
    <contour>
      <point x="1275" y="2"/>
      <point x="1407" y="161"/>
      <point x="1407" y="355" type="curve" smooth="yes"/>
      <point x="1407" y="545"/>
      <point x="1269" y="677"/>
      <point x="1101" y="677" type="curve" smooth="yes"/>
      <point x="906" y="677"/>
      <point x="775" y="514"/>
      <point x="775" y="322" type="curve" smooth="yes"/>
      <point x="775" y="133"/>
      <point x="914" y="2"/>
      <point x="1086" y="2" type="curve" smooth="yes"/>
    </contour>
    <contour>
      <point x="988" y="133"/>
      <point x="917" y="248"/>
      <point x="917" y="366" type="curve" smooth="yes"/>
      <point x="917" y="456"/>
      <point x="972" y="545"/>
      <point x="1070" y="545" type="curve" smooth="yes"/>
      <point x="1192" y="545"/>
      <point x="1266" y="438"/>
      <point x="1266" y="313" type="curve" smooth="yes"/>
      <point x="1266" y="217"/>
      <point x="1206" y="133"/>
      <point x="1114" y="133" type="curve" smooth="yes"/>
    </contour>
    <component base="fraction" xOffset="597"/>
  </outline>
</glyph>
<glyph name="ampersand" format="1">
  <advance width="1482"/>
  <unicode hex="0026"/>
  <outline>
    <contour>
      <point x="1281" y="122" type="line"/>
      <point x="1092" y="304" type="line"/>
      <point x="1191" y="467"/>
      <point x="1235" y="664"/>
      <point x="1235" y="835" type="curve"/>
      <point x="1352" y="866" type="line"/>
      <point x="1365" y="950" type="line"/>
      <point x="982" y="950" type="line"/>
      <point x="962" y="872" type="line"/>
      <point x="1092" y="840" type="line"/>
      <point x="1094" y="819"/>
      <point x="1094" y="798"/>
      <point x="1094" y="777" type="curve" smooth="yes"/>
      <point x="1094" y="650"/>
      <point x="1055" y="512"/>
      <point x="996" y="397" type="curve"/>
      <point x="626" y="756" type="line"/>
      <point x="799" y="848"/>
      <point x="901" y="957"/>
      <point x="901" y="1147" type="curve" smooth="yes"/>
      <point x="901" y="1322"/>
      <point x="752" y="1419"/>
      <point x="575" y="1419" type="curve" smooth="yes"/>
      <point x="376" y="1419"/>
      <point x="229" y="1261"/>
      <point x="229" y="1081" type="curve" smooth="yes"/>
      <point x="229" y="954"/>
      <point x="308" y="846"/>
      <point x="388" y="761" type="curve"/>
      <point x="219" y="674"/>
      <point x="74" y="563"/>
      <point x="74" y="361" type="curve" smooth="yes"/>
      <point x="74" y="84"/>
      <point x="291" y="-32"/>
      <point x="518" y="-32" type="curve" smooth="yes"/>
      <point x="720" y="-32"/>
      <point x="874" y="45"/>
      <point x="986" y="163" type="curve"/>
      <point x="1030" y="115"/>
      <point x="1060" y="79"/>
      <point x="1069" y="61" type="curve"/>
      <point x="1057" y="-0" type="line"/>
      <point x="1412" y="-0" type="line"/>
      <point x="1429" y="77" type="line"/>
    </contour>
    <contour>
      <point x="436" y="1290"/>
      <point x="482" y="1306"/>
      <point x="541" y="1306" type="curve" smooth="yes"/>
      <point x="625" y="1306"/>
      <point x="747" y="1247"/>
      <point x="747" y="1108" type="curve" smooth="yes"/>
      <point x="747" y="1033"/>
      <point x="708" y="939"/>
      <point x="587" y="862" type="curve"/>
      <point x="573" y="854"/>
      <point x="558" y="845"/>
      <point x="543" y="837" type="curve"/>
      <point x="441" y="936"/>
      <point x="384" y="1011"/>
      <point x="384" y="1150" type="curve" smooth="yes"/>
      <point x="384" y="1211"/>
      <point x="411" y="1258"/>
      <point x="422" y="1272" type="curve" smooth="yes"/>
    </contour>
    <contour>
      <point x="385" y="116"/>
      <point x="260" y="278"/>
      <point x="260" y="406" type="curve" smooth="yes"/>
      <point x="260" y="515"/>
      <point x="349" y="603"/>
      <point x="474" y="677" type="curve"/>
      <point x="610" y="544"/>
      <point x="778" y="380"/>
      <point x="902" y="252" type="curve"/>
      <point x="832" y="169"/>
      <point x="743" y="116"/>
      <point x="638" y="116" type="curve" smooth="yes"/>
    </contour>
  </outline>
</glyph>
<glyph name="parenleft" format="1">
  <advance width="621"/>
  <unicode hex="0028"/>
  <outline>
    <contour>
      <point x="95" y="178"/>
      <point x="224" y="-108"/>
      <point x="527" y="-330" type="curve"/>
      <point x="580" y="-278" type="line"/>
      <point x="398" y="-100"/>
      <point x="275" y="284"/>
      <point x="275" y="578" type="curve" smooth="yes"/>
      <point x="275" y="872"/>
      <point x="403" y="1257"/>
      <point x="579" y="1436" type="curve"/>
      <point x="528" y="1488" type="line"/>
      <point x="226" y="1269"/>
      <point x="95" y="980"/>
      <point x="95" y="578" type="curve" smooth="yes"/>
    </contour>
  </outline>
</glyph>
<glyph name="asterisk" format="1">
  <advance width="799"/>
  <unicode hex="002A"/>
  <outline>
    <contour>
      <point x="387" y="1311" type="line"/>
      <point x="437" y="1348" type="line" smooth="yes"/>
      <point x="448" y="1356"/>
      <point x="459" y="1366"/>
      <point x="463" y="1372" type="curve"/>
      <point x="489" y="1408"/>
      <point x="505" y="1465"/>
      <point x="505" y="1521" type="curve" smooth="yes"/>
      <point x="505" y="1617"/>
      <point x="451" y="1667"/>
      <point x="437" y="1667" type="curve"/>
      <point x="349" y="1548" type="line"/>
      <point x="408" y="1481"/>
      <point x="403" y="1387"/>
      <point x="378" y="1316" type="curve"/>
    </contour>
    <contour>
      <point x="372" y="1317" type="line"/>
      <point x="352" y="1376" type="line" smooth="yes"/>
      <point x="348" y="1389"/>
      <point x="342" y="1402"/>
      <point x="337" y="1408" type="curve"/>
      <point x="311" y="1444"/>
      <point x="262" y="1477"/>
      <point x="209" y="1494" type="curve" smooth="yes"/>
      <point x="117" y="1524"/>
      <point x="53" y="1488"/>
      <point x="49" y="1475" type="curve"/>
      <point x="135" y="1354" type="line"/>
      <point x="217" y="1389"/>
      <point x="305" y="1356"/>
      <point x="364" y="1310" type="curve"/>
    </contour>
    <contour>
      <point x="386" y="1296" type="line"/>
      <point x="437" y="1259" type="line" smooth="yes"/>
      <point x="448" y="1251"/>
      <point x="460" y="1245"/>
      <point x="468" y="1242" type="curve"/>
      <point x="510" y="1228"/>
      <point x="569" y="1231"/>
      <point x="621" y="1248" type="curve" smooth="yes"/>
      <point x="714" y="1278"/>
      <point x="744" y="1345"/>
      <point x="740" y="1358" type="curve"/>
      <point x="600" y="1405" type="line"/>
      <point x="554" y="1328"/>
      <point x="463" y="1303"/>
      <point x="388" y="1306" type="curve"/>
    </contour>
    <contour>
      <point x="362" y="1305" type="line"/>
      <point x="299" y="1305" type="line" smooth="yes"/>
      <point x="286" y="1305"/>
      <point x="272" y="1303"/>
      <point x="264" y="1300" type="curve"/>
      <point x="222" y="1287"/>
      <point x="176" y="1250"/>
      <point x="143" y="1205" type="curve" smooth="yes"/>
      <point x="86" y="1127"/>
      <point x="101" y="1055"/>
      <point x="112" y="1047" type="curve"/>
      <point x="253" y="1091" type="line"/>
      <point x="245" y="1180"/>
      <point x="304" y="1254"/>
      <point x="366" y="1296" type="curve"/>
    </contour>
    <contour>
      <point x="370" y="1292" type="line"/>
      <point x="350" y="1232" type="line" smooth="yes"/>
      <point x="346" y="1219"/>
      <point x="344" y="1206"/>
      <point x="344" y="1197" type="curve" smooth="yes"/>
      <point x="344" y="1153"/>
      <point x="365" y="1098"/>
      <point x="397" y="1053" type="curve" smooth="yes"/>
      <point x="454" y="974"/>
      <point x="527" y="966"/>
      <point x="538" y="974" type="curve"/>
      <point x="540" y="1122" type="line"/>
      <point x="452" y="1142"/>
      <point x="400" y="1221"/>
      <point x="380" y="1293" type="curve"/>
    </contour>
  </outline>
</glyph>
<glyph name="period" format="1">
  <advance width="510"/>
  <unicode hex="002E"/>
  <outline>
    <contour>
      <point x="369" y="23"/>
      <point x="392" y="167"/>
      <point x="365" y="198" type="curve"/>
      <point x="343" y="227"/>
      <point x="207" y="251"/>
      <point x="168" y="223" type="curve" smooth="yes"/>
      <point x="137" y="202"/>
      <point x="116" y="58"/>
      <point x="144" y="25" type="curve"/>
      <point x="171" y="-10"/>
      <point x="313" y="-20"/>
      <point x="339" y="1" type="curve"/>
    </contour>
  </outline>
</glyph>
<glyph name="zero" format="1">
  <advance width="1148"/>
  <unicode hex="0030"/>
  <outline>
    <contour>
      <point x="870" y="-18"/>
      <point x="1020" y="273"/>
      <point x="1020" y="652" type="curve" smooth="yes"/>
      <point x="1020" y="1005"/>
      <point x="828" y="1212"/>
      <point x="605" y="1212" type="curve" smooth="yes"/>
      <point x="275" y="1212"/>
      <point x="128" y="924"/>
      <point x="128" y="548" type="curve" smooth="yes"/>
      <point x="128" y="190"/>
      <point x="304" y="-18"/>
      <point x="552" y="-18" type="curve" smooth="yes"/>
    </contour>
    <contour>
      <point x="340" y="428"/>
      <point x="330" y="556"/>
      <point x="330" y="682" type="curve" smooth="yes"/>
      <point x="330" y="850"/>
      <point x="374" y="1025"/>
      <point x="432" y="1079" type="curve" smooth="yes"/>
      <point x="451" y="1097"/>
      <point x="491" y="1107"/>
      <point x="535" y="1107" type="curve" smooth="yes"/>
      <point x="633" y="1107"/>
      <point x="708" y="1038"/>
      <point x="747" y="962" type="curve" smooth="yes"/>
      <point x="809" y="840"/>
      <point x="819" y="649"/>
      <point x="819" y="527" type="curve" smooth="yes"/>
      <point x="819" y="364"/>
      <point x="780" y="179"/>
      <point x="715" y="115" type="curve" smooth="yes"/>
      <point x="695" y="95"/>
      <point x="653" y="88"/>
      <point x="605" y="88" type="curve" smooth="yes"/>
      <point x="485" y="88"/>
      <point x="384" y="221"/>
      <point x="355" y="358" type="curve" smooth="yes"/>
    </contour>
  </outline>
</glyph>
<glyph name="three" format="1">
  <advance width="1026"/>
  <unicode hex="0033"/>
  <outline>
    <contour>
      <point x="916" y="1089" type="line"/>
      <point x="876" y="1193" type="line"/>
      <point x="273" y="1187" type="line"/>
      <point x="126" y="1197" type="line"/>
      <point x="116" y="922" type="line"/>
      <point x="204" y="905" type="line"/>
      <point x="258" y="1051" type="line"/>
      <point x="383" y="1052"/>
      <point x="633" y="1058"/>
      <point x="734" y="1068" type="curve"/>
      <point x="348" y="702" type="line"/>
      <point x="326" y="610" type="line"/>
      <point x="497" y="610"/>
      <point x="698" y="560"/>
      <point x="698" y="366" type="curve" smooth="yes"/>
      <point x="698" y="117"/>
      <point x="364" y="42"/>
      <point x="133" y="-15" type="curve"/>
      <point x="148" y="-88" type="line"/>
      <point x="390" y="-82"/>
      <point x="891" y="-3"/>
      <point x="891" y="366" type="curve" smooth="yes"/>
      <point x="891" y="578"/>
      <point x="745" y="694"/>
      <point x="538" y="694" type="curve"/>
    </contour>
  </outline>
</glyph>
<glyph name="at" format="1">
  <advance width="1666"/>
  <unicode hex="0040"/>
  <outline>
    <contour>
      <point x="1123" y="726" type="line"/>
      <point x="1164" y="889" type="line"/>
      <point x="1042" y="850" type="line"/>
      <point x="1005" y="893"/>
      <point x="940" y="915"/>
      <point x="877" y="915" type="curve" smooth="yes"/>
      <point x="634" y="915"/>
      <point x="444" y="613"/>
      <point x="444" y="332" type="curve" smooth="yes"/>
      <point x="444" y="131"/>
      <point x="537" y="40"/>
      <point x="645" y="40" type="curve" smooth="yes"/>
      <point x="747" y="40"/>
      <point x="843" y="105"/>
      <point x="902" y="172" type="curve"/>
      <point x="916" y="172" type="line"/>
      <point x="926" y="130"/>
      <point x="975" y="40"/>
      <point x="1046" y="40" type="curve" smooth="yes"/>
      <point x="1240" y="40"/>
      <point x="1558" y="246"/>
      <point x="1558" y="611" type="curve" smooth="yes"/>
      <point x="1558" y="936"/>
      <point x="1358" y="1214"/>
      <point x="930" y="1214" type="curve" smooth="yes"/>
      <point x="514" y="1214"/>
      <point x="74" y="841"/>
      <point x="74" y="332" type="curve" smooth="yes"/>
      <point x="74" y="-27"/>
      <point x="289" y="-295"/>
      <point x="655" y="-295" type="curve" smooth="yes"/>
      <point x="856" y="-295"/>
      <point x="982" y="-190"/>
      <point x="1030" y="-127" type="curve"/>
      <point x="1001" y="-92" type="line"/>
      <point x="938" y="-124"/>
      <point x="821" y="-163"/>
      <point x="718" y="-163" type="curve" smooth="yes"/>
      <point x="486" y="-163"/>
      <point x="227" y="-10"/>
      <point x="227" y="351" type="curve" smooth="yes"/>
      <point x="227" y="741"/>
      <point x="565" y="1079"/>
      <point x="908" y="1079" type="curve" smooth="yes"/>
      <point x="1210" y="1079"/>
      <point x="1407" y="879"/>
      <point x="1407" y="597" type="curve" smooth="yes"/>
      <point x="1407" y="356"/>
      <point x="1217" y="166"/>
      <point x="1096" y="166" type="curve" smooth="yes"/>
      <point x="1082" y="166"/>
      <point x="1063" y="179"/>
      <point x="1050" y="195" type="curve"/>
    </contour>
    <contour>
      <point x="890" y="814"/>
      <point x="949" y="765"/>
      <point x="973" y="645" type="curve"/>
      <point x="897" y="237" type="line"/>
      <point x="835" y="207"/>
      <point x="752" y="189"/>
      <point x="690" y="187" type="curve"/>
      <point x="638" y="224"/>
      <point x="621" y="306"/>
      <point x="621" y="385" type="curve" smooth="yes"/>
      <point x="621" y="587"/>
      <point x="721" y="771"/>
      <point x="823" y="816" type="curve"/>
    </contour>
  </outline>
</glyph>
<glyph name="C" format="1">
  <advance width="1228"/>
  <unicode hex="0043"/>
  <outline>
    <contour>
      <point x="903" y="-35"/>
      <point x="1036" y="34"/>
      <point x="1181" y="173" type="curve"/>
      <point x="1136" y="242" type="line"/>
      <point x="1089" y="219"/>
      <point x="848" y="126"/>
      <point x="742" y="126" type="curve" smooth="yes"/>
      <point x="620" y="126"/>
      <point x="502" y="176"/>
      <point x="411" y="294" type="curve" smooth="yes"/>
      <point x="331" y="398"/>
      <point x="290" y="559"/>
      <point x="290" y="705" type="curve" smooth="yes"/>
      <point x="290" y="969"/>
      <point x="358" y="1133"/>
      <point x="439" y="1205" type="curve" smooth="yes"/>
      <point x="487" y="1247"/>
      <point x="581" y="1283"/>
      <point x="683" y="1283" type="curve" smooth="yes"/>
      <point x="792" y="1283"/>
      <point x="860" y="1264"/>
      <point x="941" y="1229" type="curve"/>
      <point x="1035" y="1021" type="line"/>
      <point x="1131" y="1044" type="line"/>
      <point x="1093" y="1410" type="line"/>
      <point x="965" y="1392" type="line"/>
      <point x="894" y="1406"/>
      <point x="820" y="1419"/>
      <point x="746" y="1419" type="curve" smooth="yes"/>
      <point x="595" y="1419"/>
      <point x="474" y="1384"/>
      <point x="364" y="1300" type="curve" smooth="yes"/>
      <point x="182" y="1160"/>
      <point x="91" y="904"/>
      <point x="91" y="625" type="curve" smooth="yes"/>
      <point x="91" y="216"/>
      <point x="332" y="-35"/>
      <point x="691" y="-35" type="curve" smooth="yes"/>
    </contour>
    <contour>
      <point x="683" y="1384" type="move" name="top"/>
    </contour>
    <contour>
      <point x="694" y="0" type="move" name="bottom"/>
    </contour>
  </outline>
</glyph>
<glyph name="N" format="1">
  <advance width="1525"/>
  <unicode hex="004E"/>
  <outline>
    <contour>
      <point x="92" y="86" type="line"/>
      <point x="75" y="0" type="line"/>
      <point x="589" y="0" type="line"/>
      <point x="607" y="84" type="line"/>
      <point x="402" y="138" type="line"/>
      <point x="402" y="458"/>
      <point x="402" y="779"/>
      <point x="378" y="1099" type="curve"/>
      <point x="1143" y="-25" type="line"/>
      <point x="1287" y="15" type="line"/>
      <point x="1287" y="1245" type="line"/>
      <point x="1456" y="1300" type="line"/>
      <point x="1471" y="1384" type="line"/>
      <point x="960" y="1384" type="line"/>
      <point x="943" y="1301" type="line"/>
      <point x="1147" y="1247" type="line"/>
      <point x="1147" y="931"/>
      <point x="1147" y="615"/>
      <point x="1166" y="299" type="curve"/>
      <point x="416" y="1384" type="line"/>
      <point x="93" y="1384" type="line"/>
      <point x="74" y="1301" type="line"/>
      <point x="262" y="1246" type="line"/>
      <point x="262" y="139" type="line"/>
    </contour>
    <contour>
      <point x="763" y="1384" type="move" name="top"/>
    </contour>
    <contour>
      <point x="763" y="0" type="move" name="bottom"/>
    </contour>
  </outline>
</glyph>
<glyph name="P" format="1">
  <advance width="1150"/>
  <unicode hex="0050"/>
  <outline>
    <contour>
      <point x="85" y="85" type="line"/>
      <point x="67" y="0" type="line"/>
      <point x="673" y="0" type="line"/>
      <point x="690" y="83" type="line"/>
      <point x="456" y="138" type="line"/>
      <point x="456" y="1303" type="line"/>
      <point x="687" y="1300"/>
      <point x="889" y="1226"/>
      <point x="889" y="982" type="curve" smooth="yes"/>
      <point x="889" y="785"/>
      <point x="809" y="731"/>
      <point x="592" y="639" type="curve"/>
      <point x="580" y="573" type="line"/>
      <point x="694" y="573"/>
      <point x="847" y="600"/>
      <point x="950" y="678" type="curve" smooth="yes"/>
      <point x="1039" y="745"/>
      <point x="1097" y="846"/>
      <point x="1097" y="975" type="curve" smooth="yes"/>
      <point x="1097" y="1120"/>
      <point x="1043" y="1219"/>
      <point x="964" y="1280" type="curve" smooth="yes"/>
      <point x="831" y="1382"/>
      <point x="634" y="1384"/>
      <point x="472" y="1384" type="curve" smooth="yes"/>
      <point x="92" y="1384" type="line"/>
      <point x="75" y="1302" type="line"/>
      <point x="263" y="1246" type="line"/>
      <point x="263" y="139" type="line"/>
    </contour>
    <contour>
      <point x="564" y="1384" type="move" name="top"/>
    </contour>
  </outline>
</glyph>
<glyph name="Q" format="1">
  <advance width="1406"/>
  <unicode hex="0051"/>
  <outline>
    <contour>
      <point x="1006" y="78" type="line"/>
      <point x="791" y="-16" type="line"/>
      <point x="945" y="-151"/>
      <point x="1192" y="-322"/>
      <point x="1281" y="-322" type="curve"/>
      <point x="1319" y="-256" type="line"/>
    </contour>
    <component base="O"/>
  </outline>
</glyph>
<glyph name="k" format="1">
  <advance width="1142"/>
  <unicode hex="006B"/>
  <outline>
    <contour>
      <point x="194" y="1287" type="line"/>
      <point x="194" y="126" type="line"/>
      <point x="56" y="83" type="line"/>
      <point x="39" y="0" type="line"/>
      <point x="525" y="0" type="line"/>
      <point x="543" y="82" type="line"/>
      <point x="373" y="126" type="line"/>
      <point x="373" y="1472" type="line"/>
      <point x="49" y="1412" type="line"/>
      <point x="40" y="1365" type="line"/>
    </contour>
    <contour>
      <point x="605" y="587" type="line"/>
      <point x="906" y="836" type="line"/>
      <point x="1040" y="872" type="line"/>
      <point x="1056" y="950" type="line"/>
      <point x="638" y="950" type="line"/>
      <point x="624" y="874" type="line"/>
      <point x="752" y="844" type="line"/>
      <point x="413" y="550" type="line"/>
      <point x="781" y="66" type="line"/>
      <point x="768" y="0" type="line"/>
      <point x="1124" y="0" type="line"/>
      <point x="1140" y="76" type="line"/>
      <point x="986" y="123" type="line"/>
    </contour>
    <contour>
      <point x="571" y="0" type="move" name="bottom"/>
    </contour>
  </outline>
</glyph>
<glyph name="m" format="1">
  <advance width="1781"/>
  <unicode hex="006D"/>
  <outline>
    <contour>
      <point x="216" y="775" type="line"/>
      <point x="216" y="136" type="line"/>
      <point x="73" y="87" type="line"/>
      <point x="57" y="0" type="line"/>
      <point x="547" y="0" type="line"/>
      <point x="562" y="82" type="line"/>
      <point x="395" y="126" type="line"/>
      <point x="396" y="687" type="line" smooth="yes"/>
      <point x="396" y="714"/>
      <point x="394" y="737"/>
      <point x="391" y="758" type="curve"/>
      <point x="504" y="794"/>
      <point x="636" y="827"/>
      <point x="689" y="827" type="curve" smooth="yes"/>
      <point x="698" y="827"/>
      <point x="706" y="825"/>
      <point x="716" y="820" type="curve"/>
      <point x="771" y="790"/>
      <point x="819" y="701"/>
      <point x="819" y="501" type="curve" smooth="yes"/>
      <point x="819" y="131" type="line"/>
      <point x="714" y="87" type="line"/>
      <point x="697" y="0" type="line"/>
      <point x="1149" y="0" type="line"/>
      <point x="1167" y="82" type="line"/>
      <point x="998" y="126" type="line"/>
      <point x="998" y="478" type="line" smooth="yes"/>
      <point x="998" y="576"/>
      <point x="998" y="703"/>
      <point x="983" y="759" type="curve"/>
      <point x="1100" y="799"/>
      <point x="1255" y="827"/>
      <point x="1292" y="827" type="curve" smooth="yes"/>
      <point x="1302" y="827"/>
      <point x="1311" y="824"/>
      <point x="1324" y="816" type="curve" smooth="yes"/>
      <point x="1378" y="784"/>
      <point x="1421" y="686"/>
      <point x="1421" y="479" type="curve" smooth="yes"/>
      <point x="1421" y="131" type="line"/>
      <point x="1315" y="88" type="line"/>
      <point x="1298" y="0" type="line"/>
      <point x="1750" y="0" type="line"/>
      <point x="1768" y="84" type="line"/>
      <point x="1600" y="126" type="line"/>
      <point x="1600" y="483" type="line" smooth="yes"/>
      <point x="1600" y="853"/>
      <point x="1528" y="973"/>
      <point x="1350" y="973" type="curve" smooth="yes"/>
      <point x="1244" y="973"/>
      <point x="1080" y="891"/>
      <point x="972" y="800" type="curve"/>
      <point x="926" y="930"/>
      <point x="836" y="973"/>
      <point x="749" y="973" type="curve" smooth="yes"/>
      <point x="640" y="973"/>
      <point x="490" y="892"/>
      <point x="382" y="801" type="curve"/>
      <point x="345" y="960" type="line"/>
      <point x="71" y="900" type="line"/>
      <point x="62" y="853" type="line"/>
    </contour>
    <contour>
      <point x="901" y="950" type="move" name="top"/>
    </contour>
    <contour>
      <point x="918" y="0" type="move" name="bottom"/>
    </contour>
  </outline>
</glyph>
<glyph name="n" format="1">
  <advance width="1200"/>
  <unicode hex="006E"/>
  <outline>
    <contour>
      <point x="216" y="775" type="line"/>
      <point x="216" y="136" type="line"/>
      <point x="74" y="88" type="line"/>
      <point x="57" y="0" type="line"/>
      <point x="546" y="0" type="line"/>
      <point x="564" y="81" type="line"/>
      <point x="395" y="126" type="line"/>
      <point x="395" y="698" type="line" smooth="yes"/>
      <point x="395" y="717"/>
      <point x="390" y="755"/>
      <point x="390" y="755" type="curve"/>
      <point x="478" y="785"/>
      <point x="649" y="827"/>
      <point x="705" y="827" type="curve" smooth="yes"/>
      <point x="719" y="827"/>
      <point x="730" y="823"/>
      <point x="744" y="814" type="curve"/>
      <point x="787" y="782"/>
      <point x="839" y="701"/>
      <point x="839" y="550" type="curve" smooth="yes"/>
      <point x="839" y="131" type="line"/>
      <point x="734" y="87" type="line"/>
      <point x="717" y="0" type="line"/>
      <point x="1169" y="0" type="line"/>
      <point x="1186" y="82" type="line"/>
      <point x="1018" y="126" type="line"/>
      <point x="1018" y="618" type="line" smooth="yes"/>
      <point x="1018" y="893"/>
      <point x="885" y="973"/>
      <point x="767" y="973" type="curve" smooth="yes"/>
      <point x="654" y="973"/>
      <point x="490" y="886"/>
      <point x="381" y="800" type="curve"/>
      <point x="345" y="965" type="line"/>
      <point x="71" y="900" type="line"/>
      <point x="62" y="853" type="line"/>
    </contour>
    <contour>
      <point x="600" y="950" type="move" name="top"/>
    </contour>
    <contour>
      <point x="600" y="0" type="move" name="bottom"/>
    </contour>
  </outline>
</glyph>
<glyph name="q" format="1">
  <advance width="1083"/>
  <unicode hex="0071"/>
  <outline>
    <contour>
      <point x="733" y="-349" type="line"/>
      <point x="516" y="-397" type="line"/>
      <point x="500" y="-475" type="line"/>
      <point x="1065" y="-475" type="line"/>
      <point x="1082" y="-389" type="line"/>
      <point x="912" y="-340" type="line"/>
      <point x="912" y="728" type="line"/>
      <point x="1006" y="894" type="line"/>
      <point x="958" y="965" type="line"/>
      <point x="786" y="845" type="line"/>
      <point x="704" y="949"/>
      <point x="613" y="973"/>
      <point x="501" y="973" type="curve" smooth="yes"/>
      <point x="395" y="973"/>
      <point x="281" y="922"/>
      <point x="205" y="828" type="curve" smooth="yes"/>
      <point x="118" y="721"/>
      <point x="73" y="587"/>
      <point x="73" y="449" type="curve" smooth="yes"/>
      <point x="73" y="114"/>
      <point x="271" y="-25"/>
      <point x="455" y="-25" type="curve" smooth="yes"/>
      <point x="563" y="-25"/>
      <point x="661" y="27"/>
      <point x="733" y="98" type="curve"/>
    </contour>
    <contour>
      <point x="733" y="166" type="line"/>
      <point x="660" y="135"/>
      <point x="577" y="117"/>
      <point x="499" y="117" type="curve" smooth="yes"/>
      <point x="475" y="117"/>
      <point x="452" y="123"/>
      <point x="432" y="138" type="curve"/>
      <point x="305" y="226"/>
      <point x="248" y="387"/>
      <point x="248" y="537" type="curve" smooth="yes"/>
      <point x="248" y="643"/>
      <point x="266" y="749"/>
      <point x="311" y="806" type="curve" smooth="yes"/>
      <point x="340" y="843"/>
      <point x="378" y="849"/>
      <point x="432" y="849" type="curve" smooth="yes"/>
      <point x="561" y="849"/>
      <point x="688" y="760"/>
      <point x="733" y="658" type="curve"/>
    </contour>
  </outline>
</glyph>
<glyph name="r" format="1">
  <advance width="823"/>
  <unicode hex="0072"/>
  <outline>
    <contour>
      <point x="218" y="776" type="line"/>
      <point x="218" y="136" type="line"/>
      <point x="72" y="87" type="line"/>
      <point x="55" y="0" type="line"/>
      <point x="637" y="0" type="line"/>
      <point x="654" y="79" type="line"/>
      <point x="397" y="125" type="line"/>
      <point x="397" y="703" type="line"/>
      <point x="444" y="746"/>
      <point x="529" y="814"/>
      <point x="592" y="840" type="curve"/>
      <point x="612" y="729" type="line"/>
      <point x="629" y="721"/>
      <point x="656" y="714"/>
      <point x="681" y="714" type="curve" smooth="yes"/>
      <point x="739" y="714"/>
      <point x="803" y="793"/>
      <point x="803" y="856" type="curve" smooth="yes"/>
      <point x="803" y="896"/>
      <point x="774" y="925"/>
      <point x="744" y="942" type="curve" smooth="yes"/>
      <point x="711" y="961"/>
      <point x="669" y="970"/>
      <point x="639" y="970" type="curve" smooth="yes"/>
      <point x="550" y="970"/>
      <point x="482" y="918"/>
      <point x="391" y="761" type="curve"/>
      <point x="347" y="960" type="line"/>
      <point x="73" y="901" type="line"/>
      <point x="64" y="853" type="line"/>
    </contour>
    <contour>
      <point x="412" y="950" type="move" name="top"/>
    </contour>
    <contour>
      <point x="311" y="0" type="move" name="bottom"/>
    </contour>
  </outline>
</glyph>
<glyph name="t" format="1">
  <advance width="717"/>
  <unicode hex="0074"/>
  <outline>
    <contour>
      <point x="17" y="861" type="line"/>
      <point x="183" y="811" type="line"/>
      <point x="183" y="316" type="line" smooth="yes"/>
      <point x="183" y="74"/>
      <point x="278" y="-25"/>
      <point x="436" y="-25" type="curve" smooth="yes"/>
      <point x="517" y="-25"/>
      <point x="650" y="48"/>
      <point x="715" y="93" type="curve"/>
      <point x="696" y="140" type="line"/>
      <point x="681" y="137"/>
      <point x="572" y="104"/>
      <point x="503" y="104" type="curve" smooth="yes"/>
      <point x="483" y="104"/>
      <point x="467" y="107"/>
      <point x="456" y="113" type="curve" smooth="yes"/>
      <point x="391" y="150"/>
      <point x="362" y="259"/>
      <point x="362" y="367" type="curve" smooth="yes"/>
      <point x="362" y="811" type="line"/>
      <point x="663" y="863" type="line"/>
      <point x="679" y="950" type="line"/>
      <point x="362" y="950" type="line"/>
      <point x="362" y="1234" type="line"/>
      <point x="204" y="1169" type="line"/>
      <point x="183" y="950" type="line"/>
      <point x="35" y="950" type="line"/>
    </contour>
    <contour>
      <point x="359" y="475" type="move" name="center"/>
    </contour>
    <contour>
      <point x="429" y="0" type="move" name="bottom"/>
    </contour>
  </outline>
</glyph>
<glyph name="z" format="1">
  <advance width="917"/>
  <unicode hex="007A"/>
  <outline>
    <contour>
      <point x="661" y="115" type="line"/>
      <point x="275" y="95" type="line"/>
      <point x="831" y="828" type="line"/>
      <point x="790" y="950" type="line"/>
      <point x="101" y="950" type="line"/>
      <point x="101" y="688" type="line"/>
      <point x="207" y="693" type="line"/>
      <point x="260" y="837" type="line"/>
      <point x="650" y="856" type="line"/>
      <point x="57" y="87" type="line"/>
      <point x="95" y="0" type="line"/>
      <point x="825" y="0" type="line"/>
      <point x="823" y="292" type="line"/>
      <point x="718" y="287" type="line"/>
    </contour>
    <contour>
      <point x="459" y="950" type="move" name="top"/>
    </contour>
    <contour>
      <point x="460" y="0" type="move" name="bottom"/>
    </contour>
  </outline>
</glyph>
<glyph name="currency" format="1">
  <advance width="1190"/>
  <unicode hex="00A4"/>
  <outline>
    <contour>
      <point x="124" y="316" type="line"/>
      <point x="228" y="211" type="line"/>
      <point x="328" y="315" type="line"/>
      <point x="400" y="255"/>
      <point x="495" y="221"/>
      <point x="595" y="221" type="curve" smooth="yes"/>
      <point x="696" y="221"/>
      <point x="787" y="256"/>
      <point x="859" y="316" type="curve"/>
      <point x="955" y="208" type="line"/>
      <point x="1065" y="320" type="line"/>
      <point x="951" y="428" type="line"/>
      <point x="991" y="495"/>
      <point x="1013" y="574"/>
      <point x="1013" y="659" type="curve" smooth="yes"/>
      <point x="1013" y="743"/>
      <point x="990" y="816"/>
      <point x="950" y="878" type="curve"/>
      <point x="1064" y="985" type="line"/>
      <point x="960" y="1089" type="line"/>
      <point x="856" y="979" type="line"/>
      <point x="787" y="1030"/>
      <point x="702" y="1059"/>
      <point x="614" y="1059" type="curve" smooth="yes"/>
      <point x="520" y="1059"/>
      <point x="436" y="1030"/>
      <point x="369" y="981" type="curve"/>
      <point x="267" y="1090" type="line"/>
      <point x="159" y="981" type="line"/>
      <point x="268" y="876" type="line"/>
      <point x="219" y="803"/>
      <point x="190" y="714"/>
      <point x="190" y="619" type="curve" smooth="yes"/>
      <point x="190" y="545"/>
      <point x="209" y="479"/>
      <point x="240" y="422" type="curve"/>
    </contour>
    <contour>
      <point x="460" y="361"/>
      <point x="344" y="512"/>
      <point x="344" y="673" type="curve" smooth="yes"/>
      <point x="344" y="801"/>
      <point x="440" y="919"/>
      <point x="570" y="919" type="curve" smooth="yes"/>
      <point x="740" y="919"/>
      <point x="858" y="777"/>
      <point x="858" y="604" type="curve" smooth="yes"/>
      <point x="858" y="472"/>
      <point x="762" y="361"/>
      <point x="634" y="361" type="curve" smooth="yes"/>
    </contour>
  </outline>
</glyph>
<glyph name="section" format="1">
  <advance width="958"/>
  <unicode hex="00A7"/>
  <outline>
    <contour>
      <point x="584" y="474" type="line"/>
      <point x="659" y="475"/>
      <point x="860" y="581"/>
      <point x="860" y="758" type="curve" smooth="yes"/>
      <point x="860" y="926"/>
      <point x="757" y="1008"/>
      <point x="542" y="1096" type="curve" smooth="yes"/>
      <point x="401" y="1153"/>
      <point x="280" y="1203"/>
      <point x="280" y="1299" type="curve" smooth="yes"/>
      <point x="280" y="1330"/>
      <point x="291" y="1371"/>
      <point x="307" y="1387" type="curve" smooth="yes"/>
      <point x="356" y="1436"/>
      <point x="477" y="1447"/>
      <point x="652" y="1447" type="curve"/>
      <point x="679" y="1277" type="line"/>
      <point x="693" y="1269"/>
      <point x="717" y="1262"/>
      <point x="739" y="1262" type="curve" smooth="yes"/>
      <point x="791" y="1262"/>
      <point x="852" y="1326"/>
      <point x="852" y="1394" type="curve" smooth="yes"/>
      <point x="852" y="1496"/>
      <point x="637" y="1577"/>
      <point x="484" y="1577" type="curve" smooth="yes"/>
      <point x="278" y="1577"/>
      <point x="98" y="1449"/>
      <point x="98" y="1256" type="curve" smooth="yes"/>
      <point x="98" y="1100"/>
      <point x="224" y="1022"/>
      <point x="402" y="956" type="curve" smooth="yes"/>
      <point x="574" y="892"/>
      <point x="685" y="846"/>
      <point x="685" y="730" type="curve" smooth="yes"/>
      <point x="685" y="671"/>
      <point x="651" y="614"/>
      <point x="600" y="569" type="curve"/>
    </contour>
    <contour>
      <point x="374" y="919" type="line"/>
      <point x="299" y="919"/>
      <point x="98" y="812"/>
      <point x="98" y="635" type="curve" smooth="yes"/>
      <point x="98" y="467"/>
      <point x="201" y="385"/>
      <point x="416" y="297" type="curve" smooth="yes"/>
      <point x="557" y="240"/>
      <point x="677" y="190"/>
      <point x="677" y="94" type="curve" smooth="yes"/>
      <point x="677" y="63"/>
      <point x="667" y="22"/>
      <point x="651" y="6" type="curve" smooth="yes"/>
      <point x="602" y="-43"/>
      <point x="481" y="-54"/>
      <point x="306" y="-54" type="curve"/>
      <point x="279" y="116" type="line"/>
      <point x="264" y="124"/>
      <point x="241" y="131"/>
      <point x="219" y="131" type="curve" smooth="yes"/>
      <point x="166" y="131"/>
      <point x="106" y="67"/>
      <point x="106" y="-1" type="curve" smooth="yes"/>
      <point x="106" y="-103"/>
      <point x="320" y="-184"/>
      <point x="474" y="-184" type="curve" smooth="yes"/>
      <point x="680" y="-184"/>
      <point x="860" y="-56"/>
      <point x="860" y="137" type="curve" smooth="yes"/>
      <point x="860" y="293"/>
      <point x="733" y="371"/>
      <point x="556" y="437" type="curve" smooth="yes"/>
      <point x="384" y="501"/>
      <point x="273" y="547"/>
      <point x="273" y="663" type="curve" smooth="yes"/>
      <point x="273" y="722"/>
      <point x="307" y="779"/>
      <point x="359" y="825" type="curve"/>
    </contour>
  </outline>
</glyph>
<glyph name="ordfeminine" format="1">
  <advance width="971"/>
  <unicode hex="00AA"/>
  <outline>
    <contour>
      <point x="443" y="639"/>
      <point x="573" y="713"/>
      <point x="598" y="762" type="curve"/>
      <point x="621" y="737"/>
      <point x="653" y="667"/>
      <point x="662" y="639" type="curve"/>
      <point x="714" y="639"/>
      <point x="815" y="670"/>
      <point x="850" y="688" type="curve"/>
      <point x="859" y="728" type="line"/>
      <point x="792" y="742"/>
      <point x="745" y="767"/>
      <point x="725" y="804" type="curve"/>
      <point x="725" y="1189" type="line" smooth="yes"/>
      <point x="725" y="1321"/>
      <point x="668" y="1420"/>
      <point x="514" y="1420" type="curve" smooth="yes"/>
      <point x="458" y="1420"/>
      <point x="323" y="1393"/>
      <point x="236" y="1344" type="curve"/>
      <point x="202" y="1327"/>
      <point x="172" y="1300"/>
      <point x="172" y="1273" type="curve" smooth="yes"/>
      <point x="172" y="1224"/>
      <point x="225" y="1181"/>
      <point x="264" y="1181" type="curve" smooth="yes"/>
      <point x="287" y="1181"/>
      <point x="311" y="1194"/>
      <point x="330" y="1203" type="curve"/>
      <point x="352" y="1323" type="line"/>
      <point x="364" y="1327"/>
      <point x="381" y="1328"/>
      <point x="397" y="1328" type="curve" smooth="yes"/>
      <point x="436" y="1328"/>
      <point x="482" y="1327"/>
      <point x="507" y="1312" type="curve"/>
      <point x="567" y="1279"/>
      <point x="577" y="1189"/>
      <point x="577" y="1065" type="curve"/>
      <point x="574" y="1066"/>
      <point x="556" y="1067"/>
      <point x="548" y="1067" type="curve" smooth="yes"/>
      <point x="500" y="1067"/>
      <point x="354" y="1064"/>
      <point x="267" y="1029" type="curve" smooth="yes"/>
      <point x="181" y="994"/>
      <point x="140" y="956"/>
      <point x="140" y="854" type="curve" smooth="yes"/>
      <point x="140" y="761"/>
      <point x="206" y="639"/>
      <point x="358" y="639" type="curve" smooth="yes"/>
    </contour>
    <contour>
      <point x="340" y="780"/>
      <point x="307" y="846"/>
      <point x="307" y="894" type="curve" smooth="yes"/>
      <point x="307" y="913"/>
      <point x="309" y="931"/>
      <point x="321" y="943" type="curve" smooth="yes"/>
      <point x="338" y="960"/>
      <point x="413" y="993"/>
      <point x="577" y="1004" type="curve"/>
      <point x="577" y="807" type="line"/>
      <point x="540" y="784"/>
      <point x="456" y="759"/>
      <point x="402" y="759" type="curve" smooth="yes"/>
      <point x="396" y="759"/>
      <point x="385" y="761"/>
      <point x="378" y="763" type="curve"/>
    </contour>
    <contour>
      <point x="148" y="415" type="line"/>
      <point x="308" y="415"/>
      <point x="615" y="419"/>
      <point x="839" y="434" type="curve"/>
      <point x="866" y="533" type="line"/>
      <point x="173" y="533" type="line"/>
    </contour>
  </outline>
</glyph>
<glyph name="twosuperior" format="1">
  <advance width="654"/>
  <unicode hex="00B2"/>
  <outline>
    <contour>
      <point x="436" y="1202"/>
      <point x="556" y="1335"/>
      <point x="556" y="1462" type="curve" smooth="yes"/>
      <point x="556" y="1583"/>
      <point x="468" y="1658"/>
      <point x="317" y="1658" type="curve" smooth="yes"/>
      <point x="240" y="1658"/>
      <point x="155" y="1637"/>
      <point x="78" y="1593" type="curve"/>
      <point x="113" y="1513" type="line"/>
      <point x="188" y="1533"/>
      <point x="232" y="1538"/>
      <point x="281" y="1538" type="curve" smooth="yes"/>
      <point x="362" y="1538"/>
      <point x="396" y="1494"/>
      <point x="396" y="1442" type="curve" smooth="yes"/>
      <point x="396" y="1391"/>
      <point x="366" y="1346"/>
      <point x="307" y="1269" type="curve" smooth="yes"/>
      <point x="273" y="1225"/>
      <point x="80" y="1010"/>
      <point x="50" y="979" type="curve"/>
      <point x="76" y="912" type="line"/>
      <point x="605" y="912" type="line"/>
      <point x="574" y="1038" type="line"/>
      <point x="446" y="1034"/>
      <point x="329" y="1025"/>
      <point x="228" y="1008" type="curve"/>
    </contour>
  </outline>
</glyph>
<glyph name="threesuperior" format="1">
  <advance width="613"/>
  <unicode hex="00B3"/>
  <outline>
    <contour>
      <point x="87" y="862" type="line"/>
      <point x="271" y="862"/>
      <point x="535" y="928"/>
      <point x="535" y="1146" type="curve" smooth="yes"/>
      <point x="535" y="1254"/>
      <point x="454" y="1324"/>
      <point x="349" y="1335" type="curve"/>
      <point x="554" y="1580" type="line"/>
      <point x="528" y="1647" type="line"/>
      <point x="45" y="1647" type="line"/>
      <point x="79" y="1531" type="line"/>
      <point x="176" y="1531"/>
      <point x="310" y="1543"/>
      <point x="419" y="1558" type="curve"/>
      <point x="188" y="1341" type="line"/>
      <point x="171" y="1275" type="line"/>
      <point x="272" y="1275"/>
      <point x="375" y="1238"/>
      <point x="375" y="1141" type="curve" smooth="yes"/>
      <point x="375" y="1009"/>
      <point x="251" y="974"/>
      <point x="66" y="929" type="curve"/>
    </contour>
  </outline>
</glyph>
<glyph name="acute" format="1">
  <advance width="1024"/>
  <unicode hex="00B4"/>
  <outline>
    <contour>
      <point x="336" y="1183" type="line"/>
      <point x="359" y="1061" type="line"/>
      <point x="727" y="1298" type="line"/>
      <point x="698" y="1447" type="line"/>
      <point x="634" y="1447" type="line"/>
    </contour>
    <contour>
      <point x="514" y="950" type="move" name="_top"/>
    </contour>
  </outline>
</glyph>
<glyph name="onesuperior" format="1">
  <advance width="545"/>
  <unicode hex="00B9"/>
  <outline>
    <contour>
      <point x="82" y="981" type="line"/>
      <point x="64" y="912" type="line"/>
      <point x="493" y="912" type="line"/>
      <point x="513" y="984" type="line"/>
      <point x="373" y="1005" type="line"/>
      <point x="373" y="1660" type="line"/>
      <point x="68" y="1600" type="line"/>
      <point x="57" y="1540" type="line"/>
      <point x="210" y="1540" type="line"/>
      <point x="210" y="1005" type="line"/>
    </contour>
  </outline>
</glyph>
<glyph name="ae" format="1">
  <advance width="1434"/>
  <unicode hex="00E6"/>
  <outline>
    <contour>
      <point x="68" y="125"/>
      <point x="138" y="-25"/>
      <point x="325" y="-25" type="curve" smooth="yes"/>
      <point x="467" y="-25"/>
      <point x="631" y="62"/>
      <point x="692" y="129" type="curve"/>
      <point x="778" y="19"/>
      <point x="887" y="-25"/>
      <point x="1012" y="-25" type="curve" smooth="yes"/>
      <point x="1159" y="-25"/>
      <point x="1289" y="86"/>
      <point x="1351" y="157" type="curve"/>
      <point x="1326" y="195" type="line"/>
      <point x="1299" y="178"/>
      <point x="1185" y="119"/>
      <point x="1080" y="119" type="curve" smooth="yes"/>
      <point x="906" y="119"/>
      <point x="785" y="296"/>
      <point x="785" y="489" type="curve"/>
      <point x="1294" y="489" type="line" smooth="yes"/>
      <point x="1319" y="489"/>
      <point x="1329" y="501"/>
      <point x="1336" y="523" type="curve" smooth="yes"/>
      <point x="1350" y="568"/>
      <point x="1358" y="614"/>
      <point x="1358" y="657" type="curve" smooth="yes"/>
      <point x="1358" y="832"/>
      <point x="1251" y="975"/>
      <point x="1044" y="975" type="curve" smooth="yes"/>
      <point x="925" y="975"/>
      <point x="832" y="929"/>
      <point x="762" y="853" type="curve"/>
      <point x="723" y="928"/>
      <point x="651" y="975"/>
      <point x="529" y="975" type="curve" smooth="yes"/>
      <point x="470" y="975"/>
      <point x="297" y="939"/>
      <point x="186" y="879" type="curve" smooth="yes"/>
      <point x="144" y="855"/>
      <point x="102" y="823"/>
      <point x="102" y="779" type="curve" smooth="yes"/>
      <point x="102" y="720"/>
      <point x="167" y="671"/>
      <point x="220" y="671" type="curve" smooth="yes"/>
      <point x="243" y="671"/>
      <point x="263" y="677"/>
      <point x="280" y="686" type="curve"/>
      <point x="315" y="868" type="line"/>
      <point x="334" y="872"/>
      <point x="357" y="875"/>
      <point x="382" y="875" type="curve" smooth="yes"/>
      <point x="433" y="875"/>
      <point x="478" y="867"/>
      <point x="509" y="851" type="curve" smooth="yes"/>
      <point x="607" y="802"/>
      <point x="620" y="665"/>
      <point x="620" y="575" type="curve" smooth="yes"/>
      <point x="620" y="521" type="line"/>
      <point x="594" y="522"/>
      <point x="562" y="523"/>
      <point x="532" y="523" type="curve" smooth="yes"/>
      <point x="441" y="523"/>
      <point x="304" y="510"/>
      <point x="218" y="475" type="curve" smooth="yes"/>
      <point x="111" y="430"/>
      <point x="68" y="371"/>
      <point x="68" y="241" type="curve" smooth="yes"/>
    </contour>
    <contour>
      <point x="785" y="563" type="line"/>
      <point x="794" y="703"/>
      <point x="835" y="799"/>
      <point x="867" y="833" type="curve" smooth="yes"/>
      <point x="889" y="857"/>
      <point x="935" y="859"/>
      <point x="964" y="859" type="curve" smooth="yes"/>
      <point x="1096" y="859"/>
      <point x="1195" y="761"/>
      <point x="1195" y="598" type="curve"/>
    </contour>
    <contour>
      <point x="300" y="133"/>
      <point x="252" y="223"/>
      <point x="252" y="291" type="curve" smooth="yes"/>
      <point x="252" y="316"/>
      <point x="255" y="340"/>
      <point x="271" y="357" type="curve" smooth="yes"/>
      <point x="295" y="382"/>
      <point x="392" y="442"/>
      <point x="620" y="458" type="curve"/>
      <point x="620" y="166" type="line"/>
      <point x="563" y="137"/>
      <point x="461" y="106"/>
      <point x="390" y="106" type="curve" smooth="yes"/>
      <point x="377" y="106"/>
      <point x="365" y="108"/>
      <point x="356" y="112" type="curve"/>
    </contour>
    <contour>
      <point x="807" y="950" type="move" name="top"/>
    </contour>
  </outline>
</glyph>
<glyph name="dotlessi" format="1">
  <advance width="590"/>
  <unicode hex="0131"/>
  <outline>
    <contour>
      <point x="69" y="84" type="line"/>
      <point x="54" y="0" type="line"/>
      <point x="541" y="0" type="line"/>
      <point x="559" y="82" type="line"/>
      <point x="394" y="126" type="line"/>
      <point x="394" y="965" type="line"/>
      <point x="70" y="900" type="line"/>
      <point x="61" y="853" type="line"/>
      <point x="215" y="776" type="line"/>
      <point x="215" y="126" type="line"/>
    </contour>
    <contour>
      <point x="415" y="0" type="move" name="ogonek"/>
    </contour>
    <contour>
      <point x="315" y="0" type="move" name="bottom"/>
    </contour>
    <contour>
      <point x="285" y="950" type="move" name="top"/>
    </contour>
  </outline>
</glyph>
<glyph name="tcaron" format="1">
  <advance width="717"/>
  <unicode hex="0165"/>
  <outline>
    <contour>
      <point x="542" y="1034" type="line"/>
      <point x="637" y="1128"/>
      <point x="724" y="1269"/>
      <point x="724" y="1391" type="curve" smooth="yes"/>
      <point x="724" y="1427"/>
      <point x="720" y="1453"/>
      <point x="710" y="1474" type="curve"/>
      <point x="503" y="1451" type="line"/>
      <point x="487" y="1351" type="line"/>
      <point x="572" y="1314" type="line"/>
      <point x="555" y="1236"/>
      <point x="516" y="1147"/>
      <point x="474" y="1056" type="curve"/>
    </contour>
    <component base="t"/>
  </outline>
</glyph>
<glyph name="uni0326" format="1">
  <advance width="0"/>
  <unicode hex="0326"/>
  <outline>
    <contour>
      <point x="-583" y="-206" type="line"/>
      <point x="-499" y="-230"/>
      <point x="-479" y="-258"/>
      <point x="-479" y="-289" type="curve" smooth="yes"/>
      <point x="-479" y="-331"/>
      <point x="-517" y="-369"/>
      <point x="-597" y="-427" type="curve"/>
      <point x="-582" y="-472" type="line"/>
      <point x="-522" y="-472"/>
      <point x="-361" y="-401"/>
      <point x="-361" y="-261" type="curve" smooth="yes"/>
      <point x="-361" y="-218"/>
      <point x="-381" y="-180"/>
      <point x="-410" y="-152" type="curve" smooth="yes"/>
      <point x="-447" y="-117"/>
      <point x="-498" y="-96"/>
      <point x="-555" y="-95" type="curve"/>
    </contour>
    <contour>
      <point x="-478" y="0" type="move" name="_bottom"/>
    </contour>
  </outline>
</glyph>
<glyph name="rvocalicdeva" format="1">
  <advance width="1570"/>
  <unicode hex="090B"/>
  <note>
    dVocalicR
  </note>
  <outline>
    <contour>
      <point x="114" y="136" type="line"/>
      <point x="218" y="1" type="line"/>
      <point x="701" y="376" type="line"/>
      <point x="701" y="-37" type="line"/>
      <point x="855" y="-100" type="line"/>
      <point x="855" y="460" type="line"/>
      <point x="953" y="466"/>
      <point x="1103" y="476"/>
      <point x="1237" y="563" type="curve"/>
      <point x="1296" y="492"/>
      <point x="1356" y="399"/>
      <point x="1356" y="327" type="curve" smooth="yes"/>
      <point x="1356" y="297"/>
      <point x="1346" y="227"/>
      <point x="1149" y="183" type="curve"/>
      <point x="1211" y="27" type="line"/>
      <point x="1228" y="29"/>
      <point x="1240" y="31"/>
      <point x="1248" y="33" type="curve" smooth="yes"/>
      <point x="1432" y="81"/>
      <point x="1492" y="180"/>
      <point x="1492" y="268" type="curve" smooth="yes"/>
      <point x="1492" y="388"/>
      <point x="1396" y="501"/>
      <point x="1319" y="608" type="curve"/>
      <point x="1359" y="637"/>
      <point x="1397" y="667"/>
      <point x="1426" y="704" type="curve"/>
      <point x="1430" y="710"/>
      <point x="1431" y="714"/>
      <point x="1431" y="720" type="curve" smooth="yes"/>
      <point x="1431" y="728"/>
      <point x="1427" y="739"/>
      <point x="1418" y="750" type="curve" smooth="yes"/>
      <point x="1355" y="830"/>
      <point x="1272" y="896"/>
      <point x="1187" y="896" type="curve" smooth="yes"/>
      <point x="1127" y="896"/>
      <point x="1091" y="860"/>
      <point x="1091" y="798" type="curve" smooth="yes"/>
      <point x="1091" y="752"/>
      <point x="1120" y="697"/>
      <point x="1141" y="656" type="curve"/>
      <point x="1066" y="604"/>
      <point x="976" y="567"/>
      <point x="855" y="555" type="curve"/>
      <point x="855" y="1053" type="line"/>
      <point x="1622" y="1053" type="line"/>
      <point x="1571" y="1187" type="line"/>
      <point x="-52" y="1187" type="line"/>
      <point x="2" y="1053" type="line"/>
      <point x="701" y="1053" type="line"/>
      <point x="701" y="670" type="line"/>
      <point x="545" y="802"/>
      <point x="466" y="858"/>
      <point x="353" y="858" type="curve" smooth="yes"/>
      <point x="263" y="858"/>
      <point x="157" y="808"/>
      <point x="65" y="725" type="curve"/>
      <point x="170" y="596" type="line"/>
      <point x="285" y="709"/>
      <point x="353" y="722"/>
      <point x="408" y="722" type="curve" smooth="yes"/>
      <point x="474" y="722"/>
      <point x="554" y="664"/>
      <point x="705" y="531" type="curve"/>
    </contour>
    <contour>
      <point x="778" y="1187" type="move" name="top"/>
    </contour>
    <contour>
      <point x="778" y="0" type="move" name="bottom"/>
    </contour>
  </outline>
</glyph>
<glyph name="ngadeva" format="1">
  <advance width="1328"/>
  <unicode hex="0919"/>
  <note>
    dNga
  </note>
  <outline>
    <contour>
      <point x="3" y="1053" type="line"/>
      <point x="723" y="1053" type="line"/>
      <point x="727" y="1024"/>
      <point x="730" y="996"/>
      <point x="730" y="957" type="curve" smooth="yes"/>
      <point x="730" y="931"/>
      <point x="729" y="907"/>
      <point x="727" y="893" type="curve"/>
      <point x="464" y="893" type="line" smooth="yes"/>
      <point x="359" y="893"/>
      <point x="216" y="871"/>
      <point x="216" y="720" type="curve" smooth="yes"/>
      <point x="216" y="623"/>
      <point x="328" y="391"/>
      <point x="551" y="391" type="curve" smooth="yes"/>
      <point x="710" y="391"/>
      <point x="788" y="446"/>
      <point x="869" y="446" type="curve" smooth="yes"/>
      <point x="874" y="446"/>
      <point x="882" y="445"/>
      <point x="886" y="444" type="curve"/>
      <point x="892" y="431"/>
      <point x="896" y="399"/>
      <point x="895" y="382" type="curve" smooth="yes"/>
      <point x="890" y="254"/>
      <point x="774" y="155"/>
      <point x="621" y="155" type="curve" smooth="yes"/>
      <point x="502" y="155"/>
      <point x="327" y="185"/>
      <point x="124" y="523" type="curve"/>
      <point x="46" y="479" type="line"/>
      <point x="128" y="303"/>
      <point x="309" y="4"/>
      <point x="656" y="4" type="curve" smooth="yes"/>
      <point x="848" y="4"/>
      <point x="1039" y="108"/>
      <point x="1039" y="338" type="curve" smooth="yes"/>
      <point x="1039" y="406"/>
      <point x="934" y="525"/>
      <point x="842" y="573" type="curve" smooth="yes"/>
      <point x="822" y="583"/>
      <point x="801" y="588"/>
      <point x="779" y="588" type="curve" smooth="yes"/>
      <point x="669" y="588"/>
      <point x="523" y="523"/>
      <point x="438" y="523" type="curve" smooth="yes"/>
      <point x="414" y="523"/>
      <point x="399" y="524"/>
      <point x="392" y="536" type="curve" smooth="yes"/>
      <point x="377" y="561"/>
      <point x="367" y="610"/>
      <point x="367" y="654" type="curve" smooth="yes"/>
      <point x="367" y="742"/>
      <point x="427" y="755"/>
      <point x="494" y="755" type="curve" smooth="yes"/>
      <point x="880" y="755" type="line"/>
      <point x="885" y="802"/>
      <point x="887" y="833"/>
      <point x="887" y="866" type="curve" smooth="yes"/>
      <point x="887" y="936"/>
      <point x="878" y="996"/>
      <point x="862" y="1053" type="curve"/>
      <point x="1380" y="1053" type="line"/>
      <point x="1328" y="1187" type="line"/>
      <point x="-52" y="1187" type="line"/>
    </contour>
    <contour>
      <point x="1131" y="688"/>
      <point x="1034" y="611"/>
      <point x="1034" y="561" type="curve" smooth="yes"/>
      <point x="1034" y="536"/>
      <point x="1117" y="431"/>
      <point x="1159" y="431" type="curve" smooth="yes"/>
      <point x="1188" y="431"/>
      <point x="1290" y="511"/>
      <point x="1290" y="559" type="curve" smooth="yes"/>
      <point x="1290" y="582"/>
      <point x="1207" y="688"/>
      <point x="1165" y="688" type="curve" smooth="yes"/>
    </contour>
    <contour>
      <point x="66" y="50" type="move" name="nukta"/>
    </contour>
    <contour>
      <point x="645" y="50" type="move" name="bottom"/>
    </contour>
    <contour>
      <point x="793" y="1187" type="move" name="top"/>
    </contour>
  </outline>
</glyph>
<glyph name="cadeva" format="1">
  <advance width="1231"/>
  <unicode hex="091A"/>
  <note>
    dCa
  </note>
  <outline>
    <contour>
      <point x="1283" y="1053" type="line"/>
      <point x="1231" y="1187" type="line"/>
      <point x="-52" y="1187" type="line"/>
      <point x="6" y="1053" type="line"/>
      <point x="909" y="1053" type="line"/>
      <point x="909" y="537" type="line"/>
      <point x="836" y="360"/>
      <point x="690" y="269"/>
      <point x="533" y="269" type="curve" smooth="yes"/>
      <point x="492" y="269"/>
      <point x="448" y="280"/>
      <point x="432" y="294" type="curve" smooth="yes"/>
      <point x="417" y="307"/>
      <point x="401" y="347"/>
      <point x="401" y="405" type="curve" smooth="yes"/>
      <point x="401" y="541"/>
      <point x="512" y="661"/>
      <point x="731" y="663" type="curve" smooth="yes"/>
      <point x="747" y="663" type="line"/>
      <point x="695" y="804" type="line"/>
      <point x="57" y="804" type="line"/>
      <point x="114" y="663" type="line"/>
      <point x="361" y="663" type="line"/>
      <point x="290" y="620"/>
      <point x="244" y="553"/>
      <point x="244" y="457" type="curve" smooth="yes"/>
      <point x="244" y="423"/>
      <point x="253" y="383"/>
      <point x="276" y="347" type="curve" smooth="yes"/>
      <point x="345" y="239"/>
      <point x="489" y="138"/>
      <point x="616" y="138" type="curve" smooth="yes"/>
      <point x="734" y="138"/>
      <point x="827" y="165"/>
      <point x="909" y="248" type="curve"/>
      <point x="909" y="-39" type="line"/>
      <point x="1063" y="-102" type="line"/>
      <point x="1063" y="1053" type="line"/>
    </contour>
    <contour>
      <point x="320" y="0" type="move" name="nukta"/>
    </contour>
    <contour>
      <point x="986" y="0" type="move" name="bottom"/>
    </contour>
    <contour>
      <point x="986" y="1187" type="move" name="top"/>
    </contour>
  </outline>
</glyph>
<glyph name="jhadeva" format="1">
  <advance width="1402"/>
  <unicode hex="091D"/>
  <note>
    dJha
  </note>
  <outline>
    <contour>
      <point x="1404" y="1187" type="line"/>
      <point x="-52" y="1187" type="line"/>
      <point x="3" y="1053" type="line"/>
      <point x="628" y="1053" type="line"/>
      <point x="632" y="1022"/>
      <point x="634" y="990"/>
      <point x="634" y="954" type="curve" smooth="yes"/>
      <point x="634" y="928"/>
      <point x="633" y="903"/>
      <point x="631" y="889" type="curve"/>
      <point x="422" y="889" type="line" smooth="yes"/>
      <point x="302" y="889"/>
      <point x="164" y="862"/>
      <point x="164" y="702" type="curve" smooth="yes"/>
      <point x="164" y="605"/>
      <point x="276" y="387"/>
      <point x="498" y="387" type="curve" smooth="yes"/>
      <point x="643" y="387"/>
      <point x="704" y="437"/>
      <point x="788" y="437" type="curve" smooth="yes"/>
      <point x="802" y="437"/>
      <point x="810" y="395"/>
      <point x="809" y="355" type="curve" smooth="yes"/>
      <point x="806" y="211"/>
      <point x="616" y="139"/>
      <point x="489" y="139" type="curve" smooth="yes"/>
      <point x="465" y="139"/>
      <point x="442" y="140"/>
      <point x="413" y="145" type="curve"/>
      <point x="355" y="256"/>
      <point x="324" y="311"/>
      <point x="295" y="311" type="curve" smooth="yes"/>
      <point x="230" y="311"/>
      <point x="128" y="244"/>
      <point x="128" y="167" type="curve" smooth="yes"/>
      <point x="128" y="103"/>
      <point x="236" y="46"/>
      <point x="345" y="16" type="curve"/>
      <point x="420" y="-146"/>
      <point x="506" y="-268"/>
      <point x="644" y="-268" type="curve" smooth="yes"/>
      <point x="692" y="-268"/>
      <point x="734" y="-256"/>
      <point x="790" y="-220" type="curve"/>
      <point x="724" y="-90" type="line"/>
      <point x="689" y="-109"/>
      <point x="666" y="-120"/>
      <point x="632" y="-120" type="curve" smooth="yes"/>
      <point x="559" y="-120"/>
      <point x="508" y="-90"/>
      <point x="461" y="-3" type="curve"/>
      <point x="482" y="-4" type="line" smooth="yes"/>
      <point x="717" y="-4"/>
      <point x="920" y="93"/>
      <point x="920" y="314" type="curve" smooth="yes"/>
      <point x="920" y="335"/>
      <point x="915" y="363"/>
      <point x="905" y="392" type="curve"/>
      <point x="929" y="383"/>
      <point x="954" y="379"/>
      <point x="978" y="379" type="curve" smooth="yes"/>
      <point x="1018" y="379"/>
      <point x="1058" y="388"/>
      <point x="1101" y="405" type="curve"/>
      <point x="1101" y="-39" type="line"/>
      <point x="1255" y="-102" type="line"/>
      <point x="1255" y="1053" type="line"/>
      <point x="1454" y="1053" type="line"/>
    </contour>
    <contour>
      <point x="885" y="501"/>
      <point x="861" y="503"/>
      <point x="837" y="508" type="curve"/>
      <point x="815" y="533"/>
      <point x="788" y="554"/>
      <point x="757" y="566" type="curve" smooth="yes"/>
      <point x="740" y="572"/>
      <point x="724" y="576"/>
      <point x="706" y="576" type="curve" smooth="yes"/>
      <point x="596" y="576"/>
      <point x="461" y="522"/>
      <point x="392" y="522" type="curve" smooth="yes"/>
      <point x="369" y="522"/>
      <point x="353" y="522"/>
      <point x="343" y="534" type="curve"/>
      <point x="328" y="554"/>
      <point x="317" y="594"/>
      <point x="317" y="623" type="curve" smooth="yes"/>
      <point x="317" y="670"/>
      <point x="326" y="741"/>
      <point x="441" y="741" type="curve" smooth="yes"/>
      <point x="783" y="741" type="line"/>
      <point x="789" y="787"/>
      <point x="791" y="812"/>
      <point x="791" y="843" type="curve" smooth="yes"/>
      <point x="791" y="917"/>
      <point x="782" y="993"/>
      <point x="766" y="1053" type="curve"/>
      <point x="1101" y="1053" type="line"/>
      <point x="1101" y="562" type="line"/>
      <point x="1043" y="524"/>
      <point x="976" y="502"/>
      <point x="908" y="501" type="curve" smooth="yes"/>
    </contour>
    <contour>
      <point x="157" y="-120" type="move" name="nukta"/>
    </contour>
    <contour>
      <point x="1178" y="0" type="move" name="bottom"/>
    </contour>
    <contour>
      <point x="1178" y="1187" type="move" name="top"/>
    </contour>
  </outline>
</glyph>
<glyph name="ttadeva" format="1">
  <advance width="1129"/>
  <unicode hex="091F"/>
  <note>
    dTta
  </note>
  <outline>
    <contour>
      <point x="322" y="250"/>
      <point x="287" y="344"/>
      <point x="287" y="458" type="curve" smooth="yes"/>
      <point x="287" y="614"/>
      <point x="390" y="668"/>
      <point x="525" y="668" type="curve" smooth="yes"/>
      <point x="850" y="668" type="line"/>
      <point x="872" y="730"/>
      <point x="881" y="783"/>
      <point x="881" y="836" type="curve" smooth="yes"/>
      <point x="881" y="905"/>
      <point x="869" y="972"/>
      <point x="848" y="1053" type="curve"/>
      <point x="1181" y="1053" type="line"/>
      <point x="1127" y="1187" type="line"/>
      <point x="-52" y="1187" type="line"/>
      <point x="2" y="1053" type="line"/>
      <point x="720" y="1053" type="line"/>
      <point x="722" y="1024"/>
      <point x="724" y="1003"/>
      <point x="724" y="954" type="curve" smooth="yes"/>
      <point x="724" y="893"/>
      <point x="717" y="854"/>
      <point x="707" y="809" type="curve"/>
      <point x="517" y="809" type="line" smooth="yes"/>
      <point x="174" y="809"/>
      <point x="113" y="665"/>
      <point x="113" y="526" type="curve" smooth="yes"/>
      <point x="113" y="219"/>
      <point x="361" y="18"/>
      <point x="633" y="18" type="curve" smooth="yes"/>
      <point x="804" y="18"/>
      <point x="948" y="85"/>
      <point x="1045" y="202" type="curve"/>
      <point x="930" y="332" type="line"/>
      <point x="804" y="199"/>
      <point x="700" y="164"/>
      <point x="564" y="164" type="curve" smooth="yes"/>
      <point x="462" y="164"/>
      <point x="381" y="193"/>
      <point x="356" y="217" type="curve" smooth="yes"/>
    </contour>
    <contour>
      <point x="86" y="60" type="move" name="nukta"/>
    </contour>
    <contour>
      <point x="665" y="60" type="move" name="bottom"/>
    </contour>
    <contour>
      <point x="789" y="1187" type="move" name="top"/>
    </contour>
  </outline>
</glyph>
<glyph name="dadeva" format="1">
  <advance width="1135"/>
  <unicode hex="0926"/>
  <note>
    dDa
  </note>
  <outline>
    <contour>
      <point x="857" y="149" type="line" smooth="yes"/>
      <point x="922" y="190"/>
      <point x="1009" y="275"/>
      <point x="1009" y="320" type="curve" smooth="yes"/>
      <point x="1009" y="328"/>
      <point x="1007" y="334"/>
      <point x="1002" y="340" type="curve" smooth="yes"/>
      <point x="945" y="408"/>
      <point x="825" y="470"/>
      <point x="742" y="470" type="curve" smooth="yes"/>
      <point x="690" y="470"/>
      <point x="654" y="448"/>
      <point x="654" y="391" type="curve" smooth="yes"/>
      <point x="654" y="355"/>
      <point x="670" y="288"/>
      <point x="689" y="242" type="curve"/>
      <point x="631" y="206"/>
      <point x="524" y="183"/>
      <point x="435" y="196" type="curve" smooth="yes"/>
      <point x="402" y="200"/>
      <point x="371" y="208"/>
      <point x="342" y="221" type="curve" smooth="yes"/>
      <point x="309" y="236"/>
      <point x="264" y="348"/>
      <point x="264" y="446" type="curve" smooth="yes"/>
      <point x="264" y="556"/>
      <point x="286" y="668"/>
      <point x="514" y="668" type="curve" smooth="yes"/>
      <point x="850" y="668" type="line"/>
      <point x="866" y="734"/>
      <point x="872" y="785"/>
      <point x="872" y="836" type="curve" smooth="yes"/>
      <point x="872" y="901"/>
      <point x="862" y="964"/>
      <point x="843" y="1053" type="curve"/>
      <point x="1187" y="1053" type="line"/>
      <point x="1135" y="1187" type="line"/>
      <point x="-52" y="1187" type="line"/>
      <point x="2" y="1053" type="line"/>
      <point x="708" y="1053" type="line"/>
      <point x="712" y="1009"/>
      <point x="716" y="966"/>
      <point x="714" y="919" type="curve" smooth="yes"/>
      <point x="713" y="892"/>
      <point x="713" y="859"/>
      <point x="705" y="816" type="curve"/>
      <point x="506" y="816" type="line" smooth="yes"/>
      <point x="163" y="816"/>
      <point x="97" y="660"/>
      <point x="97" y="518" type="curve" smooth="yes"/>
      <point x="97" y="210"/>
      <point x="337" y="60"/>
      <point x="565" y="60" type="curve" smooth="yes"/>
      <point x="636" y="60"/>
      <point x="697" y="72"/>
      <point x="754" y="95" type="curve"/>
      <point x="809" y="-35"/>
      <point x="875" y="-108"/>
      <point x="954" y="-197" type="curve"/>
      <point x="1083" y="-63" type="line"/>
      <point x="983" y="-10"/>
      <point x="908" y="28"/>
      <point x="836" y="136" type="curve"/>
    </contour>
    <contour>
      <point x="106" y="0" type="move" name="nukta"/>
    </contour>
    <contour>
      <point x="769" y="10" type="move" name="bottom"/>
    </contour>
    <contour>
      <point x="776" y="1187" type="move" name="top"/>
    </contour>
  </outline>
</glyph>
<glyph name="madeva" format="1">
  <advance width="1133"/>
  <unicode hex="092E"/>
  <note>
    dMa
  </note>
  <outline>
    <contour>
      <point x="384" y="218"/>
      <point x="391" y="324"/>
      <point x="391" y="394" type="curve"/>
      <point x="845" y="394" type="line"/>
      <point x="845" y="-39" type="line"/>
      <point x="999" y="-102" type="line"/>
      <point x="999" y="1053" type="line"/>
      <point x="1185" y="1053" type="line"/>
      <point x="1133" y="1187" type="line"/>
      <point x="-52" y="1187" type="line"/>
      <point x="3" y="1053" type="line"/>
      <point x="234" y="1053" type="line"/>
      <point x="234" y="537" type="line"/>
      <point x="224" y="537" type="line" smooth="yes"/>
      <point x="185" y="537"/>
      <point x="69" y="537"/>
      <point x="69" y="489" type="curve" smooth="yes"/>
      <point x="69" y="409"/>
      <point x="258" y="218"/>
      <point x="327" y="218" type="curve" smooth="yes"/>
    </contour>
    <contour>
      <point x="845" y="532" type="line"/>
      <point x="389" y="532" type="line"/>
      <point x="389" y="1053" type="line"/>
      <point x="845" y="1053" type="line"/>
    </contour>
    <contour>
      <point x="277" y="0" type="move" name="nukta"/>
    </contour>
    <contour>
      <point x="922" y="0" type="move" name="bottom"/>
    </contour>
    <contour>
      <point x="922" y="1187" type="move" name="top"/>
    </contour>
  </outline>
</glyph>
<glyph name="lladeva" format="1">
  <advance width="1598"/>
  <unicode hex="0933"/>
  <note>
    dLla
  </note>
  <outline>
    <contour>
      <point x="1318" y="736"/>
      <point x="1319" y="758"/>
      <point x="1319" y="781" type="curve" smooth="yes"/>
      <point x="1319" y="885"/>
      <point x="1299" y="989"/>
      <point x="1281" y="1053" type="curve"/>
      <point x="1650" y="1053" type="line"/>
      <point x="1598" y="1187" type="line"/>
      <point x="-52" y="1187" type="line"/>
      <point x="2" y="1053" type="line"/>
      <point x="1158" y="1053" type="line"/>
      <point x="1162" y="1019"/>
      <point x="1165" y="973"/>
      <point x="1165" y="925" type="curve" smooth="yes"/>
      <point x="1165" y="863"/>
      <point x="1157" y="805"/>
      <point x="1147" y="758" type="curve"/>
      <point x="1136" y="758" type="line" smooth="yes"/>
      <point x="948" y="758"/>
      <point x="850" y="654"/>
      <point x="777" y="530" type="curve"/>
      <point x="687" y="663"/>
      <point x="579" y="753"/>
      <point x="419" y="753" type="curve" smooth="yes"/>
      <point x="208" y="753"/>
      <point x="85" y="611"/>
      <point x="85" y="392" type="curve" smooth="yes"/>
      <point x="85" y="205"/>
      <point x="234" y="41"/>
      <point x="464" y="41" type="curve" smooth="yes"/>
      <point x="638" y="41"/>
      <point x="739" y="130"/>
      <point x="815" y="259" type="curve"/>
      <point x="913" y="129"/>
      <point x="1039" y="41"/>
      <point x="1171" y="41" type="curve" smooth="yes"/>
      <point x="1375" y="41"/>
      <point x="1509" y="164"/>
      <point x="1509" y="380" type="curve" smooth="yes"/>
      <point x="1509" y="537"/>
      <point x="1430" y="655"/>
      <point x="1316" y="715" type="curve"/>
    </contour>
    <contour>
      <point x="1058" y="196"/>
      <point x="957" y="227"/>
      <point x="850" y="326" type="curve"/>
      <point x="948" y="527"/>
      <point x="1045" y="653"/>
      <point x="1198" y="653" type="curve" smooth="yes"/>
      <point x="1227" y="653"/>
      <point x="1266" y="653"/>
      <point x="1279" y="636" type="curve" smooth="yes"/>
      <point x="1330" y="573"/>
      <point x="1346" y="485"/>
      <point x="1346" y="407" type="curve" smooth="yes"/>
      <point x="1346" y="296"/>
      <point x="1278" y="196"/>
      <point x="1142" y="196" type="curve" smooth="yes"/>
    </contour>
    <contour>
      <point x="343" y="154"/>
      <point x="331" y="160"/>
      <point x="318" y="171" type="curve" smooth="yes"/>
      <point x="266" y="214"/>
      <point x="249" y="309"/>
      <point x="249" y="374" type="curve" smooth="yes"/>
      <point x="249" y="499"/>
      <point x="307" y="597"/>
      <point x="447" y="597" type="curve" smooth="yes"/>
      <point x="554" y="597"/>
      <point x="639" y="561"/>
      <point x="743" y="468" type="curve"/>
      <point x="737" y="457" type="line" smooth="yes"/>
      <point x="657" y="299"/>
      <point x="558" y="154"/>
      <point x="377" y="154" type="curve" smooth="yes"/>
    </contour>
    <contour>
      <point x="96" y="-50" type="move" name="nukta"/>
    </contour>
    <contour>
      <point x="1205" y="80" type="move" name="bottom"/>
    </contour>
    <contour>
      <point x="1230" y="1187" type="move" name="top"/>
    </contour>
  </outline>
</glyph>
<glyph name="viramadeva" format="1">
  <advance width="512"/>
  <unicode hex="094D"/>
  <note>
    dHalant
  </note>
  <outline>
    <contour>
      <point x="78" y="-245" type="line"/>
      <point x="339" y="-324"/>
      <point x="468" y="-424"/>
      <point x="625" y="-622" type="curve"/>
      <point x="715" y="-575" type="line"/>
      <point x="513" y="-240"/>
      <point x="322" y="-156"/>
      <point x="196" y="-116" type="curve"/>
    </contour>
    <contour>
      <point x="256" y="0" type="move" name="_bottom"/>
    </contour>
  </outline>
</glyph>
<glyph name="uni094E" format="1">
  <advance width="562"/>
  <unicode hex="094E"/>
  <outline>
    <contour>
      <point x="226" y="1187" type="line"/>
      <point x="226" y="-19" type="line" smooth="yes"/>
      <point x="226" y="-30"/>
      <point x="227" y="-39"/>
      <point x="239" y="-44" type="curve" smooth="yes"/>
      <point x="341" y="-88"/>
      <point x="358" y="-93"/>
      <point x="366" y="-93" type="curve" smooth="yes"/>
      <point x="374" y="-93"/>
      <point x="380" y="-89"/>
      <point x="380" y="-76" type="curve" smooth="yes"/>
      <point x="380" y="1053" type="line"/>
      <point x="606" y="1053" type="line" smooth="yes"/>
      <point x="618" y="1053"/>
      <point x="622" y="1058"/>
      <point x="622" y="1064" type="curve" smooth="yes"/>
      <point x="622" y="1071"/>
      <point x="618" y="1076"/>
      <point x="583" y="1171" type="curve" smooth="yes"/>
      <point x="580" y="1180"/>
      <point x="575" y="1187"/>
      <point x="565" y="1187" type="curve" smooth="yes"/>
    </contour>
  </outline>
</glyph>
<glyph name="uni0956" format="1">
  <advance width="0"/>
  <unicode hex="0956"/>
  <outline>
    <contour>
      <point x="-1053" y="-169" type="line"/>
      <point x="-920" y="-352"/>
      <point x="-790" y="-399"/>
      <point x="-653" y="-399" type="curve" smooth="yes"/>
      <point x="-503" y="-399"/>
      <point x="-394" y="-333"/>
      <point x="-284" y="-188" type="curve"/>
      <point x="-392" y="-90" type="line"/>
      <point x="-493" y="-212"/>
      <point x="-589" y="-279"/>
      <point x="-706" y="-277" type="curve" smooth="yes"/>
      <point x="-803" y="-275"/>
      <point x="-886" y="-235"/>
      <point x="-993" y="-118" type="curve"/>
    </contour>
  </outline>
</glyph>
<glyph name="danda-deva" format="1">
  <advance width="614"/>
  <unicode hex="0964"/>
  <note>
    dDanda
  </note>
  <outline>
    <contour>
      <point x="230" y="1277" type="line"/>
      <point x="230" y="-169" type="line"/>
      <point x="384" y="-230" type="line"/>
      <point x="384" y="1213" type="line"/>
    </contour>
  </outline>
</glyph>
<glyph name="threedeva" format="1">
  <advance width="1020"/>
  <unicode hex="0969"/>
  <note>
    dThree
  </note>
  <outline>
    <contour>
      <point x="927" y="651"/>
      <point x="850" y="728"/>
      <point x="733" y="802" type="curve"/>
      <point x="799" y="843"/>
      <point x="843" y="904"/>
      <point x="843" y="992" type="curve" smooth="yes"/>
      <point x="843" y="1146"/>
      <point x="693" y="1299"/>
      <point x="499" y="1299" type="curve" smooth="yes"/>
      <point x="410" y="1299"/>
      <point x="283" y="1282"/>
      <point x="158" y="1187" type="curve"/>
      <point x="252" y="1036" type="line"/>
      <point x="360" y="1121"/>
      <point x="476" y="1182"/>
      <point x="609" y="1182" type="curve" smooth="yes"/>
      <point x="656" y="1182"/>
      <point x="696" y="1169"/>
      <point x="701" y="1163" type="curve" smooth="yes"/>
      <point x="723" y="1137"/>
      <point x="726" y="1091"/>
      <point x="726" y="1065" type="curve" smooth="yes"/>
      <point x="726" y="982"/>
      <point x="627" y="907"/>
      <point x="339" y="894" type="curve"/>
      <point x="412" y="734" type="line"/>
      <point x="494" y="732"/>
      <point x="581" y="741"/>
      <point x="654" y="766" type="curve"/>
      <point x="730" y="710"/>
      <point x="765" y="644"/>
      <point x="766" y="582" type="curve" smooth="yes"/>
      <point x="768" y="457"/>
      <point x="637" y="352"/>
      <point x="414" y="400" type="curve"/>
      <point x="379" y="542"/>
      <point x="344" y="586"/>
      <point x="306" y="586" type="curve" smooth="yes"/>
      <point x="249" y="586"/>
      <point x="144" y="529"/>
      <point x="144" y="438" type="curve" smooth="yes"/>
      <point x="144" y="380"/>
      <point x="244" y="310"/>
      <point x="366" y="274" type="curve"/>
      <point x="460" y="23"/>
      <point x="534" y="-53"/>
      <point x="667" y="-53" type="curve" smooth="yes"/>
      <point x="721" y="-53"/>
      <point x="749" y="-47"/>
      <point x="809" y="-24" type="curve"/>
      <point x="764" y="138" type="line"/>
      <point x="709" y="124"/>
      <point x="685" y="121"/>
      <point x="644" y="122" type="curve" smooth="yes"/>
      <point x="567" y="124"/>
      <point x="508" y="166"/>
      <point x="462" y="253" type="curve"/>
      <point x="484" y="251"/>
      <point x="506" y="249"/>
      <point x="527" y="249" type="curve" smooth="yes"/>
      <point x="767" y="249"/>
      <point x="927" y="361"/>
      <point x="927" y="529" type="curve"/>
    </contour>
  </outline>
</glyph>
<glyph name="uni097B" format="1">
  <advance width="1201"/>
  <unicode hex="097B"/>
  <note>
    dGga
  </note>
  <outline>
    <contour>
      <point x="1202" y="1187" type="line"/>
      <point x="-52" y="1187" type="line"/>
      <point x="4" y="1053" type="line"/>
      <point x="319" y="1053" type="line"/>
      <point x="336" y="958"/>
      <point x="340" y="850"/>
      <point x="340" y="749" type="curve" smooth="yes"/>
      <point x="340" y="687"/>
      <point x="333" y="628"/>
      <point x="331" y="614" type="curve"/>
      <point x="321" y="615"/>
      <point x="303" y="616"/>
      <point x="291" y="616" type="curve" smooth="yes"/>
      <point x="252" y="616"/>
      <point x="185" y="610"/>
      <point x="151" y="593" type="curve" smooth="yes"/>
      <point x="135" y="585"/>
      <point x="127" y="577"/>
      <point x="127" y="565" type="curve" smooth="yes"/>
      <point x="127" y="505"/>
      <point x="309" y="274"/>
      <point x="390" y="274" type="curve" smooth="yes"/>
      <point x="400" y="274"/>
      <point x="409" y="278"/>
      <point x="418" y="289" type="curve"/>
      <point x="480" y="359"/>
      <point x="497" y="540"/>
      <point x="497" y="631" type="curve" smooth="yes"/>
      <point x="497" y="725"/>
      <point x="486" y="917"/>
      <point x="463" y="1053" type="curve"/>
      <point x="852" y="1053" type="line"/>
      <point x="852" y="17" type="line"/>
      <point x="58" y="17" type="line"/>
      <point x="100" y="-94" type="line"/>
      <point x="1006" y="-94" type="line"/>
      <point x="1006" y="1053" type="line"/>
      <point x="1253" y="1053" type="line"/>
    </contour>
  </outline>
</glyph>
<glyph name="uni097E" format="1">
  <advance width="1089"/>
  <unicode hex="097E"/>
  <note>
    dDdda
  </note>
  <outline>
    <contour>
      <point x="3" y="1053" type="line"/>
      <point x="724" y="1053" type="line"/>
      <point x="728" y="1024"/>
      <point x="731" y="996"/>
      <point x="731" y="957" type="curve" smooth="yes"/>
      <point x="731" y="931"/>
      <point x="730" y="907"/>
      <point x="728" y="893" type="curve"/>
      <point x="475" y="893" type="line" smooth="yes"/>
      <point x="370" y="893"/>
      <point x="217" y="871"/>
      <point x="217" y="720" type="curve" smooth="yes"/>
      <point x="217" y="623"/>
      <point x="329" y="411"/>
      <point x="552" y="411" type="curve" smooth="yes"/>
      <point x="701" y="411"/>
      <point x="789" y="466"/>
      <point x="870" y="466" type="curve" smooth="yes"/>
      <point x="875" y="466"/>
      <point x="883" y="465"/>
      <point x="887" y="464" type="curve"/>
      <point x="893" y="451"/>
      <point x="897" y="419"/>
      <point x="896" y="402" type="curve" smooth="yes"/>
      <point x="891" y="284"/>
      <point x="775" y="190"/>
      <point x="622" y="190" type="curve" smooth="yes"/>
      <point x="503" y="190"/>
      <point x="338" y="222"/>
      <point x="124" y="559" type="curve"/>
      <point x="44" y="517" type="line"/>
      <point x="207" y="187"/>
      <point x="396" y="39"/>
      <point x="657" y="39" type="curve" smooth="yes"/>
      <point x="849" y="39"/>
      <point x="1022" y="142"/>
      <point x="1022" y="362" type="curve" smooth="yes"/>
      <point x="1022" y="430"/>
      <point x="935" y="545"/>
      <point x="843" y="593" type="curve" smooth="yes"/>
      <point x="823" y="603"/>
      <point x="802" y="608"/>
      <point x="780" y="608" type="curve" smooth="yes"/>
      <point x="670" y="608"/>
      <point x="524" y="543"/>
      <point x="439" y="543" type="curve" smooth="yes"/>
      <point x="415" y="543"/>
      <point x="400" y="544"/>
      <point x="393" y="556" type="curve" smooth="yes"/>
      <point x="378" y="581"/>
      <point x="368" y="610"/>
      <point x="368" y="654" type="curve" smooth="yes"/>
      <point x="368" y="742"/>
      <point x="428" y="755"/>
      <point x="495" y="755" type="curve" smooth="yes"/>
      <point x="882" y="755" type="line"/>
      <point x="886" y="806"/>
      <point x="888" y="829"/>
      <point x="888" y="866" type="curve" smooth="yes"/>
      <point x="888" y="936"/>
      <point x="879" y="996"/>
      <point x="863" y="1053" type="curve"/>
      <point x="1141" y="1053" type="line"/>
      <point x="1090" y="1187" type="line"/>
      <point x="-52" y="1187" type="line"/>
    </contour>
    <contour>
      <point x="976" y="-93" type="line"/>
      <point x="36" y="-93" type="line"/>
      <point x="79" y="-204" type="line"/>
      <point x="1018" y="-204" type="line"/>
    </contour>
  </outline>
</glyph>
<glyph name="endash" format="1">
  <advance width="1024"/>
  <unicode hex="2013"/>
  <outline>
    <contour>
      <point x="42" y="451" type="line"/>
      <point x="204" y="451"/>
      <point x="793" y="457"/>
      <point x="955" y="467" type="curve"/>
      <point x="982" y="607" type="line"/>
      <point x="76" y="607" type="line"/>
    </contour>
  </outline>
</glyph>
<glyph name="quoteright" format="1">
  <advance width="414"/>
  <unicode hex="2019"/>
  <outline>
    <contour>
      <point x="90" y="989" type="line"/>
      <point x="166" y="972" type="line"/>
      <point x="338" y="1107"/>
      <point x="386" y="1353"/>
      <point x="334" y="1422" type="curve" smooth="yes"/>
      <point x="309" y="1455"/>
      <point x="158" y="1476"/>
      <point x="128" y="1449" type="curve"/>
      <point x="92" y="1422"/>
      <point x="84" y="1309"/>
      <point x="102" y="1276" type="curve" smooth="yes"/>
      <point x="113" y="1257"/>
      <point x="158" y="1238"/>
      <point x="201" y="1229" type="curve"/>
    </contour>
  </outline>
</glyph>
<glyph name="quotedblright" format="1">
  <advance width="823"/>
  <unicode hex="201D"/>
  <outline>
    <contour>
      <point x="90" y="989" type="line"/>
      <point x="166" y="972" type="line"/>
      <point x="338" y="1107"/>
      <point x="386" y="1353"/>
      <point x="334" y="1422" type="curve" smooth="yes"/>
      <point x="309" y="1455"/>
      <point x="158" y="1476"/>
      <point x="128" y="1449" type="curve"/>
      <point x="92" y="1422"/>
      <point x="84" y="1309"/>
      <point x="102" y="1276" type="curve" smooth="yes"/>
      <point x="113" y="1257"/>
      <point x="158" y="1238"/>
      <point x="201" y="1229" type="curve"/>
    </contour>
    <contour>
      <point x="478" y="946" type="line"/>
      <point x="548" y="930" type="line"/>
      <point x="754" y="1086"/>
      <point x="792" y="1357"/>
      <point x="744" y="1424" type="curve" smooth="yes"/>
      <point x="720" y="1458"/>
      <point x="559" y="1474"/>
      <point x="527" y="1449" type="curve" smooth="yes"/>
      <point x="493" y="1423"/>
      <point x="482" y="1295"/>
      <point x="502" y="1264" type="curve"/>
      <point x="513" y="1244"/>
      <point x="561" y="1226"/>
      <point x="610" y="1217" type="curve"/>
    </contour>
  </outline>
</glyph>
<glyph name="quotedblbase" format="1">
  <advance width="931"/>
  <unicode hex="201E"/>
  <outline>
    <contour>
      <point x="539" y="-239" type="line"/>
      <point x="615" y="-256" type="line"/>
      <point x="787" y="-121"/>
      <point x="835" y="125"/>
      <point x="783" y="194" type="curve" smooth="yes"/>
      <point x="758" y="227"/>
      <point x="607" y="248"/>
      <point x="577" y="221" type="curve"/>
      <point x="541" y="194"/>
      <point x="533" y="81"/>
      <point x="551" y="48" type="curve" smooth="yes"/>
      <point x="562" y="29"/>
      <point x="607" y="10"/>
      <point x="650" y="1" type="curve"/>
    </contour>
    <contour>
      <point x="117" y="-282" type="line"/>
      <point x="187" y="-298" type="line"/>
      <point x="393" y="-142"/>
      <point x="431" y="129"/>
      <point x="383" y="196" type="curve" smooth="yes"/>
      <point x="359" y="230"/>
      <point x="198" y="246"/>
      <point x="166" y="221" type="curve" smooth="yes"/>
      <point x="132" y="195"/>
      <point x="121" y="67"/>
      <point x="141" y="36" type="curve"/>
      <point x="152" y="16"/>
      <point x="200" y="-2"/>
      <point x="249" y="-11" type="curve"/>
    </contour>
  </outline>
</glyph>
<glyph name="bullet" format="1">
  <advance width="659"/>
  <unicode hex="2022"/>
  <outline>
    <contour>
      <point x="396" y="283"/>
      <point x="562" y="449"/>
      <point x="562" y="515" type="curve" smooth="yes"/>
      <point x="562" y="581"/>
      <point x="396" y="748"/>
      <point x="330" y="748" type="curve" smooth="yes"/>
      <point x="263" y="748"/>
      <point x="97" y="581"/>
      <point x="97" y="515" type="curve" smooth="yes"/>
      <point x="97" y="449"/>
      <point x="263" y="283"/>
      <point x="330" y="283" type="curve" smooth="yes"/>
    </contour>
  </outline>
</glyph>
<glyph name="guilsinglleft" format="1">
  <advance width="645"/>
  <unicode hex="2039"/>
  <outline>
    <contour>
      <point x="378" y="562"/>
      <point x="504" y="711"/>
      <point x="534" y="786" type="curve"/>
      <point x="454" y="863" type="line"/>
      <point x="78" y="461" type="line"/>
      <point x="454" y="61" type="line"/>
      <point x="533" y="135" type="line"/>
      <point x="490" y="222"/>
      <point x="392" y="344"/>
      <point x="296" y="461" type="curve"/>
    </contour>
  </outline>
</glyph>
<glyph name="notequal" format="1">
  <advance width="1024"/>
  <unicode hex="2260"/>
  <outline>
    <contour>
      <point x="282" y="182" type="line"/>
      <point x="398" y="137" type="line"/>
      <point x="708" y="915" type="line"/>
      <point x="591" y="959" type="line"/>
    </contour>
    <component base="equal"/>
  </outline>
</glyph>
<glyph name="lessequal" format="1">
  <advance width="1024"/>
  <unicode hex="2264"/>
  <outline>
    <contour>
      <point x="115" y="493" type="line"/>
      <point x="847" y="215" type="line"/>
      <point x="903" y="351" type="line"/>
      <point x="314" y="558" type="line"/>
      <point x="905" y="767" type="line"/>
      <point x="849" y="903" type="line"/>
      <point x="115" y="626" type="line"/>
    </contour>
    <contour>
      <point x="134" y="136" type="line"/>
      <point x="107" y="0" type="line"/>
      <point x="261" y="0"/>
      <point x="723" y="1"/>
      <point x="860" y="13" type="curve"/>
      <point x="889" y="136" type="line"/>
    </contour>
  </outline>
</glyph>
<glyph name="greaterequal" format="1">
  <advance width="1024"/>
  <unicode hex="2265"/>
  <outline>
    <contour>
      <point x="907" y="493" type="line"/>
      <point x="907" y="626" type="line"/>
      <point x="173" y="903" type="line"/>
      <point x="117" y="767" type="line"/>
      <point x="708" y="558" type="line"/>
      <point x="119" y="351" type="line"/>
      <point x="175" y="215" type="line"/>
    </contour>
    <contour>
      <point x="160" y="136" type="line"/>
      <point x="133" y="0" type="line"/>
      <point x="287" y="0"/>
      <point x="749" y="1"/>
      <point x="886" y="13" type="curve"/>
      <point x="915" y="136" type="line"/>
    </contour>
  </outline>
</glyph>
<glyph name="acute.case" format="1">
  <advance width="1024"/>
  <outline>
    <contour>
      <point x="302" y="1494" type="line"/>
      <point x="740" y="1635" type="line"/>
      <point x="713" y="1785" type="line"/>
      <point x="652" y="1785" type="line"/>
      <point x="284" y="1599" type="line"/>
    </contour>
    <contour>
      <point x="462" y="1384" type="move" name="_top"/>
    </contour>
  </outline>
</glyph>
<glyph name="caron.alt" format="1">
  <advance width="1024"/>
  <outline>
    <contour>
      <point x="452" y="963" type="line"/>
      <point x="552" y="1058"/>
      <point x="635" y="1209"/>
      <point x="635" y="1319" type="curve" smooth="yes"/>
      <point x="635" y="1345"/>
      <point x="631" y="1369"/>
      <point x="616" y="1400" type="curve"/>
      <point x="554" y="1399"/>
      <point x="486" y="1390"/>
      <point x="415" y="1378" type="curve"/>
      <point x="401" y="1278" type="line"/>
      <point x="481" y="1244" type="line"/>
      <point x="464" y="1163"/>
      <point x="431" y="1075"/>
      <point x="385" y="982" type="curve"/>
    </contour>
    <contour>
      <point x="328" y="1384" type="move" name="_topright"/>
    </contour>
  </outline>
</glyph>
<glyph name="caron.case" format="1">
  <advance width="1024"/>
  <outline>
    <contour>
      <point x="464" y="1515" type="line"/>
      <point x="560" y="1515" type="line"/>
      <point x="817" y="1730" type="line"/>
      <point x="755" y="1794" type="line"/>
      <point x="512" y="1665" type="line"/>
      <point x="269" y="1794" type="line"/>
      <point x="207" y="1730" type="line"/>
    </contour>
    <contour>
      <point x="512" y="1384" type="move" name="_top"/>
    </contour>
  </outline>
</glyph>
<glyph name="cedilla.case" format="1">
  <advance width="1024"/>
  <outline>
    <contour>
      <point x="560" y="6" type="line"/>
      <point x="476" y="6" type="line"/>
      <point x="418" y="-59"/>
      <point x="376" y="-118"/>
      <point x="348" y="-176" type="curve"/>
      <point x="469" y="-213"/>
      <point x="558" y="-252"/>
      <point x="558" y="-293" type="curve" smooth="yes"/>
      <point x="558" y="-320"/>
      <point x="524" y="-354"/>
      <point x="306" y="-447" type="curve"/>
      <point x="320" y="-500" type="line"/>
      <point x="494" y="-500"/>
      <point x="713" y="-442"/>
      <point x="713" y="-279" type="curve" smooth="yes"/>
      <point x="713" y="-182"/>
      <point x="609" y="-131"/>
      <point x="505" y="-114" type="curve"/>
    </contour>
    <contour>
      <point x="511" y="0" type="move" name="_bottom"/>
    </contour>
  </outline>
</glyph>
<glyph name="circumflex.case" format="1">
  <advance width="1024"/>
  <outline>
    <contour>
      <point x="269" y="1504" type="line"/>
      <point x="512" y="1634" type="line"/>
      <point x="755" y="1504" type="line"/>
      <point x="818" y="1570" type="line"/>
      <point x="561" y="1785" type="line"/>
      <point x="463" y="1785" type="line"/>
      <point x="207" y="1570" type="line"/>
    </contour>
    <contour>
      <point x="512" y="1384" type="move" name="_top"/>
    </contour>
  </outline>
</glyph>
<glyph name="dieresis.case" format="1">
  <advance width="1024"/>
  <outline>
    <contour>
      <point x="636" y="1514"/>
      <point x="747" y="1505"/>
      <point x="773" y="1521" type="curve"/>
      <point x="801" y="1544"/>
      <point x="812" y="1658"/>
      <point x="793" y="1682" type="curve" smooth="yes"/>
      <point x="772" y="1710"/>
      <point x="657" y="1723"/>
      <point x="634" y="1703" type="curve"/>
      <point x="603" y="1683"/>
      <point x="596" y="1567"/>
      <point x="613" y="1542" type="curve"/>
    </contour>
    <contour>
      <point x="252" y="1514"/>
      <point x="365" y="1504"/>
      <point x="390" y="1521" type="curve"/>
      <point x="419" y="1543"/>
      <point x="428" y="1657"/>
      <point x="411" y="1682" type="curve"/>
      <point x="388" y="1710"/>
      <point x="275" y="1721"/>
      <point x="251" y="1703" type="curve" smooth="yes"/>
      <point x="222" y="1682"/>
      <point x="212" y="1566"/>
      <point x="231" y="1542" type="curve" smooth="yes"/>
    </contour>
    <contour>
      <point x="512" y="1384" type="move" name="_top"/>
    </contour>
  </outline>
</glyph>
<glyph name="dotaccent.case" format="1">
  <advance width="1024"/>
  <outline>
    <contour>
      <point x="443" y="1514"/>
      <point x="556" y="1504"/>
      <point x="581" y="1521" type="curve"/>
      <point x="610" y="1543"/>
      <point x="620" y="1658"/>
      <point x="601" y="1682" type="curve" smooth="yes"/>
      <point x="580" y="1710"/>
      <point x="466" y="1721"/>
      <point x="442" y="1703" type="curve" smooth="yes"/>
      <point x="413" y="1681"/>
      <point x="402" y="1565"/>
      <point x="422" y="1542" type="curve"/>
    </contour>
    <contour>
      <point x="512" y="1384" type="move" name="_top"/>
    </contour>
  </outline>
</glyph>
<glyph name="grave.case" format="1">
  <advance width="1024"/>
  <outline>
    <contour>
      <point x="720" y="1495" type="line"/>
      <point x="739" y="1600" type="line"/>
      <point x="371" y="1785" type="line"/>
      <point x="310" y="1785" type="line"/>
      <point x="283" y="1635" type="line"/>
    </contour>
    <contour>
      <point x="512" y="1384" type="move" name="_top"/>
    </contour>
  </outline>
</glyph>
<glyph name="macron.case" format="1">
  <advance width="1024"/>
  <outline>
    <contour>
      <point x="238" y="1540" type="line"/>
      <point x="358" y="1540"/>
      <point x="603" y="1543"/>
      <point x="758" y="1552" type="curve"/>
      <point x="781" y="1671" type="line"/>
      <point x="266" y="1671" type="line"/>
    </contour>
    <contour>
      <point x="512" y="1384" type="move" name="_top"/>
    </contour>
  </outline>
</glyph>
<glyph name="nadeva.post2" format="1">
  <advance width="0"/>
  <outline>
    <contour>
      <point x="-278" y="368" type="line"/>
      <point x="-295" y="480" type="line"/>
      <point x="-437" y="381"/>
      <point x="-581" y="282"/>
      <point x="-677" y="215" type="curve" smooth="yes"/>
      <point x="-841" y="100"/>
      <point x="-881" y="69"/>
      <point x="-881" y="35" type="curve" smooth="yes"/>
      <point x="-881" y="25"/>
      <point x="-877" y="15"/>
      <point x="-872" y="9" type="curve" smooth="yes"/>
      <point x="-827" y="-45"/>
      <point x="-749" y="-76"/>
      <point x="-657" y="-76" type="curve" smooth="yes"/>
      <point x="-625" y="-76"/>
      <point x="-587" y="-63"/>
      <point x="-587" y="-28" type="curve" smooth="yes"/>
      <point x="-587" y="13"/>
      <point x="-615" y="75"/>
      <point x="-633" y="101" type="curve"/>
    </contour>
  </outline>
</glyph>
<glyph name="radeva_uuvowelsigndeva" format="1">
  <advance width="1102"/>
  <note>
    dRMatraUu
  </note>
  <outline>
    <contour>
      <point x="683" y="1187" type="line"/>
      <point x="739" y="1053" type="line"/>
      <point x="1152" y="1053" type="line"/>
      <point x="1103" y="1187" type="line"/>
    </contour>
    <contour>
      <point x="888" y="670"/>
      <point x="793" y="775"/>
      <point x="637" y="775" type="curve" smooth="yes"/>
      <point x="506" y="775"/>
      <point x="380" y="705"/>
      <point x="380" y="578" type="curve" smooth="yes"/>
      <point x="380" y="364"/>
      <point x="562" y="291"/>
      <point x="643" y="291" type="curve" smooth="yes"/>
      <point x="705" y="290"/>
      <point x="761" y="303"/>
      <point x="823" y="355" type="curve"/>
      <point x="755" y="484" type="line"/>
      <point x="687" y="443"/>
      <point x="651" y="432"/>
      <point x="586" y="432" type="curve" smooth="yes"/>
      <point x="544" y="432"/>
      <point x="517" y="442"/>
      <point x="511" y="450" type="curve" smooth="yes"/>
      <point x="502" y="462"/>
      <point x="498" y="488"/>
      <point x="498" y="508" type="curve" smooth="yes"/>
      <point x="498" y="592"/>
      <point x="573" y="626"/>
      <point x="652" y="626" type="curve" smooth="yes"/>
      <point x="777" y="626"/>
      <point x="856" y="536"/>
      <point x="1022" y="277" type="curve"/>
      <point x="1080" y="320" type="line"/>
      <point x="1068" y="353"/>
      <point x="1026" y="445"/>
      <point x="992" y="501" type="curve" smooth="yes"/>
    </contour>
    <component base="radeva"/>
    <contour>
      <point x="509" y="1187" type="move" name="top"/>
    </contour>
  </outline>
</glyph>
<glyph name="uni0915094D0915" format="1">
  <advance width="1537"/>
  <note>
    dKKa
  </note>
  <outline>
    <contour>
      <point x="1054" y="939"/>
      <point x="959" y="911"/>
      <point x="852" y="804" type="curve"/>
      <point x="852" y="1053" type="line"/>
      <point x="1589" y="1053" type="line"/>
      <point x="1538" y="1187" type="line"/>
      <point x="-52" y="1187" type="line"/>
      <point x="2" y="1053" type="line"/>
      <point x="701" y="1053" type="line"/>
      <point x="701" y="812" type="line"/>
      <point x="609" y="886"/>
      <point x="506" y="938"/>
      <point x="398" y="938" type="curve" smooth="yes"/>
      <point x="201" y="938"/>
      <point x="73" y="834"/>
      <point x="73" y="661" type="curve" smooth="yes"/>
      <point x="73" y="574"/>
      <point x="115" y="495"/>
      <point x="177" y="436" type="curve"/>
      <point x="111" y="389"/>
      <point x="73" y="315"/>
      <point x="73" y="221" type="curve" smooth="yes"/>
      <point x="73" y="31"/>
      <point x="274" y="-116"/>
      <point x="436" y="-116" type="curve" smooth="yes"/>
      <point x="512" y="-116"/>
      <point x="596" y="-116"/>
      <point x="701" y="-52" type="curve"/>
      <point x="701" y="-158" type="line"/>
      <point x="852" y="-222" type="line"/>
      <point x="852" y="104" type="line"/>
      <point x="978" y="298"/>
      <point x="1116" y="372"/>
      <point x="1209" y="372" type="curve" smooth="yes"/>
      <point x="1286" y="372"/>
      <point x="1329" y="331"/>
      <point x="1335" y="313" type="curve"/>
      <point x="1337" y="308"/>
      <point x="1338" y="299"/>
      <point x="1338" y="292" type="curve" smooth="yes"/>
      <point x="1338" y="171"/>
      <point x="1243" y="79"/>
      <point x="1056" y="-49" type="curve"/>
      <point x="1207" y="-175" type="line"/>
      <point x="1351" y="-66"/>
      <point x="1458" y="29"/>
      <point x="1458" y="179" type="curve" smooth="yes"/>
      <point x="1458" y="252"/>
      <point x="1414" y="338"/>
      <point x="1348" y="401" type="curve"/>
      <point x="1412" y="465"/>
      <point x="1458" y="538"/>
      <point x="1458" y="626" type="curve" smooth="yes"/>
      <point x="1458" y="762"/>
      <point x="1307" y="939"/>
      <point x="1145" y="939" type="curve" smooth="yes"/>
    </contour>
    <contour>
      <point x="1054" y="492"/>
      <point x="959" y="464"/>
      <point x="852" y="357" type="curve"/>
      <point x="852" y="551" type="line"/>
      <point x="978" y="745"/>
      <point x="1116" y="819"/>
      <point x="1209" y="819" type="curve" smooth="yes"/>
      <point x="1286" y="819"/>
      <point x="1329" y="778"/>
      <point x="1335" y="760" type="curve"/>
      <point x="1337" y="755"/>
      <point x="1338" y="746"/>
      <point x="1338" y="739" type="curve" smooth="yes"/>
      <point x="1338" y="648"/>
      <point x="1279" y="570"/>
      <point x="1172" y="490" type="curve"/>
      <point x="1163" y="491"/>
      <point x="1154" y="492"/>
      <point x="1145" y="492" type="curve" smooth="yes"/>
    </contour>
    <contour>
      <point x="240" y="752"/>
      <point x="335" y="796"/>
      <point x="456" y="796" type="curve" smooth="yes"/>
      <point x="539" y="796"/>
      <point x="617" y="771"/>
      <point x="701" y="717" type="curve"/>
      <point x="701" y="617" type="line"/>
      <point x="625" y="509"/>
      <point x="479" y="446"/>
      <point x="367" y="446" type="curve" smooth="yes"/>
      <point x="347" y="446"/>
      <point x="304" y="447"/>
      <point x="296" y="457" type="curve"/>
      <point x="260" y="498"/>
      <point x="234" y="566"/>
      <point x="236" y="636" type="curve" smooth="yes"/>
    </contour>
    <contour>
      <point x="347" y="6"/>
      <point x="304" y="7"/>
      <point x="296" y="17" type="curve"/>
      <point x="260" y="58"/>
      <point x="234" y="126"/>
      <point x="236" y="196" type="curve" smooth="yes"/>
      <point x="239" y="272"/>
      <point x="280" y="317"/>
      <point x="343" y="339" type="curve"/>
      <point x="374" y="329"/>
      <point x="406" y="324"/>
      <point x="436" y="324" type="curve" smooth="yes"/>
      <point x="514" y="324"/>
      <point x="594" y="321"/>
      <point x="701" y="388" type="curve"/>
      <point x="701" y="177" type="line"/>
      <point x="625" y="69"/>
      <point x="479" y="6"/>
      <point x="367" y="6" type="curve" smooth="yes"/>
    </contour>
    <contour>
      <point x="777" y="1187" type="move" name="top"/>
    </contour>
    <contour>
      <point x="777" y="-120" type="move" name="bottom"/>
    </contour>
  </outline>
</glyph>
<glyph name="uni0915094D0924094D0924" format="1">
  <advance width="1705"/>
  <note>
    dKTTa
  </note>
  <outline>
    <contour>
      <point x="1253" y="826"/>
      <point x="1125" y="797"/>
      <point x="1007" y="702" type="curve"/>
      <point x="1007" y="1053" type="line"/>
      <point x="1757" y="1053" type="line"/>
      <point x="1706" y="1187" type="line"/>
      <point x="-52" y="1187" type="line"/>
      <point x="4" y="1053" type="line"/>
      <point x="853" y="1053" type="line"/>
      <point x="853" y="810" type="line"/>
      <point x="3" y="810" type="line"/>
      <point x="66" y="668" type="line"/>
      <point x="229" y="668" type="line"/>
      <point x="195" y="633"/>
      <point x="177" y="587"/>
      <point x="177" y="528" type="curve" smooth="yes"/>
      <point x="177" y="335"/>
      <point x="300" y="147"/>
      <point x="551" y="-90" type="curve"/>
      <point x="621" y="-17" type="line"/>
      <point x="433" y="203"/>
      <point x="362" y="357"/>
      <point x="362" y="476" type="curve" smooth="yes"/>
      <point x="362" y="582"/>
      <point x="411" y="667"/>
      <point x="551" y="667" type="curve" smooth="yes"/>
      <point x="853" y="667" type="line"/>
      <point x="853" y="-39" type="line"/>
      <point x="1007" y="-102" type="line"/>
      <point x="1007" y="442" type="line"/>
      <point x="1143" y="622"/>
      <point x="1316" y="706"/>
      <point x="1407" y="706" type="curve" smooth="yes"/>
      <point x="1484" y="706"/>
      <point x="1527" y="665"/>
      <point x="1533" y="647" type="curve"/>
      <point x="1535" y="642"/>
      <point x="1536" y="633"/>
      <point x="1536" y="626" type="curve" smooth="yes"/>
      <point x="1536" y="489"/>
      <point x="1461" y="342"/>
      <point x="1280" y="221" type="curve"/>
      <point x="1412" y="99" type="line"/>
      <point x="1565" y="207"/>
      <point x="1656" y="356"/>
      <point x="1656" y="500" type="curve" smooth="yes"/>
      <point x="1656" y="656"/>
      <point x="1505" y="826"/>
      <point x="1343" y="826" type="curve" smooth="yes"/>
    </contour>
    <contour>
      <point x="930" y="1187" type="move" name="top"/>
    </contour>
    <contour>
      <point x="930" y="0" type="move" name="bottom"/>
    </contour>
  </outline>
</glyph>
<glyph name="uni0915094D0932.loclMAR" format="1">
  <advance width="1494"/>
  <note>
    dKLa.MAR
  </note>
  <outline>
    <contour>
      <point x="1014" y="888"/>
      <point x="926" y="865"/>
      <point x="836" y="772" type="curve"/>
      <point x="836" y="1053" type="line"/>
      <point x="1545" y="1053" type="line"/>
      <point x="1495" y="1187" type="line"/>
      <point x="-56" y="1187" type="line"/>
      <point x="-1" y="1053" type="line"/>
      <point x="685" y="1053" type="line"/>
      <point x="685" y="787" type="line"/>
      <point x="596" y="858"/>
      <point x="498" y="908"/>
      <point x="392" y="908" type="curve" smooth="yes"/>
      <point x="201" y="908"/>
      <point x="77" y="806"/>
      <point x="77" y="639" type="curve" smooth="yes"/>
      <point x="77" y="455"/>
      <point x="272" y="282"/>
      <point x="430" y="282" type="curve" smooth="yes"/>
      <point x="503" y="282"/>
      <point x="584" y="282"/>
      <point x="685" y="343" type="curve"/>
      <point x="685" y="124" type="line"/>
      <point x="609" y="169"/>
      <point x="544" y="191"/>
      <point x="481" y="191" type="curve" smooth="yes"/>
      <point x="348" y="191"/>
      <point x="205" y="116"/>
      <point x="205" y="-68" type="curve" smooth="yes"/>
      <point x="205" y="-256"/>
      <point x="354" y="-402"/>
      <point x="601" y="-518" type="curve"/>
      <point x="638" y="-440" type="line"/>
      <point x="449" y="-330"/>
      <point x="368" y="-221"/>
      <point x="368" y="-88" type="curve" smooth="yes"/>
      <point x="368" y="30"/>
      <point x="467" y="73"/>
      <point x="545" y="73" type="curve" smooth="yes"/>
      <point x="585" y="73"/>
      <point x="628" y="65"/>
      <point x="683" y="41" type="curve"/>
      <point x="644" y="-12"/>
      <point x="620" y="-72"/>
      <point x="606" y="-162" type="curve"/>
      <point x="745" y="-211" type="line"/>
      <point x="826" y="60"/>
      <point x="951" y="72"/>
      <point x="1014" y="72" type="curve" smooth="yes"/>
      <point x="1049" y="72"/>
      <point x="1090" y="60"/>
      <point x="1101" y="51" type="curve" smooth="yes"/>
      <point x="1117" y="37"/>
      <point x="1122" y="-17"/>
      <point x="1122" y="-42" type="curve" smooth="yes"/>
      <point x="1122" y="-198"/>
      <point x="1010" y="-290"/>
      <point x="827" y="-414" type="curve"/>
      <point x="973" y="-529" type="line"/>
      <point x="1144" y="-402"/>
      <point x="1248" y="-288"/>
      <point x="1248" y="-120" type="curve" smooth="yes"/>
      <point x="1248" y="6"/>
      <point x="1114" y="184"/>
      <point x="950" y="184" type="curve" smooth="yes"/>
      <point x="909" y="184"/>
      <point x="871" y="176"/>
      <point x="836" y="163" type="curve"/>
      <point x="836" y="540" type="line"/>
      <point x="946" y="712"/>
      <point x="1074" y="772"/>
      <point x="1161" y="772" type="curve" smooth="yes"/>
      <point x="1235" y="772"/>
      <point x="1277" y="731"/>
      <point x="1283" y="715" type="curve" smooth="yes"/>
      <point x="1285" y="710"/>
      <point x="1286" y="701"/>
      <point x="1286" y="694" type="curve" smooth="yes"/>
      <point x="1286" y="547"/>
      <point x="1217" y="459"/>
      <point x="1017" y="335" type="curve"/>
      <point x="1157" y="214" type="line"/>
      <point x="1306" y="309"/>
      <point x="1402" y="401"/>
      <point x="1402" y="565" type="curve" smooth="yes"/>
      <point x="1402" y="717"/>
      <point x="1255" y="888"/>
      <point x="1099" y="888" type="curve" smooth="yes"/>
    </contour>
    <contour>
      <point x="343" y="400"/>
      <point x="302" y="401"/>
      <point x="294" y="411" type="curve"/>
      <point x="258" y="452"/>
      <point x="234" y="536"/>
      <point x="236" y="614" type="curve" smooth="yes"/>
      <point x="239" y="728"/>
      <point x="331" y="770"/>
      <point x="448" y="770" type="curve" smooth="yes"/>
      <point x="529" y="770"/>
      <point x="604" y="746"/>
      <point x="685" y="693" type="curve"/>
      <point x="685" y="564" type="line"/>
      <point x="610" y="460"/>
      <point x="470" y="400"/>
      <point x="363" y="400" type="curve" smooth="yes"/>
    </contour>
    <contour>
      <point x="761" y="1187" type="move" name="top"/>
    </contour>
    <contour>
      <point x="926" y="-390" type="move" name="bottom"/>
    </contour>
  </outline>
</glyph>
<glyph name="uni0915094D0937094D092F" format="1">
  <advance width="2051"/>
  <note>
    dKSsYa
  </note>
  <outline>
    <contour>
      <point x="2052" y="1187" type="line"/>
      <point x="790" y="1187" type="line"/>
      <point x="845" y="1053" type="line"/>
      <point x="1147" y="1053" type="line"/>
      <point x="1187" y="1033"/>
      <point x="1259" y="966"/>
      <point x="1259" y="879" type="curve" smooth="yes"/>
      <point x="1259" y="809"/>
      <point x="1206" y="749"/>
      <point x="1131" y="703" type="curve" smooth="yes"/>
      <point x="1036" y="646"/>
      <point x="912" y="612"/>
      <point x="799" y="612" type="curve" smooth="yes"/>
      <point x="730" y="612"/>
      <point x="663" y="624"/>
      <point x="602" y="642" type="curve"/>
      <point x="696" y="716"/>
      <point x="769" y="801"/>
      <point x="769" y="927" type="curve" smooth="yes"/>
      <point x="769" y="1087"/>
      <point x="555" y="1205"/>
      <point x="419" y="1205" type="curve" smooth="yes"/>
      <point x="269" y="1205"/>
      <point x="169" y="1102"/>
      <point x="169" y="958" type="curve" smooth="yes"/>
      <point x="169" y="833"/>
      <point x="231" y="731"/>
      <point x="324" y="654" type="curve"/>
      <point x="195" y="572"/>
      <point x="76" y="496"/>
      <point x="76" y="304" type="curve" smooth="yes"/>
      <point x="76" y="130"/>
      <point x="311" y="-71"/>
      <point x="534" y="-71" type="curve" smooth="yes"/>
      <point x="591" y="-71"/>
      <point x="647" y="-60"/>
      <point x="699" y="-43" type="curve"/>
      <point x="765" y="-149"/>
      <point x="825" y="-219"/>
      <point x="917" y="-302" type="curve"/>
      <point x="1042" y="-179" type="line"/>
      <point x="910" y="-108"/>
      <point x="870" y="-88"/>
      <point x="795" y="1" type="curve"/>
      <point x="804" y="6"/>
      <point x="813" y="11"/>
      <point x="821" y="17" type="curve" smooth="yes"/>
      <point x="887" y="60"/>
      <point x="929" y="112"/>
      <point x="929" y="152" type="curve" smooth="yes"/>
      <point x="929" y="178"/>
      <point x="866" y="232"/>
      <point x="805" y="274" type="curve" smooth="yes"/>
      <point x="757" y="307"/>
      <point x="688" y="331"/>
      <point x="656" y="331" type="curve" smooth="yes"/>
      <point x="604" y="331"/>
      <point x="574" y="297"/>
      <point x="574" y="242" type="curve" smooth="yes"/>
      <point x="574" y="196"/>
      <point x="585" y="149"/>
      <point x="599" y="106" type="curve"/>
      <point x="563" y="85"/>
      <point x="507" y="72"/>
      <point x="456" y="72" type="curve" smooth="yes"/>
      <point x="412" y="72"/>
      <point x="315" y="82"/>
      <point x="295" y="104" type="curve" smooth="yes"/>
      <point x="269" y="132"/>
      <point x="246" y="228"/>
      <point x="246" y="274" type="curve" smooth="yes"/>
      <point x="246" y="408"/>
      <point x="329" y="456"/>
      <point x="480" y="557" type="curve"/>
      <point x="612" y="495"/>
      <point x="734" y="464"/>
      <point x="856" y="463" type="curve" smooth="yes"/>
      <point x="922" y="462"/>
      <point x="971" y="471"/>
      <point x="1033" y="488" type="curve"/>
      <point x="1133" y="299"/>
      <point x="1289" y="217"/>
      <point x="1445" y="217" type="curve" smooth="yes"/>
      <point x="1542" y="217"/>
      <point x="1640" y="242"/>
      <point x="1736" y="325" type="curve"/>
      <point x="1736" y="-39" type="line"/>
      <point x="1890" y="-102" type="line"/>
      <point x="1890" y="1053" type="line"/>
      <point x="2103" y="1053" type="line"/>
    </contour>
    <contour>
      <point x="380" y="785"/>
      <point x="344" y="859"/>
      <point x="344" y="956" type="curve" smooth="yes"/>
      <point x="344" y="1040"/>
      <point x="402" y="1098"/>
      <point x="480" y="1098" type="curve" smooth="yes"/>
      <point x="519" y="1098"/>
      <point x="560" y="1089"/>
      <point x="587" y="1067" type="curve" smooth="yes"/>
      <point x="602" y="1055"/>
      <point x="620" y="1014"/>
      <point x="620" y="966" type="curve" smooth="yes"/>
      <point x="620" y="883"/>
      <point x="580" y="829"/>
      <point x="439" y="731" type="curve"/>
    </contour>
    <contour>
      <point x="1307" y="373"/>
      <point x="1191" y="410"/>
      <point x="1129" y="520" type="curve"/>
      <point x="1331" y="602"/>
      <point x="1426" y="703"/>
      <point x="1426" y="817" type="curve" smooth="yes"/>
      <point x="1426" y="891"/>
      <point x="1384" y="970"/>
      <point x="1300" y="1053" type="curve"/>
      <point x="1736" y="1053" type="line"/>
      <point x="1736" y="607" type="line"/>
      <point x="1696" y="474"/>
      <point x="1543" y="373"/>
      <point x="1400" y="373" type="curve" smooth="yes"/>
    </contour>
    <contour>
      <point x="1813" y="1187" type="move" name="top"/>
    </contour>
  </outline>
</glyph>
<glyph name="uni0916094D0930" format="1">
  <advance width="1572"/>
  <note>
    dKhRa
  </note>
  <outline>
    <contour>
      <point x="1573" y="1187" type="line"/>
      <point x="-54" y="1187" type="line"/>
      <point x="0" y="1053" type="line"/>
      <point x="342" y="1053" type="line"/>
      <point x="353" y="983"/>
      <point x="360" y="909"/>
      <point x="360" y="842" type="curve" smooth="yes"/>
      <point x="360" y="755"/>
      <point x="347" y="681"/>
      <point x="327" y="641" type="curve"/>
      <point x="187" y="706" type="line"/>
      <point x="83" y="662" type="line"/>
      <point x="85" y="635"/>
      <point x="90" y="610"/>
      <point x="93" y="594" type="curve" smooth="yes"/>
      <point x="124" y="438"/>
      <point x="192" y="252"/>
      <point x="298" y="128" type="curve" smooth="yes"/>
      <point x="382" y="30"/>
      <point x="492" y="-61"/>
      <point x="613" y="-66" type="curve" smooth="yes"/>
      <point x="678" y="-69"/>
      <point x="722" y="-63"/>
      <point x="798" y="-36" type="curve"/>
      <point x="747" y="117" type="line"/>
      <point x="672" y="98"/>
      <point x="640" y="92"/>
      <point x="585" y="92" type="curve" smooth="yes"/>
      <point x="490" y="92"/>
      <point x="343" y="154"/>
      <point x="245" y="427" type="curve"/>
      <point x="462" y="487"/>
      <point x="532" y="613"/>
      <point x="532" y="771" type="curve" smooth="yes"/>
      <point x="532" y="848"/>
      <point x="512" y="969"/>
      <point x="483" y="1053" type="curve"/>
      <point x="1236" y="1053" type="line"/>
      <point x="1236" y="727" type="line"/>
      <point x="1136" y="790"/>
      <point x="1017" y="826"/>
      <point x="928" y="826" type="curve" smooth="yes"/>
      <point x="713" y="826"/>
      <point x="610" y="711"/>
      <point x="610" y="559" type="curve" smooth="yes"/>
      <point x="610" y="362"/>
      <point x="795" y="211"/>
      <point x="1008" y="211" type="curve" smooth="yes"/>
      <point x="1020" y="211"/>
      <point x="1034" y="212"/>
      <point x="1049" y="213" type="curve"/>
      <point x="887" y="29" type="line"/>
      <point x="1035" y="-59" type="line"/>
      <point x="1236" y="272" type="line"/>
      <point x="1236" y="-39" type="line"/>
      <point x="1390" y="-102" type="line"/>
      <point x="1390" y="1053" type="line"/>
      <point x="1621" y="1053" type="line"/>
    </contour>
    <contour>
      <point x="864" y="312"/>
      <point x="850" y="316"/>
      <point x="844" y="321" type="curve"/>
      <point x="804" y="360"/>
      <point x="780" y="425"/>
      <point x="780" y="513" type="curve" smooth="yes"/>
      <point x="780" y="680"/>
      <point x="909" y="698"/>
      <point x="990" y="698" type="curve" smooth="yes"/>
      <point x="1075" y="698"/>
      <point x="1142" y="680"/>
      <point x="1236" y="640" type="curve"/>
      <point x="1236" y="554" type="line"/>
      <point x="1190" y="425"/>
      <point x="1036" y="312"/>
      <point x="884" y="312" type="curve" smooth="yes"/>
    </contour>
    <contour>
      <point x="1313" y="1187" type="move" name="top"/>
    </contour>
    <contour>
      <point x="1313" y="0" type="move" name="bottom"/>
    </contour>
  </outline>
</glyph>
<glyph name="uni0917094D0932.loclMAR" format="1">
  <advance width="1236"/>
  <note>
    dGLa.MAR
  </note>
  <outline>
    <contour>
      <point x="1001" y="1053" type="line"/>
      <point x="1290" y="1053" type="line"/>
      <point x="1238" y="1187" type="line"/>
      <point x="-54" y="1187" type="line"/>
      <point x="0" y="1053" type="line"/>
      <point x="314" y="1053" type="line"/>
      <point x="331" y="958"/>
      <point x="335" y="880"/>
      <point x="335" y="779" type="curve" smooth="yes"/>
      <point x="335" y="717"/>
      <point x="328" y="658"/>
      <point x="326" y="644" type="curve"/>
      <point x="316" y="645"/>
      <point x="298" y="646"/>
      <point x="286" y="646" type="curve" smooth="yes"/>
      <point x="247" y="646"/>
      <point x="180" y="640"/>
      <point x="146" y="623" type="curve" smooth="yes"/>
      <point x="130" y="615"/>
      <point x="122" y="607"/>
      <point x="122" y="595" type="curve" smooth="yes"/>
      <point x="122" y="535"/>
      <point x="304" y="304"/>
      <point x="385" y="304" type="curve" smooth="yes"/>
      <point x="395" y="304"/>
      <point x="404" y="308"/>
      <point x="413" y="319" type="curve"/>
      <point x="475" y="389"/>
      <point x="492" y="570"/>
      <point x="492" y="661" type="curve" smooth="yes"/>
      <point x="492" y="755"/>
      <point x="481" y="917"/>
      <point x="458" y="1053" type="curve"/>
      <point x="847" y="1053" type="line"/>
      <point x="847" y="183" type="line"/>
      <point x="770" y="178"/>
      <point x="705" y="146"/>
      <point x="651" y="94" type="curve"/>
      <point x="556" y="159"/>
      <point x="476" y="191"/>
      <point x="401" y="191" type="curve" smooth="yes"/>
      <point x="268" y="191"/>
      <point x="125" y="116"/>
      <point x="125" y="-68" type="curve" smooth="yes"/>
      <point x="125" y="-256"/>
      <point x="274" y="-402"/>
      <point x="521" y="-518" type="curve"/>
      <point x="558" y="-440" type="line"/>
      <point x="369" y="-330"/>
      <point x="288" y="-221"/>
      <point x="288" y="-88" type="curve" smooth="yes"/>
      <point x="288" y="30"/>
      <point x="387" y="73"/>
      <point x="465" y="73" type="curve" smooth="yes"/>
      <point x="505" y="73"/>
      <point x="548" y="65"/>
      <point x="603" y="41" type="curve"/>
      <point x="564" y="-12"/>
      <point x="540" y="-72"/>
      <point x="526" y="-162" type="curve"/>
      <point x="665" y="-211" type="line"/>
      <point x="746" y="60"/>
      <point x="871" y="72"/>
      <point x="934" y="72" type="curve" smooth="yes"/>
      <point x="969" y="72"/>
      <point x="1010" y="60"/>
      <point x="1021" y="51" type="curve" smooth="yes"/>
      <point x="1037" y="37"/>
      <point x="1042" y="-17"/>
      <point x="1042" y="-42" type="curve" smooth="yes"/>
      <point x="1042" y="-198"/>
      <point x="930" y="-290"/>
      <point x="747" y="-414" type="curve"/>
      <point x="893" y="-529" type="line"/>
      <point x="1064" y="-402"/>
      <point x="1168" y="-288"/>
      <point x="1168" y="-120" type="curve" smooth="yes"/>
      <point x="1168" y="-30"/>
      <point x="1100" y="86"/>
      <point x="1001" y="146" type="curve"/>
    </contour>
    <contour>
      <point x="924" y="1187" type="move" name="top"/>
    </contour>
    <contour>
      <point x="836" y="-400" type="move" name="bottom"/>
    </contour>
  </outline>
</glyph>
<glyph name="uni0918094D" format="1">
  <advance width="766"/>
  <note>
    dGh.half
  </note>
  <outline>
    <contour>
      <point x="939" y="565" type="line"/>
      <point x="790" y="329"/>
      <point x="624" y="258"/>
      <point x="438" y="258" type="curve" smooth="yes"/>
      <point x="399" y="258"/>
      <point x="351" y="270"/>
      <point x="341" y="280" type="curve" smooth="yes"/>
      <point x="330" y="291"/>
      <point x="299" y="324"/>
      <point x="296" y="393" type="curve"/>
      <point x="296" y="528"/>
      <point x="425" y="618"/>
      <point x="639" y="645" type="curve"/>
      <point x="562" y="785" type="line"/>
      <point x="515" y="785"/>
      <point x="403" y="772"/>
      <point x="308" y="709" type="curve"/>
      <point x="262" y="757"/>
      <point x="246" y="813"/>
      <point x="246" y="870" type="curve" smooth="yes"/>
      <point x="246" y="963"/>
      <point x="313" y="1053"/>
      <point x="426" y="1053" type="curve" smooth="yes"/>
      <point x="818" y="1053" type="line"/>
      <point x="770" y="1187" type="line"/>
      <point x="-60" y="1187" type="line"/>
      <point x="-1" y="1053" type="line"/>
      <point x="134" y="1053" type="line"/>
      <point x="101" y="1013"/>
      <point x="82" y="962"/>
      <point x="82" y="903" type="curve" smooth="yes"/>
      <point x="82" y="788"/>
      <point x="157" y="712"/>
      <point x="249" y="661" type="curve"/>
      <point x="239" y="651"/>
      <point x="230" y="640"/>
      <point x="221" y="628" type="curve" smooth="yes"/>
      <point x="192" y="589"/>
      <point x="168" y="539"/>
      <point x="168" y="493" type="curve" smooth="yes"/>
      <point x="168" y="259"/>
      <point x="410" y="129"/>
      <point x="577" y="129" type="curve" smooth="yes"/>
      <point x="701" y="129"/>
      <point x="868" y="173"/>
      <point x="1021" y="389" type="curve"/>
    </contour>
  </outline>
</glyph>
<glyph name="uni0918094D0930094D" format="1">
  <advance width="766"/>
  <note>
    dGhR.half
  </note>
  <outline>
    <contour>
      <point x="833" y="340" type="line"/>
      <point x="309" y="-32" type="line"/>
      <point x="429" y="-177" type="line"/>
      <point x="905" y="258" type="line"/>
    </contour>
    <component base="uni0918094D"/>
  </outline>
</glyph>
<glyph name="uni0918094D0932.loclMAR" format="1">
  <advance width="1162"/>
  <note>
    dGhLa.MAR
  </note>
  <outline>
    <contour>
      <point x="940" y="1053" type="line"/>
      <point x="1214" y="1053" type="line"/>
      <point x="1165" y="1187" type="line"/>
      <point x="-58" y="1187" type="line"/>
      <point x="-2" y="1053" type="line"/>
      <point x="86" y="1053" type="line"/>
      <point x="69" y="1026"/>
      <point x="60" y="993"/>
      <point x="60" y="953" type="curve" smooth="yes"/>
      <point x="60" y="874"/>
      <point x="133" y="811"/>
      <point x="222" y="763" type="curve"/>
      <point x="207" y="750"/>
      <point x="193" y="736"/>
      <point x="180" y="720" type="curve" smooth="yes"/>
      <point x="149" y="682"/>
      <point x="130" y="629"/>
      <point x="130" y="583" type="curve" smooth="yes"/>
      <point x="130" y="391"/>
      <point x="344" y="268"/>
      <point x="502" y="268" type="curve" smooth="yes"/>
      <point x="587" y="268"/>
      <point x="677" y="274"/>
      <point x="786" y="351" type="curve"/>
      <point x="786" y="192" type="line"/>
      <point x="714" y="185"/>
      <point x="653" y="153"/>
      <point x="601" y="104" type="curve"/>
      <point x="506" y="169"/>
      <point x="426" y="201"/>
      <point x="351" y="201" type="curve" smooth="yes"/>
      <point x="218" y="201"/>
      <point x="75" y="126"/>
      <point x="75" y="-58" type="curve" smooth="yes"/>
      <point x="75" y="-246"/>
      <point x="224" y="-392"/>
      <point x="471" y="-508" type="curve"/>
      <point x="508" y="-430" type="line"/>
      <point x="319" y="-320"/>
      <point x="238" y="-211"/>
      <point x="238" y="-78" type="curve" smooth="yes"/>
      <point x="238" y="40"/>
      <point x="337" y="83"/>
      <point x="415" y="83" type="curve" smooth="yes"/>
      <point x="455" y="83"/>
      <point x="498" y="75"/>
      <point x="553" y="51" type="curve"/>
      <point x="514" y="-2"/>
      <point x="490" y="-62"/>
      <point x="476" y="-152" type="curve"/>
      <point x="615" y="-201" type="line"/>
      <point x="696" y="70"/>
      <point x="821" y="82"/>
      <point x="884" y="82" type="curve" smooth="yes"/>
      <point x="919" y="82"/>
      <point x="960" y="70"/>
      <point x="971" y="61" type="curve" smooth="yes"/>
      <point x="987" y="47"/>
      <point x="992" y="-7"/>
      <point x="992" y="-32" type="curve" smooth="yes"/>
      <point x="992" y="-188"/>
      <point x="880" y="-280"/>
      <point x="697" y="-404" type="curve"/>
      <point x="843" y="-519" type="line"/>
      <point x="1014" y="-392"/>
      <point x="1118" y="-278"/>
      <point x="1118" y="-110" type="curve" smooth="yes"/>
      <point x="1118" y="-17"/>
      <point x="1045" y="105"/>
      <point x="940" y="162" type="curve"/>
    </contour>
    <contour>
      <point x="361" y="400"/>
      <point x="307" y="411"/>
      <point x="293" y="423" type="curve" smooth="yes"/>
      <point x="281" y="433"/>
      <point x="262" y="474"/>
      <point x="262" y="523" type="curve" smooth="yes"/>
      <point x="262" y="621"/>
      <point x="384" y="708"/>
      <point x="597" y="735" type="curve"/>
      <point x="530" y="875" type="line"/>
      <point x="483" y="875"/>
      <point x="378" y="862"/>
      <point x="283" y="807" type="curve"/>
      <point x="242" y="843"/>
      <point x="228" y="881"/>
      <point x="228" y="923" type="curve" smooth="yes"/>
      <point x="228" y="1006"/>
      <point x="295" y="1053"/>
      <point x="408" y="1053" type="curve" smooth="yes"/>
      <point x="786" y="1053" type="line"/>
      <point x="786" y="635" type="line"/>
      <point x="692" y="469"/>
      <point x="552" y="400"/>
      <point x="400" y="400" type="curve" smooth="yes"/>
    </contour>
    <contour>
      <point x="863" y="1187" type="move" name="top"/>
    </contour>
    <contour>
      <point x="806" y="-390" type="move" name="bottom"/>
    </contour>
  </outline>
</glyph>
<glyph name="uni0919094D0915094D" format="1">
  <advance width="1298"/>
  <outline>
    <contour>
      <point x="894" y="102"/>
      <point x="822" y="70"/>
      <point x="756" y="15" type="curve"/>
      <point x="756" y="166" type="line"/>
      <point x="929" y="186"/>
      <point x="1030" y="284"/>
      <point x="1030" y="417" type="curve" smooth="yes"/>
      <point x="1030" y="491"/>
      <point x="976" y="603"/>
      <point x="872" y="657" type="curve"/>
      <point x="851" y="669"/>
      <point x="826" y="674"/>
      <point x="803" y="674" type="curve" smooth="yes"/>
      <point x="701" y="674"/>
      <point x="539" y="613"/>
      <point x="468" y="613" type="curve" smooth="yes"/>
      <point x="445" y="613"/>
      <point x="433" y="616"/>
      <point x="423" y="626" type="curve"/>
      <point x="408" y="637"/>
      <point x="395" y="667"/>
      <point x="395" y="708" type="curve" smooth="yes"/>
      <point x="395" y="755"/>
      <point x="425" y="784"/>
      <point x="499" y="784" type="curve" smooth="yes"/>
      <point x="887" y="784" type="line" smooth="yes"/>
      <point x="912" y="784"/>
      <point x="919" y="795"/>
      <point x="921" y="811" type="curve" smooth="yes"/>
      <point x="924" y="837"/>
      <point x="925" y="866"/>
      <point x="925" y="904" type="curve" smooth="yes"/>
      <point x="925" y="936"/>
      <point x="918" y="998"/>
      <point x="903" y="1053" type="curve"/>
      <point x="1348" y="1053" type="line"/>
      <point x="1298" y="1187" type="line"/>
      <point x="-56" y="1187" type="line"/>
      <point x="-1" y="1053" type="line"/>
      <point x="749" y="1053" type="line"/>
      <point x="752" y="1024"/>
      <point x="754" y="993"/>
      <point x="754" y="975" type="curve" smooth="yes"/>
      <point x="754" y="945"/>
      <point x="753" y="930"/>
      <point x="751" y="915" type="curve"/>
      <point x="462" y="915" type="line" smooth="yes"/>
      <point x="354" y="915"/>
      <point x="227" y="895"/>
      <point x="227" y="767" type="curve" smooth="yes"/>
      <point x="227" y="669"/>
      <point x="376" y="477"/>
      <point x="584" y="477" type="curve" smooth="yes"/>
      <point x="684" y="477"/>
      <point x="833" y="533"/>
      <point x="874" y="540" type="curve" smooth="yes"/>
      <point x="880" y="541"/>
      <point x="888" y="542"/>
      <point x="894" y="537" type="curve" smooth="yes"/>
      <point x="899" y="533"/>
      <point x="907" y="515"/>
      <point x="907" y="475" type="curve" smooth="yes"/>
      <point x="907" y="399"/>
      <point x="808" y="317"/>
      <point x="647" y="317" type="curve" smooth="yes"/>
      <point x="514" y="317"/>
      <point x="353" y="333"/>
      <point x="149" y="636" type="curve"/>
      <point x="62" y="586" type="line"/>
      <point x="203" y="342"/>
      <point x="396" y="198"/>
      <point x="605" y="168" type="curve"/>
      <point x="605" y="-3" type="line"/>
      <point x="482" y="94"/>
      <point x="400" y="121"/>
      <point x="315" y="121" type="curve" smooth="yes"/>
      <point x="187" y="121"/>
      <point x="86" y="27"/>
      <point x="86" y="-102" type="curve" smooth="yes"/>
      <point x="86" y="-244"/>
      <point x="221" y="-428"/>
      <point x="417" y="-428" type="curve" smooth="yes"/>
      <point x="489" y="-428"/>
      <point x="532" y="-419"/>
      <point x="605" y="-380" type="curve"/>
      <point x="605" y="-529" type="line"/>
      <point x="756" y="-591" type="line"/>
      <point x="756" y="-198" type="line"/>
      <point x="841" y="-77"/>
      <point x="935" y="-12"/>
      <point x="1007" y="-12" type="curve" smooth="yes"/>
      <point x="1064" y="-12"/>
      <point x="1104" y="-29"/>
      <point x="1178" y="-103" type="curve"/>
      <point x="1124" y="29" type="line"/>
      <point x="1062" y="86"/>
      <point x="1003" y="102"/>
      <point x="953" y="102" type="curve" smooth="yes"/>
    </contour>
    <contour>
      <point x="1056" y="828"/>
      <point x="959" y="751"/>
      <point x="959" y="701" type="curve" smooth="yes"/>
      <point x="959" y="676"/>
      <point x="1041" y="571"/>
      <point x="1083" y="571" type="curve" smooth="yes"/>
      <point x="1113" y="571"/>
      <point x="1215" y="651"/>
      <point x="1215" y="699" type="curve" smooth="yes"/>
      <point x="1215" y="722"/>
      <point x="1131" y="828"/>
      <point x="1089" y="828" type="curve" smooth="yes"/>
    </contour>
    <contour>
      <point x="320" y="-315"/>
      <point x="289" y="-315"/>
      <point x="281" y="-303" type="curve"/>
      <point x="259" y="-275"/>
      <point x="238" y="-216"/>
      <point x="240" y="-149" type="curve" smooth="yes"/>
      <point x="243" y="-43"/>
      <point x="325" y="-8"/>
      <point x="410" y="-8" type="curve" smooth="yes"/>
      <point x="461" y="-8"/>
      <point x="533" y="-21"/>
      <point x="605" y="-73" type="curve"/>
      <point x="605" y="-176" type="line"/>
      <point x="538" y="-258"/>
      <point x="448" y="-315"/>
      <point x="337" y="-315" type="curve" smooth="yes"/>
    </contour>
    <contour>
      <point x="819" y="1187" type="move" name="top"/>
    </contour>
    <contour>
      <point x="681" y="-480" type="move" name="bottom"/>
    </contour>
  </outline>
</glyph>
<glyph name="uni0919094D0916" format="1">
  <advance width="1304"/>
  <note>
    dNgKha
  </note>
  <outline>
    <contour>
      <point x="883" y="669"/>
      <point x="858" y="674"/>
      <point x="835" y="674" type="curve" smooth="yes"/>
      <point x="733" y="674"/>
      <point x="541" y="613"/>
      <point x="470" y="613" type="curve" smooth="yes"/>
      <point x="447" y="613"/>
      <point x="435" y="616"/>
      <point x="425" y="626" type="curve"/>
      <point x="410" y="637"/>
      <point x="397" y="667"/>
      <point x="397" y="708" type="curve" smooth="yes"/>
      <point x="397" y="755"/>
      <point x="427" y="784"/>
      <point x="501" y="784" type="curve" smooth="yes"/>
      <point x="950" y="784" type="line"/>
      <point x="956" y="837"/>
      <point x="957" y="866"/>
      <point x="957" y="904" type="curve" smooth="yes"/>
      <point x="957" y="936"/>
      <point x="950" y="998"/>
      <point x="935" y="1053" type="curve"/>
      <point x="1356" y="1053" type="line"/>
      <point x="1306" y="1187" type="line"/>
      <point x="-52" y="1187" type="line"/>
      <point x="2" y="1053" type="line"/>
      <point x="781" y="1053" type="line"/>
      <point x="784" y="1024"/>
      <point x="786" y="993"/>
      <point x="786" y="975" type="curve" smooth="yes"/>
      <point x="786" y="945"/>
      <point x="785" y="930"/>
      <point x="783" y="915" type="curve"/>
      <point x="464" y="915" type="line" smooth="yes"/>
      <point x="356" y="915"/>
      <point x="229" y="895"/>
      <point x="229" y="767" type="curve" smooth="yes"/>
      <point x="229" y="669"/>
      <point x="378" y="477"/>
      <point x="586" y="477" type="curve" smooth="yes"/>
      <point x="686" y="477"/>
      <point x="865" y="533"/>
      <point x="906" y="540" type="curve" smooth="yes"/>
      <point x="912" y="541"/>
      <point x="920" y="542"/>
      <point x="926" y="537" type="curve" smooth="yes"/>
      <point x="931" y="533"/>
      <point x="939" y="515"/>
      <point x="939" y="475" type="curve" smooth="yes"/>
      <point x="939" y="399"/>
      <point x="810" y="317"/>
      <point x="649" y="317" type="curve" smooth="yes"/>
      <point x="518" y="317"/>
      <point x="353" y="335"/>
      <point x="150" y="636" type="curve"/>
      <point x="65" y="587" type="line"/>
      <point x="120" y="489"/>
      <point x="184" y="408"/>
      <point x="254" y="345" type="curve"/>
      <point x="268" y="291"/>
      <point x="275" y="242"/>
      <point x="277" y="194" type="curve" smooth="yes"/>
      <point x="279" y="134"/>
      <point x="270" y="88"/>
      <point x="248" y="39" type="curve"/>
      <point x="141" y="93" type="line"/>
      <point x="39" y="50" type="line"/>
      <point x="42" y="26"/>
      <point x="47" y="-2"/>
      <point x="53" y="-32" type="curve" smooth="yes"/>
      <point x="74" y="-134"/>
      <point x="116" y="-263"/>
      <point x="200" y="-378" type="curve" smooth="yes"/>
      <point x="278" y="-485"/>
      <point x="381" y="-564"/>
      <point x="530" y="-569" type="curve" smooth="yes"/>
      <point x="596" y="-571"/>
      <point x="665" y="-564"/>
      <point x="736" y="-533" type="curve"/>
      <point x="675" y="-374" type="line"/>
      <point x="599" y="-405"/>
      <point x="556" y="-413"/>
      <point x="502" y="-413" type="curve" smooth="yes"/>
      <point x="399" y="-413"/>
      <point x="271" y="-376"/>
      <point x="187" y="-172" type="curve"/>
      <point x="357" y="-113"/>
      <point x="430" y="-8"/>
      <point x="430" y="108" type="curve" smooth="yes"/>
      <point x="430" y="152"/>
      <point x="420" y="197"/>
      <point x="403" y="241" type="curve"/>
      <point x="493" y="195"/>
      <point x="590" y="172"/>
      <point x="690" y="172" type="curve" smooth="yes"/>
      <point x="762" y="172"/>
      <point x="829" y="183"/>
      <point x="886" y="203" type="curve"/>
      <point x="886" y="28" type="line"/>
      <point x="823" y="72"/>
      <point x="756" y="112"/>
      <point x="683" y="112" type="curve" smooth="yes"/>
      <point x="548" y="112"/>
      <point x="454" y="35"/>
      <point x="454" y="-77" type="curve" smooth="yes"/>
      <point x="454" y="-163"/>
      <point x="546" y="-327"/>
      <point x="734" y="-335" type="curve" smooth="yes"/>
      <point x="771" y="-337"/>
      <point x="831" y="-328"/>
      <point x="886" y="-308" type="curve"/>
      <point x="886" y="-517" type="line"/>
      <point x="1034" y="-564" type="line"/>
      <point x="1034" y="303" type="line"/>
      <point x="1058" y="336"/>
      <point x="1072" y="374"/>
      <point x="1072" y="417" type="curve" smooth="yes"/>
      <point x="1072" y="491"/>
      <point x="1008" y="603"/>
      <point x="904" y="657" type="curve"/>
    </contour>
    <contour>
      <point x="1098" y="828"/>
      <point x="1001" y="751"/>
      <point x="1001" y="701" type="curve" smooth="yes"/>
      <point x="1001" y="676"/>
      <point x="1083" y="571"/>
      <point x="1125" y="571" type="curve" smooth="yes"/>
      <point x="1155" y="571"/>
      <point x="1257" y="651"/>
      <point x="1257" y="699" type="curve" smooth="yes"/>
      <point x="1257" y="722"/>
      <point x="1173" y="828"/>
      <point x="1131" y="828" type="curve" smooth="yes"/>
    </contour>
    <contour>
      <point x="668" y="-246"/>
      <point x="655" y="-243"/>
      <point x="652" y="-237" type="curve"/>
      <point x="633" y="-203"/>
      <point x="628" y="-159"/>
      <point x="628" y="-122" type="curve" smooth="yes"/>
      <point x="628" y="-60"/>
      <point x="656" y="-5"/>
      <point x="736" y="-5" type="curve" smooth="yes"/>
      <point x="787" y="-5"/>
      <point x="830" y="-16"/>
      <point x="886" y="-37" type="curve"/>
      <point x="886" y="-141" type="line"/>
      <point x="838" y="-199"/>
      <point x="758" y="-246"/>
      <point x="687" y="-246" type="curve" smooth="yes"/>
    </contour>
    <contour>
      <point x="851" y="1187" type="move" name="top"/>
    </contour>
    <contour>
      <point x="953" y="-470" type="move" name="bottom"/>
    </contour>
  </outline>
</glyph>
<glyph name="uni0919094D0917" format="1">
  <advance width="1257"/>
  <note>
    dNgGa
  </note>
  <outline>
    <contour>
      <point x="875" y="669"/>
      <point x="850" y="674"/>
      <point x="827" y="674" type="curve" smooth="yes"/>
      <point x="725" y="674"/>
      <point x="563" y="613"/>
      <point x="492" y="613" type="curve" smooth="yes"/>
      <point x="469" y="613"/>
      <point x="457" y="616"/>
      <point x="447" y="626" type="curve"/>
      <point x="432" y="637"/>
      <point x="419" y="667"/>
      <point x="419" y="708" type="curve" smooth="yes"/>
      <point x="419" y="755"/>
      <point x="449" y="784"/>
      <point x="523" y="784" type="curve" smooth="yes"/>
      <point x="942" y="784" type="line"/>
      <point x="948" y="837"/>
      <point x="949" y="866"/>
      <point x="949" y="904" type="curve" smooth="yes"/>
      <point x="949" y="936"/>
      <point x="942" y="998"/>
      <point x="927" y="1053" type="curve"/>
      <point x="1309" y="1053" type="line"/>
      <point x="1259" y="1187" type="line"/>
      <point x="-52" y="1187" type="line"/>
      <point x="3" y="1053" type="line"/>
      <point x="773" y="1053" type="line"/>
      <point x="776" y="1024"/>
      <point x="778" y="993"/>
      <point x="778" y="975" type="curve" smooth="yes"/>
      <point x="778" y="945"/>
      <point x="777" y="930"/>
      <point x="775" y="915" type="curve"/>
      <point x="486" y="915" type="line" smooth="yes"/>
      <point x="378" y="915"/>
      <point x="251" y="895"/>
      <point x="251" y="767" type="curve" smooth="yes"/>
      <point x="251" y="669"/>
      <point x="400" y="477"/>
      <point x="608" y="477" type="curve" smooth="yes"/>
      <point x="708" y="477"/>
      <point x="857" y="533"/>
      <point x="898" y="540" type="curve" smooth="yes"/>
      <point x="904" y="541"/>
      <point x="912" y="542"/>
      <point x="918" y="537" type="curve" smooth="yes"/>
      <point x="923" y="533"/>
      <point x="931" y="515"/>
      <point x="931" y="475" type="curve" smooth="yes"/>
      <point x="931" y="399"/>
      <point x="832" y="317"/>
      <point x="671" y="317" type="curve" smooth="yes"/>
      <point x="538" y="317"/>
      <point x="358" y="332"/>
      <point x="151" y="631" type="curve"/>
      <point x="68" y="582" type="line"/>
      <point x="146" y="442"/>
      <point x="250" y="335"/>
      <point x="366" y="264" type="curve"/>
      <point x="376" y="185"/>
      <point x="379" y="115"/>
      <point x="379" y="74" type="curve" smooth="yes"/>
      <point x="379" y="25"/>
      <point x="375" y="-31"/>
      <point x="374" y="-45" type="curve"/>
      <point x="365" y="-44"/>
      <point x="347" y="-43"/>
      <point x="335" y="-43" type="curve" smooth="yes"/>
      <point x="299" y="-43"/>
      <point x="235" y="-47"/>
      <point x="204" y="-63" type="curve" smooth="yes"/>
      <point x="188" y="-71"/>
      <point x="181" y="-79"/>
      <point x="181" y="-91" type="curve" smooth="yes"/>
      <point x="181" y="-145"/>
      <point x="353" y="-364"/>
      <point x="428" y="-364" type="curve" smooth="yes"/>
      <point x="438" y="-364"/>
      <point x="447" y="-360"/>
      <point x="456" y="-349" type="curve"/>
      <point x="515" y="-285"/>
      <point x="529" y="-113"/>
      <point x="529" y="-28" type="curve" smooth="yes"/>
      <point x="529" y="37"/>
      <point x="525" y="110"/>
      <point x="513" y="195" type="curve"/>
      <point x="579" y="173"/>
      <point x="646" y="162"/>
      <point x="712" y="162" type="curve" smooth="yes"/>
      <point x="744" y="162"/>
      <point x="774" y="164"/>
      <point x="802" y="169" type="curve"/>
      <point x="805" y="-490" type="line"/>
      <point x="950" y="-548" type="line"/>
      <point x="950" y="224" type="line"/>
      <point x="1017" y="269"/>
      <point x="1054" y="337"/>
      <point x="1054" y="417" type="curve" smooth="yes"/>
      <point x="1054" y="491"/>
      <point x="1000" y="603"/>
      <point x="896" y="657" type="curve"/>
    </contour>
    <contour>
      <point x="1122" y="823"/>
      <point x="1028" y="749"/>
      <point x="1028" y="701" type="curve" smooth="yes"/>
      <point x="1028" y="676"/>
      <point x="1107" y="576"/>
      <point x="1147" y="576" type="curve" smooth="yes"/>
      <point x="1176" y="576"/>
      <point x="1274" y="653"/>
      <point x="1274" y="699" type="curve" smooth="yes"/>
      <point x="1274" y="722"/>
      <point x="1193" y="823"/>
      <point x="1153" y="823" type="curve" smooth="yes"/>
    </contour>
    <contour>
      <point x="843" y="1187" type="move" name="top"/>
    </contour>
    <contour>
      <point x="885" y="-440" type="move" name="bottom"/>
    </contour>
  </outline>
</glyph>
<glyph name="uni091A094D0930" format="1">
  <advance width="1231"/>
  <note>
    dCRa
  </note>
  <outline>
    <contour>
      <point x="897" y="382" type="line"/>
      <point x="343" y="-6" type="line"/>
      <point x="467" y="-148" type="line"/>
      <point x="959" y="298" type="line"/>
    </contour>
    <component base="cadeva"/>
  </outline>
</glyph>
<glyph name="uni091B094D0932.loclMAR" format="1">
  <advance width="1240"/>
  <note>
    dChLa.MAR
  </note>
  <outline>
    <contour>
      <point x="988" y="150"/>
      <point x="988" y="162"/>
      <point x="988" y="173" type="curve"/>
      <point x="986" y="218"/>
      <point x="972" y="264"/>
      <point x="949" y="307" type="curve"/>
      <point x="1085" y="385"/>
      <point x="1160" y="514"/>
      <point x="1160" y="662" type="curve" smooth="yes"/>
      <point x="1160" y="787"/>
      <point x="1098" y="906"/>
      <point x="988" y="955" type="curve"/>
      <point x="987" y="987"/>
      <point x="978" y="1021"/>
      <point x="965" y="1053" type="curve"/>
      <point x="1293" y="1053" type="line"/>
      <point x="1242" y="1187" type="line"/>
      <point x="-56" y="1187" type="line"/>
      <point x="-0" y="1053" type="line"/>
      <point x="102" y="1053" type="line"/>
      <point x="87" y="1029"/>
      <point x="78" y="1001"/>
      <point x="78" y="968" type="curve" smooth="yes"/>
      <point x="78" y="899"/>
      <point x="124" y="839"/>
      <point x="232" y="797" type="curve"/>
      <point x="162" y="751"/>
      <point x="114" y="686"/>
      <point x="114" y="597" type="curve" smooth="yes"/>
      <point x="114" y="425"/>
      <point x="324" y="228"/>
      <point x="621" y="228" type="curve" smooth="yes"/>
      <point x="710" y="228"/>
      <point x="790" y="241"/>
      <point x="859" y="266" type="curve"/>
      <point x="860" y="253"/>
      <point x="861" y="240"/>
      <point x="861" y="224" type="curve" smooth="yes"/>
      <point x="861" y="207"/>
      <point x="859" y="191"/>
      <point x="855" y="172" type="curve"/>
      <point x="771" y="170"/>
      <point x="702" y="137"/>
      <point x="644" y="82" type="curve"/>
      <point x="549" y="147"/>
      <point x="469" y="179"/>
      <point x="394" y="179" type="curve" smooth="yes"/>
      <point x="261" y="179"/>
      <point x="118" y="104"/>
      <point x="118" y="-80" type="curve" smooth="yes"/>
      <point x="118" y="-268"/>
      <point x="267" y="-414"/>
      <point x="514" y="-530" type="curve"/>
      <point x="551" y="-452" type="line"/>
      <point x="362" y="-342"/>
      <point x="281" y="-233"/>
      <point x="281" y="-100" type="curve" smooth="yes"/>
      <point x="281" y="18"/>
      <point x="380" y="61"/>
      <point x="458" y="61" type="curve" smooth="yes"/>
      <point x="498" y="61"/>
      <point x="541" y="53"/>
      <point x="596" y="29" type="curve"/>
      <point x="557" y="-24"/>
      <point x="533" y="-84"/>
      <point x="519" y="-174" type="curve"/>
      <point x="658" y="-223" type="line"/>
      <point x="739" y="48"/>
      <point x="864" y="60"/>
      <point x="927" y="60" type="curve" smooth="yes"/>
      <point x="962" y="60"/>
      <point x="1003" y="48"/>
      <point x="1014" y="39" type="curve" smooth="yes"/>
      <point x="1030" y="25"/>
      <point x="1035" y="-29"/>
      <point x="1035" y="-54" type="curve" smooth="yes"/>
      <point x="1035" y="-210"/>
      <point x="923" y="-302"/>
      <point x="740" y="-426" type="curve"/>
      <point x="886" y="-541" type="line"/>
      <point x="1057" y="-414"/>
      <point x="1161" y="-300"/>
      <point x="1161" y="-132" type="curve" smooth="yes"/>
      <point x="1161" y="-40"/>
      <point x="1089" y="81"/>
      <point x="986" y="138" type="curve"/>
    </contour>
    <contour>
      <point x="462" y="351"/>
      <point x="383" y="351"/>
      <point x="355" y="366" type="curve" smooth="yes"/>
      <point x="336" y="376"/>
      <point x="269" y="432"/>
      <point x="269" y="532" type="curve" smooth="yes"/>
      <point x="269" y="653"/>
      <point x="418" y="702"/>
      <point x="583" y="720" type="curve"/>
      <point x="505" y="877" type="line"/>
      <point x="438" y="873"/>
      <point x="368" y="859"/>
      <point x="306" y="835" type="curve"/>
      <point x="261" y="866"/>
      <point x="247" y="899"/>
      <point x="247" y="937" type="curve" smooth="yes"/>
      <point x="247" y="1037"/>
      <point x="323" y="1053"/>
      <point x="436" y="1053" type="curve" smooth="yes"/>
      <point x="859" y="1053" type="line"/>
      <point x="860" y="1039"/>
      <point x="861" y="1023"/>
      <point x="861" y="1004" type="curve" smooth="yes"/>
      <point x="861" y="995"/>
      <point x="860" y="986"/>
      <point x="859" y="977" type="curve"/>
      <point x="749" y="971"/>
      <point x="663" y="908"/>
      <point x="655" y="804" type="curve"/>
      <point x="655" y="659"/>
      <point x="748" y="597"/>
      <point x="969" y="546" type="curve"/>
      <point x="873" y="421"/>
      <point x="680" y="351"/>
      <point x="511" y="351" type="curve" smooth="yes"/>
    </contour>
    <contour>
      <point x="1016" y="841"/>
      <point x="1029" y="804"/>
      <point x="1029" y="717" type="curve" smooth="yes"/>
      <point x="1029" y="678"/>
      <point x="1021" y="642"/>
      <point x="1007" y="609" type="curve"/>
      <point x="901" y="639"/>
      <point x="817" y="677"/>
      <point x="817" y="771" type="curve" smooth="yes"/>
      <point x="817" y="847"/>
      <point x="862" y="885"/>
      <point x="935" y="885" type="curve" smooth="yes"/>
      <point x="951" y="885"/>
      <point x="994" y="879"/>
      <point x="1000" y="868" type="curve"/>
    </contour>
    <contour>
      <point x="894" y="1187" type="move" name="top"/>
    </contour>
    <contour>
      <point x="828" y="-390" type="move" name="bottom"/>
    </contour>
  </outline>
</glyph>
<glyph name="uni091C094D091C.alt" format="1">
  <advance width="1522"/>
  <note>
    dJJa.alt
  </note>
  <outline>
    <contour>
      <point x="1202" y="1053" type="line"/>
      <point x="1202" y="-140" type="line"/>
      <point x="1356" y="-201" type="line"/>
      <point x="1356" y="1053" type="line"/>
      <point x="1572" y="1053" type="line"/>
      <point x="1523" y="1187" type="line"/>
      <point x="945" y="1187" type="line"/>
      <point x="998" y="1053" type="line"/>
    </contour>
    <component base="uni091C094D091C094D.alt"/>
    <contour>
      <point x="1279" y="1187" type="move" name="top"/>
    </contour>
    <contour>
      <point x="1276" y="-130" type="move" name="bottom"/>
    </contour>
  </outline>
</glyph>
<glyph name="uni091E094D" format="1">
  <advance width="1091"/>
  <note>
    dNy.half
  </note>
  <outline>
    <contour>
      <point x="-1" y="1053" type="line"/>
      <point x="1180" y="1053" type="line"/>
      <point x="1131" y="1187" type="line"/>
      <point x="-57" y="1187" type="line"/>
    </contour>
    <contour>
      <point x="1110" y="460"/>
      <point x="1218" y="481"/>
      <point x="1315" y="542" type="curve"/>
      <point x="1261" y="704" type="line"/>
      <point x="1161" y="626"/>
      <point x="1062" y="582"/>
      <point x="970" y="583" type="curve"/>
      <point x="906" y="764"/>
      <point x="783" y="862"/>
      <point x="622" y="862" type="curve" smooth="yes"/>
      <point x="542" y="862"/>
      <point x="460" y="837"/>
      <point x="396" y="792" type="curve"/>
      <point x="478" y="653" type="line"/>
      <point x="622" y="728"/>
      <point x="672" y="734"/>
      <point x="737" y="726" type="curve" smooth="yes"/>
      <point x="758" y="724"/>
      <point x="779" y="718"/>
      <point x="801" y="708" type="curve" smooth="yes"/>
      <point x="825" y="697"/>
      <point x="865" y="611"/>
      <point x="865" y="529" type="curve" smooth="yes"/>
      <point x="865" y="379"/>
      <point x="763" y="311"/>
      <point x="630" y="311" type="curve" smooth="yes"/>
      <point x="453" y="311"/>
      <point x="303" y="418"/>
      <point x="153" y="749" type="curve"/>
      <point x="57" y="704" type="line"/>
      <point x="69" y="668"/>
      <point x="83" y="634"/>
      <point x="96" y="601" type="curve" smooth="yes"/>
      <point x="235" y="276"/>
      <point x="435" y="144"/>
      <point x="660" y="144" type="curve" smooth="yes"/>
      <point x="865" y="144"/>
      <point x="989" y="261"/>
      <point x="989" y="485" type="curve"/>
    </contour>
  </outline>
</glyph>
<glyph name="uni091E094D091C" format="1">
  <advance width="1342"/>
  <note>
    dNyJa
  </note>
  <outline>
    <contour>
      <point x="1345" y="1187" type="line"/>
      <point x="-52" y="1187" type="line"/>
      <point x="3" y="1053" type="line"/>
      <point x="1022" y="1053" type="line"/>
      <point x="1022" y="826" type="line"/>
      <point x="985" y="796"/>
      <point x="938" y="782"/>
      <point x="874" y="783" type="curve"/>
      <point x="801" y="915"/>
      <point x="660" y="986"/>
      <point x="523" y="988" type="curve" smooth="yes"/>
      <point x="446" y="990"/>
      <point x="369" y="968"/>
      <point x="308" y="923" type="curve"/>
      <point x="426" y="781" type="line"/>
      <point x="520" y="848"/>
      <point x="587" y="858"/>
      <point x="654" y="850" type="curve" smooth="yes"/>
      <point x="675" y="848"/>
      <point x="696" y="842"/>
      <point x="718" y="832" type="curve" smooth="yes"/>
      <point x="742" y="821"/>
      <point x="769" y="792"/>
      <point x="769" y="726" type="curve" smooth="yes"/>
      <point x="769" y="647"/>
      <point x="697" y="575"/>
      <point x="564" y="575" type="curve" smooth="yes"/>
      <point x="387" y="575"/>
      <point x="245" y="670"/>
      <point x="112" y="888" type="curve"/>
      <point x="28" y="844" type="line"/>
      <point x="164" y="538"/>
      <point x="360" y="414"/>
      <point x="574" y="414" type="curve" smooth="yes"/>
      <point x="779" y="414"/>
      <point x="893" y="541"/>
      <point x="893" y="685" type="curve"/>
      <point x="942" y="677"/>
      <point x="978" y="673"/>
      <point x="1022" y="682" type="curve"/>
      <point x="1022" y="487" type="line"/>
      <point x="407" y="237" type="line"/>
      <point x="401" y="209" type="line"/>
      <point x="457" y="147" type="line"/>
      <point x="636" y="188"/>
      <point x="731" y="124"/>
      <point x="731" y="12" type="curve" smooth="yes"/>
      <point x="731" y="-72"/>
      <point x="647" y="-138"/>
      <point x="526" y="-138" type="curve" smooth="yes"/>
      <point x="424" y="-138"/>
      <point x="301" y="-86"/>
      <point x="134" y="97" type="curve"/>
      <point x="70" y="40" type="line"/>
      <point x="274" y="-227"/>
      <point x="439" y="-282"/>
      <point x="582" y="-282" type="curve" smooth="yes"/>
      <point x="828" y="-281"/>
      <point x="907" y="-136"/>
      <point x="907" y="-24" type="curve" smooth="yes"/>
      <point x="907" y="75"/>
      <point x="851" y="194"/>
      <point x="687" y="205" type="curve"/>
      <point x="1022" y="344" type="line"/>
      <point x="1022" y="-49" type="line"/>
      <point x="1176" y="-113" type="line"/>
      <point x="1176" y="1053" type="line"/>
      <point x="1394" y="1053" type="line"/>
    </contour>
    <contour>
      <point x="1099" y="1187" type="move" name="top"/>
    </contour>
    <contour>
      <point x="1099" y="0" type="move" name="bottom"/>
    </contour>
  </outline>
</glyph>
<glyph name="uni091F094D091F" format="1">
  <advance width="1127"/>
  <note>
    dTtTta
  </note>
  <outline>
    <contour>
      <point x="949" y="548" type="line"/>
      <point x="803" y="389"/>
      <point x="677" y="336"/>
      <point x="531" y="336" type="curve" smooth="yes"/>
      <point x="441" y="336"/>
      <point x="345" y="376"/>
      <point x="328" y="391" type="curve"/>
      <point x="297" y="423"/>
      <point x="284" y="484"/>
      <point x="284" y="562" type="curve" smooth="yes"/>
      <point x="284" y="677"/>
      <point x="356" y="737"/>
      <point x="500" y="737" type="curve" smooth="yes"/>
      <point x="890" y="737" type="line"/>
      <point x="902" y="772"/>
      <point x="907" y="809"/>
      <point x="907" y="854" type="curve" smooth="yes"/>
      <point x="907" y="908"/>
      <point x="896" y="971"/>
      <point x="873" y="1053" type="curve"/>
      <point x="1179" y="1053" type="line"/>
      <point x="1128" y="1187" type="line"/>
      <point x="-52" y="1187" type="line"/>
      <point x="4" y="1053" type="line"/>
      <point x="735" y="1053" type="line"/>
      <point x="737" y="1030"/>
      <point x="737" y="1007"/>
      <point x="737" y="984" type="curve" smooth="yes"/>
      <point x="737" y="955"/>
      <point x="733" y="911"/>
      <point x="722" y="878" type="curve"/>
      <point x="446" y="878" type="line" smooth="yes"/>
      <point x="141" y="878"/>
      <point x="107" y="745"/>
      <point x="107" y="626" type="curve" smooth="yes"/>
      <point x="107" y="382"/>
      <point x="366" y="204"/>
      <point x="618" y="204" type="curve" smooth="yes"/>
      <point x="658" y="204"/>
      <point x="695" y="207"/>
      <point x="731" y="213" type="curve"/>
      <point x="731" y="191" type="line" smooth="yes"/>
      <point x="731" y="163"/>
      <point x="727" y="121"/>
      <point x="716" y="90" type="curve"/>
      <point x="452" y="90" type="line" smooth="yes"/>
      <point x="159" y="90"/>
      <point x="125" y="-39"/>
      <point x="125" y="-154" type="curve" smooth="yes"/>
      <point x="125" y="-388"/>
      <point x="374" y="-558"/>
      <point x="616" y="-558" type="curve" smooth="yes"/>
      <point x="803" y="-558"/>
      <point x="933" y="-490"/>
      <point x="1055" y="-343" type="curve"/>
      <point x="935" y="-228" type="line"/>
      <point x="795" y="-381"/>
      <point x="673" y="-432"/>
      <point x="533" y="-432" type="curve" smooth="yes"/>
      <point x="447" y="-432"/>
      <point x="355" y="-394"/>
      <point x="338" y="-379" type="curve"/>
      <point x="309" y="-349"/>
      <point x="296" y="-290"/>
      <point x="296" y="-214" type="curve" smooth="yes"/>
      <point x="296" y="-105"/>
      <point x="365" y="-47"/>
      <point x="504" y="-47" type="curve" smooth="yes"/>
      <point x="877" y="-47" type="line"/>
      <point x="890" y="-3"/>
      <point x="895" y="36"/>
      <point x="895" y="75" type="curve" smooth="yes"/>
      <point x="895" y="132"/>
      <point x="881" y="188"/>
      <point x="862" y="255" type="curve"/>
      <point x="940" y="292"/>
      <point x="1008" y="349"/>
      <point x="1074" y="428" type="curve"/>
    </contour>
    <contour>
      <point x="797" y="1187" type="move" name="top"/>
    </contour>
    <contour>
      <point x="679" y="-510" type="move" name="bottom"/>
    </contour>
  </outline>
</glyph>
<glyph name="uni091F094D0920" format="1">
  <advance width="1129"/>
  <note>
    dTtTtha
  </note>
  <outline>
    <contour>
      <point x="949" y="548" type="line"/>
      <point x="803" y="389"/>
      <point x="677" y="336"/>
      <point x="531" y="336" type="curve" smooth="yes"/>
      <point x="441" y="336"/>
      <point x="345" y="376"/>
      <point x="328" y="391" type="curve"/>
      <point x="297" y="423"/>
      <point x="284" y="484"/>
      <point x="284" y="562" type="curve" smooth="yes"/>
      <point x="284" y="677"/>
      <point x="356" y="737"/>
      <point x="500" y="737" type="curve" smooth="yes"/>
      <point x="890" y="737" type="line"/>
      <point x="902" y="772"/>
      <point x="907" y="809"/>
      <point x="907" y="854" type="curve" smooth="yes"/>
      <point x="907" y="908"/>
      <point x="896" y="971"/>
      <point x="873" y="1053" type="curve"/>
      <point x="1180" y="1053" type="line"/>
      <point x="1129" y="1187" type="line"/>
      <point x="-52" y="1187" type="line"/>
      <point x="4" y="1053" type="line"/>
      <point x="735" y="1053" type="line"/>
      <point x="737" y="1030"/>
      <point x="737" y="1007"/>
      <point x="737" y="984" type="curve" smooth="yes"/>
      <point x="737" y="955"/>
      <point x="733" y="911"/>
      <point x="722" y="878" type="curve"/>
      <point x="446" y="878" type="line" smooth="yes"/>
      <point x="141" y="878"/>
      <point x="107" y="745"/>
      <point x="107" y="626" type="curve" smooth="yes"/>
      <point x="107" y="382"/>
      <point x="366" y="204"/>
      <point x="618" y="204" type="curve" smooth="yes"/>
      <point x="649" y="204"/>
      <point x="678" y="206"/>
      <point x="706" y="209" type="curve"/>
      <point x="706" y="198"/>
      <point x="706" y="189"/>
      <point x="706" y="180" type="curve" smooth="yes"/>
      <point x="706" y="165"/>
      <point x="702" y="143"/>
      <point x="689" y="111" type="curve"/>
      <point x="479" y="111" type="line" smooth="yes"/>
      <point x="177" y="111"/>
      <point x="120" y="-2"/>
      <point x="120" y="-141" type="curve" smooth="yes"/>
      <point x="120" y="-448"/>
      <point x="428" y="-562"/>
      <point x="622" y="-562" type="curve" smooth="yes"/>
      <point x="803" y="-562"/>
      <point x="912" y="-529"/>
      <point x="980" y="-460" type="curve" smooth="yes"/>
      <point x="1030" y="-409"/>
      <point x="1053" y="-342"/>
      <point x="1053" y="-271" type="curve" smooth="yes"/>
      <point x="1053" y="-169"/>
      <point x="994" y="-89"/>
      <point x="844" y="-7" type="curve"/>
      <point x="858" y="13"/>
      <point x="863" y="46"/>
      <point x="863" y="96" type="curve" smooth="yes"/>
      <point x="863" y="128"/>
      <point x="852" y="189"/>
      <point x="834" y="243" type="curve"/>
      <point x="923" y="278"/>
      <point x="1000" y="340"/>
      <point x="1074" y="428" type="curve"/>
    </contour>
    <contour>
      <point x="738" y="-425"/>
      <point x="643" y="-441"/>
      <point x="555" y="-441" type="curve" smooth="yes"/>
      <point x="450" y="-441"/>
      <point x="366" y="-422"/>
      <point x="346" y="-401" type="curve"/>
      <point x="319" y="-375"/>
      <point x="282" y="-292"/>
      <point x="282" y="-196" type="curve" smooth="yes"/>
      <point x="282" y="-66"/>
      <point x="356" y="-21"/>
      <point x="516" y="-21" type="curve"/>
      <point x="516" y="-21"/>
      <point x="789" y="-21"/>
      <point x="789" y="-30" type="curve"/>
      <point x="790" y="-30" type="line"/>
      <point x="869" y="-100"/>
      <point x="892" y="-171"/>
      <point x="892" y="-224" type="curve" smooth="yes"/>
      <point x="892" y="-305"/>
      <point x="853" y="-356"/>
      <point x="795" y="-390" type="curve" smooth="yes"/>
    </contour>
    <contour>
      <point x="797" y="1187" type="move" name="top"/>
    </contour>
    <contour>
      <point x="678" y="-500" type="move" name="bottom"/>
    </contour>
  </outline>
</glyph>
<glyph name="uni091F094D092F" format="1">
  <advance width="2158"/>
  <note>
    dTtYa
  </note>
  <outline>
    <contour>
      <point x="2159" y="1187" type="line"/>
      <point x="998" y="1187" type="line"/>
      <point x="1053" y="1053" type="line"/>
      <point x="1848" y="1053" type="line"/>
      <point x="1848" y="499" type="line"/>
      <point x="1770" y="342"/>
      <point x="1606" y="255"/>
      <point x="1463" y="255" type="curve" smooth="yes"/>
      <point x="1370" y="255"/>
      <point x="1311" y="271"/>
      <point x="1242" y="319" type="curve"/>
      <point x="1493" y="398"/>
      <point x="1559" y="479"/>
      <point x="1559" y="582" type="curve" smooth="yes"/>
      <point x="1559" y="670"/>
      <point x="1496" y="814"/>
      <point x="1328" y="814" type="curve" smooth="yes"/>
      <point x="722" y="814" type="line"/>
      <point x="781" y="670" type="line"/>
      <point x="1314" y="670" type="line" smooth="yes"/>
      <point x="1361" y="670"/>
      <point x="1425" y="662"/>
      <point x="1437" y="630" type="curve" smooth="yes"/>
      <point x="1449" y="599"/>
      <point x="1308" y="508"/>
      <point x="1082" y="447" type="curve"/>
      <point x="1199" y="195"/>
      <point x="1361" y="104"/>
      <point x="1542" y="98" type="curve" smooth="yes"/>
      <point x="1641" y="95"/>
      <point x="1754" y="114"/>
      <point x="1848" y="217" type="curve"/>
      <point x="1848" y="-39" type="line"/>
      <point x="2002" y="-102" type="line"/>
      <point x="2002" y="1053" type="line"/>
      <point x="2210" y="1053" type="line"/>
    </contour>
    <component base="ttadeva"/>
  </outline>
</glyph>
<glyph name="uni0921094D0921094D092F" format="1">
  <advance width="2154"/>
  <note>
    dDdDdYa
  </note>
  <outline>
    <contour>
      <point x="2155" y="1187" type="line"/>
      <point x="1007" y="1187" type="line"/>
      <point x="1064" y="1053" type="line"/>
      <point x="1847" y="1053" type="line"/>
      <point x="1842" y="489" type="line"/>
      <point x="1837" y="489" type="line"/>
      <point x="1759" y="352"/>
      <point x="1605" y="265"/>
      <point x="1462" y="265" type="curve" smooth="yes"/>
      <point x="1369" y="265"/>
      <point x="1300" y="299"/>
      <point x="1231" y="359" type="curve"/>
      <point x="1472" y="449"/>
      <point x="1578" y="539"/>
      <point x="1578" y="642" type="curve" smooth="yes"/>
      <point x="1578" y="730"/>
      <point x="1495" y="919"/>
      <point x="1287" y="919" type="curve" smooth="yes"/>
      <point x="758" y="919" type="line"/>
      <point x="818" y="784" type="line"/>
      <point x="1303" y="784" type="line" smooth="yes"/>
      <point x="1378" y="784"/>
      <point x="1424" y="764"/>
      <point x="1437" y="735" type="curve" smooth="yes"/>
      <point x="1453" y="699"/>
      <point x="1381" y="569"/>
      <point x="1070" y="490" type="curve"/>
      <point x="1178" y="243"/>
      <point x="1350" y="114"/>
      <point x="1531" y="108" type="curve" smooth="yes"/>
      <point x="1630" y="105"/>
      <point x="1743" y="124"/>
      <point x="1837" y="207" type="curve"/>
      <point x="1839" y="207" type="line"/>
      <point x="1837" y="-39" type="line"/>
      <point x="1991" y="-102" type="line"/>
      <point x="2001" y="1053" type="line"/>
      <point x="2206" y="1053" type="line"/>
    </contour>
    <component base="uni0921094D0921"/>
    <contour>
      <point x="1924" y="1187" type="move" name="top"/>
    </contour>
    <contour>
      <point x="1924" y="0" type="move" name="bottom"/>
    </contour>
  </outline>
</glyph>
<glyph name="uni0921094D092E" format="1">
  <advance width="1972"/>
  <note>
    dDdMa
  </note>
  <outline>
    <contour>
      <point x="2024" y="1053" type="line"/>
      <point x="1973" y="1187" type="line"/>
      <point x="1041" y="1187" type="line"/>
      <point x="1096" y="1053" type="line"/>
      <point x="1717" y="1053" type="line"/>
      <point x="1717" y="508" type="line"/>
      <point x="1398" y="508" type="line"/>
      <point x="1398" y="638" type="line"/>
      <point x="1391" y="752"/>
      <point x="1285" y="888"/>
      <point x="1080" y="888" type="curve" smooth="yes"/>
      <point x="818" y="888" type="line"/>
      <point x="820" y="755" type="line"/>
      <point x="1034" y="755" type="line" smooth="yes"/>
      <point x="1128" y="755"/>
      <point x="1220" y="746"/>
      <point x="1229" y="730" type="curve" smooth="yes"/>
      <point x="1241" y="709"/>
      <point x="1243" y="657"/>
      <point x="1243" y="628" type="curve" smooth="yes"/>
      <point x="1243" y="513" type="line"/>
      <point x="1230" y="513" type="line" smooth="yes"/>
      <point x="1191" y="513"/>
      <point x="1075" y="513"/>
      <point x="1075" y="465" type="curve" smooth="yes"/>
      <point x="1075" y="355"/>
      <point x="1264" y="197"/>
      <point x="1333" y="197" type="curve" smooth="yes"/>
      <point x="1390" y="197"/>
      <point x="1400" y="303"/>
      <point x="1400" y="373" type="curve"/>
      <point x="1717" y="373" type="line"/>
      <point x="1717" y="-38" type="line"/>
      <point x="1871" y="-101" type="line"/>
      <point x="1871" y="1053" type="line"/>
    </contour>
    <component base="ddadeva"/>
    <contour>
      <point x="1794" y="1187" type="move" name="top"/>
    </contour>
    <contour>
      <point x="1794" y="0" type="move" name="bottom"/>
    </contour>
  </outline>
</glyph>
<glyph name="uni0924094D0930.alt" format="1">
  <advance width="1104"/>
  <note>
    dTRa.alt
  </note>
  <outline>
    <contour>
      <point x="827" y="713" type="line"/>
      <point x="439" y="316" type="line"/>
      <point x="588" y="199" type="line"/>
      <point x="912" y="646" type="line"/>
    </contour>
    <component base="uni0924094D"/>
    <component base="uni093E" xOffset="600"/>
  </outline>
</glyph>
<glyph name="uni0926094D09170941" format="1">
  <advance width="1113"/>
  <outline>
    <contour>
      <point x="937" y="6" type="line"/>
      <point x="882" y="47"/>
      <point x="834" y="96"/>
      <point x="795" y="162" type="curve"/>
      <point x="809" y="170"/>
      <point x="823" y="178"/>
      <point x="837" y="187" type="curve" smooth="yes"/>
      <point x="902" y="228"/>
      <point x="981" y="313"/>
      <point x="981" y="348" type="curve" smooth="yes"/>
      <point x="981" y="361"/>
      <point x="977" y="377"/>
      <point x="962" y="393" type="curve" smooth="yes"/>
      <point x="915" y="444"/>
      <point x="805" y="508"/>
      <point x="722" y="508" type="curve" smooth="yes"/>
      <point x="670" y="508"/>
      <point x="634" y="480"/>
      <point x="634" y="423" type="curve" smooth="yes"/>
      <point x="634" y="387"/>
      <point x="654" y="324"/>
      <point x="675" y="282" type="curve"/>
      <point x="626" y="251"/>
      <point x="537" y="231"/>
      <point x="456" y="231" type="curve" smooth="yes"/>
      <point x="429" y="231"/>
      <point x="335" y="241"/>
      <point x="320" y="256" type="curve" smooth="yes"/>
      <point x="278" y="296"/>
      <point x="244" y="399"/>
      <point x="244" y="508" type="curve" smooth="yes"/>
      <point x="244" y="613"/>
      <point x="276" y="716"/>
      <point x="494" y="716" type="curve" smooth="yes"/>
      <point x="837" y="716" type="line"/>
      <point x="846" y="762"/>
      <point x="850" y="806"/>
      <point x="849" y="851" type="curve"/>
      <point x="849" y="912"/>
      <point x="840" y="976"/>
      <point x="823" y="1053" type="curve"/>
      <point x="1171" y="1053" type="line"/>
      <point x="1121" y="1187" type="line"/>
      <point x="-57" y="1187" type="line"/>
      <point x="-5" y="1053" type="line"/>
      <point x="690" y="1053" type="line"/>
      <point x="694" y="1009"/>
      <point x="696" y="986"/>
      <point x="694" y="959" type="curve" smooth="yes"/>
      <point x="692" y="932"/>
      <point x="693" y="907"/>
      <point x="685" y="864" type="curve"/>
      <point x="486" y="864" type="line" smooth="yes"/>
      <point x="143" y="864"/>
      <point x="77" y="700"/>
      <point x="77" y="558" type="curve" smooth="yes"/>
      <point x="77" y="331"/>
      <point x="250" y="158"/>
      <point x="441" y="111" type="curve"/>
      <point x="444" y="86"/>
      <point x="445" y="60"/>
      <point x="445" y="34" type="curve" smooth="yes"/>
      <point x="446" y="-3"/>
      <point x="444" y="-39"/>
      <point x="440" y="-65" type="curve"/>
      <point x="431" y="-64"/>
      <point x="413" y="-63"/>
      <point x="401" y="-63" type="curve" smooth="yes"/>
      <point x="374" y="-63"/>
      <point x="319" y="-68"/>
      <point x="288" y="-80" type="curve"/>
      <point x="276" y="-84"/>
      <point x="265" y="-95"/>
      <point x="266" y="-109" type="curve"/>
      <point x="268" y="-177"/>
      <point x="403" y="-333"/>
      <point x="485" y="-333" type="curve" smooth="yes"/>
      <point x="495" y="-333"/>
      <point x="504" y="-330"/>
      <point x="513" y="-322" type="curve"/>
      <point x="563" y="-265"/>
      <point x="575" y="-144"/>
      <point x="575" y="-68" type="curve" smooth="yes"/>
      <point x="575" y="-20"/>
      <point x="570" y="31"/>
      <point x="558" y="98" type="curve"/>
      <point x="619" y="99"/>
      <point x="672" y="110"/>
      <point x="723" y="129" type="curve"/>
      <point x="744" y="69"/>
      <point x="768" y="18"/>
      <point x="795" y="-26" type="curve"/>
      <point x="772" y="-36"/>
      <point x="750" y="-50"/>
      <point x="727" y="-69" type="curve"/>
      <point x="817" y="-184" type="line"/>
      <point x="893" y="-123"/>
      <point x="956" y="-109"/>
      <point x="998" y="-109" type="curve" smooth="yes"/>
      <point x="1043" y="-109"/>
      <point x="1093" y="-132"/>
      <point x="1104" y="-150" type="curve" smooth="yes"/>
      <point x="1109" y="-158"/>
      <point x="1113" y="-190"/>
      <point x="1112" y="-212" type="curve" smooth="yes"/>
      <point x="1108" y="-301"/>
      <point x="1042" y="-361"/>
      <point x="919" y="-361" type="curve" smooth="yes"/>
      <point x="823" y="-361"/>
      <point x="743" y="-302"/>
      <point x="659" y="-202" type="curve"/>
      <point x="589" y="-265" type="line"/>
      <point x="667" y="-371"/>
      <point x="774" y="-492"/>
      <point x="952" y="-492" type="curve" smooth="yes"/>
      <point x="1110" y="-492"/>
      <point x="1204" y="-405"/>
      <point x="1204" y="-254" type="curve" smooth="yes"/>
      <point x="1204" y="-108"/>
      <point x="1079" y="6"/>
      <point x="954" y="6" type="curve" smooth="yes"/>
    </contour>
    <contour>
      <point x="755" y="1187" type="move" name="top"/>
    </contour>
    <contour>
      <point x="854" y="-80" type="move" name="bottom"/>
    </contour>
  </outline>
</glyph>
<glyph name="uni0926094D0917094D0930" format="1">
  <advance width="1128"/>
  <note>
    dDGRa
  </note>
  <outline>
    <contour>
      <point x="861" y="-66" type="line"/>
      <point x="611" y="-338" type="line"/>
      <point x="760" y="-434" type="line"/>
      <point x="935" y="-122" type="line"/>
    </contour>
    <component base="uni0926094D0917"/>
  </outline>
</glyph>
<glyph name="uni0926094D0918" format="1">
  <advance width="1263"/>
  <note>
    dDGha
  </note>
  <outline>
    <contour>
      <point x="938" y="171"/>
      <point x="952" y="179"/>
      <point x="965" y="187" type="curve" smooth="yes"/>
      <point x="1030" y="228"/>
      <point x="1109" y="313"/>
      <point x="1109" y="348" type="curve" smooth="yes"/>
      <point x="1109" y="361"/>
      <point x="1105" y="377"/>
      <point x="1090" y="393" type="curve" smooth="yes"/>
      <point x="1043" y="444"/>
      <point x="933" y="508"/>
      <point x="850" y="508" type="curve" smooth="yes"/>
      <point x="798" y="508"/>
      <point x="762" y="480"/>
      <point x="762" y="423" type="curve" smooth="yes"/>
      <point x="762" y="387"/>
      <point x="782" y="324"/>
      <point x="803" y="282" type="curve"/>
      <point x="754" y="251"/>
      <point x="665" y="231"/>
      <point x="584" y="231" type="curve" smooth="yes"/>
      <point x="557" y="231"/>
      <point x="463" y="241"/>
      <point x="448" y="256" type="curve" smooth="yes"/>
      <point x="406" y="296"/>
      <point x="372" y="399"/>
      <point x="372" y="508" type="curve" smooth="yes"/>
      <point x="372" y="613"/>
      <point x="404" y="716"/>
      <point x="622" y="716" type="curve" smooth="yes"/>
      <point x="965" y="716" type="line"/>
      <point x="974" y="762"/>
      <point x="978" y="806"/>
      <point x="977" y="851" type="curve"/>
      <point x="977" y="912"/>
      <point x="968" y="976"/>
      <point x="951" y="1053" type="curve"/>
      <point x="1314" y="1053" type="line"/>
      <point x="1264" y="1187" type="line"/>
      <point x="-53" y="1187" type="line"/>
      <point x="-1" y="1053" type="line"/>
      <point x="818" y="1053" type="line"/>
      <point x="822" y="1009"/>
      <point x="824" y="986"/>
      <point x="822" y="959" type="curve" smooth="yes"/>
      <point x="820" y="932"/>
      <point x="821" y="907"/>
      <point x="813" y="864" type="curve"/>
      <point x="614" y="864" type="line" smooth="yes"/>
      <point x="271" y="864"/>
      <point x="205" y="700"/>
      <point x="205" y="558" type="curve" smooth="yes"/>
      <point x="205" y="487"/>
      <point x="222" y="422"/>
      <point x="250" y="364" type="curve"/>
      <point x="152" y="325"/>
      <point x="19" y="246"/>
      <point x="47" y="115" type="curve" smooth="yes"/>
      <point x="67" y="30"/>
      <point x="152" y="-4"/>
      <point x="232" y="-19" type="curve"/>
      <point x="203" y="-59"/>
      <point x="188" y="-107"/>
      <point x="199" y="-163" type="curve" smooth="yes"/>
      <point x="233" y="-315"/>
      <point x="451" y="-390"/>
      <point x="555" y="-365" type="curve" smooth="yes"/>
      <point x="674" y="-340"/>
      <point x="822" y="-242"/>
      <point x="931" y="-34" type="curve"/>
      <point x="982" y="-114"/>
      <point x="1042" y="-171"/>
      <point x="1108" y="-231" type="curve"/>
      <point x="1223" y="-91" type="line"/>
      <point x="1104" y="-24"/>
      <point x="999" y="40"/>
      <point x="925" y="163" type="curve"/>
    </contour>
    <contour>
      <point x="437" y="-269"/>
      <point x="396" y="-272"/>
      <point x="382" y="-267" type="curve"/>
      <point x="368" y="-260"/>
      <point x="349" y="-239"/>
      <point x="339" y="-205" type="curve"/>
      <point x="326" y="-145"/>
      <point x="317" y="-86"/>
      <point x="509" y="-2" type="curve"/>
      <point x="411" y="112" type="line"/>
      <point x="342" y="87"/>
      <point x="305" y="64"/>
      <point x="265" y="20" type="curve"/>
      <point x="218" y="46"/>
      <point x="198" y="82"/>
      <point x="190" y="121" type="curve" smooth="yes"/>
      <point x="178" y="192"/>
      <point x="246" y="242"/>
      <point x="311" y="272" type="curve"/>
      <point x="402" y="164"/>
      <point x="539" y="98"/>
      <point x="673" y="98" type="curve" smooth="yes"/>
      <point x="740" y="98"/>
      <point x="798" y="109"/>
      <point x="853" y="130" type="curve"/>
      <point x="854" y="127" type="line"/>
      <point x="739" y="-125"/>
      <point x="589" y="-235"/>
      <point x="473" y="-263" type="curve"/>
    </contour>
    <contour>
      <point x="885" y="1187" type="move" name="top"/>
    </contour>
    <contour>
      <point x="1004" y="-70" type="move" name="bottom"/>
    </contour>
  </outline>
</glyph>
<glyph name="uni0926094D0926094D092F" format="1">
  <advance width="2009"/>
  <note>
    dDDYa
  </note>
  <outline>
    <contour>
      <point x="2011" y="1187" type="line"/>
      <point x="912" y="1187" type="line"/>
      <point x="969" y="1053" type="line"/>
      <point x="1702" y="1053" type="line"/>
      <point x="1702" y="499" type="line"/>
      <point x="1624" y="342"/>
      <point x="1460" y="265"/>
      <point x="1317" y="265" type="curve" smooth="yes"/>
      <point x="1224" y="265"/>
      <point x="1165" y="294"/>
      <point x="1096" y="359" type="curve"/>
      <point x="1347" y="438"/>
      <point x="1413" y="539"/>
      <point x="1413" y="642" type="curve" smooth="yes"/>
      <point x="1413" y="730"/>
      <point x="1350" y="880"/>
      <point x="1182" y="880" type="curve" smooth="yes"/>
      <point x="663" y="880" type="line"/>
      <point x="723" y="736" type="line"/>
      <point x="1168" y="736" type="line" smooth="yes"/>
      <point x="1215" y="736"/>
      <point x="1279" y="722"/>
      <point x="1291" y="690" type="curve" smooth="yes"/>
      <point x="1303" y="659"/>
      <point x="1162" y="544"/>
      <point x="935" y="489" type="curve"/>
      <point x="1053" y="235"/>
      <point x="1215" y="114"/>
      <point x="1396" y="108" type="curve" smooth="yes"/>
      <point x="1495" y="105"/>
      <point x="1608" y="114"/>
      <point x="1702" y="217" type="curve"/>
      <point x="1702" y="-39" type="line"/>
      <point x="1856" y="-102" type="line"/>
      <point x="1856" y="1053" type="line"/>
      <point x="2061" y="1053" type="line"/>
    </contour>
    <component base="uni0926094D0926"/>
    <contour>
      <point x="1779" y="1187" type="move" name="top"/>
    </contour>
    <contour>
      <point x="1779" y="0" type="move" name="bottom"/>
    </contour>
  </outline>
</glyph>
<glyph name="uni0926094D0927094D0930094D092F" format="1">
  <advance width="2243"/>
  <outline>
    <contour>
      <point x="1015" y="-9" type="line"/>
      <point x="802" y="-379" type="line"/>
      <point x="968" y="-429" type="line"/>
      <point x="1099" y="-42" type="line"/>
    </contour>
    <component base="uni0926094D0927094D092F"/>
  </outline>
</glyph>
<glyph name="uni0926094D0928" format="1">
  <advance width="1132"/>
  <note>
    dDNa
  </note>
  <outline>
    <contour>
      <point x="826" y="79" type="line"/>
      <point x="794" y="184" type="line"/>
      <point x="516" y="-38" type="line" smooth="yes"/>
      <point x="382" y="-146"/>
      <point x="340" y="-186"/>
      <point x="340" y="-218" type="curve" smooth="yes"/>
      <point x="340" y="-229"/>
      <point x="343" y="-236"/>
      <point x="350" y="-245" type="curve" smooth="yes"/>
      <point x="386" y="-290"/>
      <point x="477" y="-311"/>
      <point x="560" y="-308" type="curve" smooth="yes"/>
      <point x="592" y="-307"/>
      <point x="627" y="-293"/>
      <point x="627" y="-258" type="curve" smooth="yes"/>
      <point x="627" y="-217"/>
      <point x="606" y="-173"/>
      <point x="582" y="-138" type="curve"/>
    </contour>
    <component base="dadeva"/>
  </outline>
</glyph>
<glyph name="uni0926094D09280941" format="1">
  <advance width="1134"/>
  <outline>
    <contour>
      <point x="1083" y="-63" type="line"/>
      <point x="983" y="-10"/>
      <point x="908" y="28"/>
      <point x="836" y="136" type="curve"/>
      <point x="857" y="149" type="line" smooth="yes"/>
      <point x="922" y="190"/>
      <point x="1009" y="275"/>
      <point x="1009" y="320" type="curve" smooth="yes"/>
      <point x="1009" y="328"/>
      <point x="1007" y="334"/>
      <point x="1002" y="340" type="curve" smooth="yes"/>
      <point x="945" y="408"/>
      <point x="825" y="470"/>
      <point x="742" y="470" type="curve" smooth="yes"/>
      <point x="690" y="470"/>
      <point x="654" y="448"/>
      <point x="654" y="391" type="curve" smooth="yes"/>
      <point x="654" y="355"/>
      <point x="670" y="288"/>
      <point x="689" y="242" type="curve"/>
      <point x="631" y="206"/>
      <point x="524" y="183"/>
      <point x="435" y="196" type="curve" smooth="yes"/>
      <point x="402" y="200"/>
      <point x="371" y="208"/>
      <point x="342" y="221" type="curve" smooth="yes"/>
      <point x="309" y="236"/>
      <point x="264" y="348"/>
      <point x="264" y="446" type="curve" smooth="yes"/>
      <point x="264" y="556"/>
      <point x="286" y="668"/>
      <point x="514" y="668" type="curve" smooth="yes"/>
      <point x="850" y="668" type="line"/>
      <point x="866" y="734"/>
      <point x="872" y="785"/>
      <point x="872" y="836" type="curve" smooth="yes"/>
      <point x="872" y="901"/>
      <point x="862" y="964"/>
      <point x="843" y="1053" type="curve"/>
      <point x="1187" y="1053" type="line"/>
      <point x="1135" y="1187" type="line"/>
      <point x="-52" y="1187" type="line"/>
      <point x="2" y="1053" type="line"/>
      <point x="708" y="1053" type="line"/>
      <point x="712" y="1009"/>
      <point x="716" y="966"/>
      <point x="714" y="919" type="curve" smooth="yes"/>
      <point x="713" y="892"/>
      <point x="713" y="859"/>
      <point x="705" y="816" type="curve"/>
      <point x="506" y="816" type="line" smooth="yes"/>
      <point x="163" y="816"/>
      <point x="97" y="660"/>
      <point x="97" y="518" type="curve" smooth="yes"/>
      <point x="97" y="210"/>
      <point x="337" y="60"/>
      <point x="565" y="60" type="curve" smooth="yes"/>
      <point x="589" y="60" type="line"/>
      <point x="466" y="-38" type="line" smooth="yes"/>
      <point x="332" y="-146"/>
      <point x="290" y="-186"/>
      <point x="290" y="-218" type="curve" smooth="yes"/>
      <point x="290" y="-229"/>
      <point x="293" y="-236"/>
      <point x="300" y="-245" type="curve" smooth="yes"/>
      <point x="336" y="-290"/>
      <point x="427" y="-311"/>
      <point x="510" y="-308" type="curve" smooth="yes"/>
      <point x="542" y="-307"/>
      <point x="577" y="-293"/>
      <point x="577" y="-258" type="curve" smooth="yes"/>
      <point x="577" y="-217"/>
      <point x="556" y="-173"/>
      <point x="532" y="-138" type="curve"/>
      <point x="765" y="69" type="line"/>
      <point x="787" y="21"/>
      <point x="810" y="-18"/>
      <point x="833" y="-50" type="curve"/>
      <point x="802" y="-62"/>
      <point x="771" y="-79"/>
      <point x="738" y="-105" type="curve"/>
      <point x="827" y="-222" type="line"/>
      <point x="905" y="-158"/>
      <point x="958" y="-145"/>
      <point x="1008" y="-145" type="curve" smooth="yes"/>
      <point x="1053" y="-145"/>
      <point x="1103" y="-168"/>
      <point x="1114" y="-186" type="curve" smooth="yes"/>
      <point x="1119" y="-194"/>
      <point x="1123" y="-226"/>
      <point x="1122" y="-248" type="curve" smooth="yes"/>
      <point x="1118" y="-337"/>
      <point x="1052" y="-397"/>
      <point x="929" y="-397" type="curve" smooth="yes"/>
      <point x="837" y="-397"/>
      <point x="754" y="-340"/>
      <point x="670" y="-239" type="curve"/>
      <point x="598" y="-300" type="line"/>
      <point x="677" y="-407"/>
      <point x="784" y="-528"/>
      <point x="962" y="-528" type="curve" smooth="yes"/>
      <point x="1120" y="-528"/>
      <point x="1214" y="-441"/>
      <point x="1214" y="-290" type="curve" smooth="yes"/>
      <point x="1214" y="-192"/>
      <point x="1157" y="-108"/>
      <point x="1082" y="-64" type="curve"/>
    </contour>
    <contour>
      <point x="106" y="0" type="move" name="nukta"/>
    </contour>
    <contour>
      <point x="793" y="10" type="move" name="bottom"/>
    </contour>
    <contour>
      <point x="776" y="1187" type="move" name="top"/>
    </contour>
  </outline>
</glyph>
<glyph name="uni0926094D092C" format="1">
  <advance width="1129"/>
  <note>
    dDBa
  </note>
  <outline>
    <contour>
      <point x="818" y="171"/>
      <point x="832" y="179"/>
      <point x="845" y="187" type="curve" smooth="yes"/>
      <point x="910" y="228"/>
      <point x="989" y="313"/>
      <point x="989" y="348" type="curve" smooth="yes"/>
      <point x="989" y="361"/>
      <point x="985" y="377"/>
      <point x="970" y="393" type="curve" smooth="yes"/>
      <point x="923" y="444"/>
      <point x="813" y="508"/>
      <point x="730" y="508" type="curve" smooth="yes"/>
      <point x="678" y="508"/>
      <point x="642" y="480"/>
      <point x="642" y="423" type="curve" smooth="yes"/>
      <point x="642" y="387"/>
      <point x="662" y="324"/>
      <point x="683" y="282" type="curve"/>
      <point x="634" y="251"/>
      <point x="545" y="231"/>
      <point x="464" y="231" type="curve" smooth="yes"/>
      <point x="437" y="231"/>
      <point x="343" y="241"/>
      <point x="328" y="256" type="curve" smooth="yes"/>
      <point x="286" y="296"/>
      <point x="252" y="399"/>
      <point x="252" y="508" type="curve" smooth="yes"/>
      <point x="252" y="613"/>
      <point x="284" y="716"/>
      <point x="502" y="716" type="curve" smooth="yes"/>
      <point x="845" y="716" type="line"/>
      <point x="854" y="762"/>
      <point x="858" y="806"/>
      <point x="857" y="851" type="curve"/>
      <point x="857" y="912"/>
      <point x="848" y="976"/>
      <point x="831" y="1053" type="curve"/>
      <point x="1180" y="1053" type="line"/>
      <point x="1130" y="1187" type="line"/>
      <point x="-53" y="1187" type="line"/>
      <point x="-1" y="1053" type="line"/>
      <point x="698" y="1053" type="line"/>
      <point x="702" y="1009"/>
      <point x="704" y="986"/>
      <point x="702" y="959" type="curve" smooth="yes"/>
      <point x="700" y="932"/>
      <point x="701" y="907"/>
      <point x="693" y="864" type="curve"/>
      <point x="494" y="864" type="line" smooth="yes"/>
      <point x="151" y="864"/>
      <point x="85" y="700"/>
      <point x="85" y="558" type="curve" smooth="yes"/>
      <point x="85" y="393"/>
      <point x="176" y="257"/>
      <point x="300" y="176" type="curve"/>
      <point x="201" y="123"/>
      <point x="165" y="28"/>
      <point x="165" y="-23" type="curve" smooth="yes"/>
      <point x="165" y="-144"/>
      <point x="317" y="-311"/>
      <point x="495" y="-311" type="curve" smooth="yes"/>
      <point x="576" y="-311"/>
      <point x="750" y="-267"/>
      <point x="837" y="-74" type="curve"/>
      <point x="887" y="-142"/>
      <point x="941" y="-190"/>
      <point x="990" y="-229" type="curve"/>
      <point x="1104" y="-90" type="line"/>
      <point x="985" y="-25"/>
      <point x="880" y="38"/>
      <point x="805" y="163" type="curve"/>
    </contour>
    <contour>
      <point x="627" y="-91" type="line"/>
      <point x="471" y="58" type="line" smooth="yes"/>
      <point x="462" y="67"/>
      <point x="453" y="75"/>
      <point x="443" y="82" type="curve"/>
      <point x="470" y="92"/>
      <point x="498" y="97"/>
      <point x="520" y="99" type="curve"/>
      <point x="531" y="98"/>
      <point x="542" y="98"/>
      <point x="553" y="98" type="curve" smooth="yes"/>
      <point x="620" y="98"/>
      <point x="678" y="109"/>
      <point x="733" y="130" type="curve"/>
      <point x="746" y="94" type="line"/>
      <point x="721" y="15"/>
      <point x="684" y="-51"/>
      <point x="639" y="-103" type="curve"/>
    </contour>
    <contour>
      <point x="411" y="-231"/>
      <point x="392" y="-218"/>
      <point x="386" y="-212" type="curve"/>
      <point x="342" y="-172"/>
      <point x="298" y="-112"/>
      <point x="312" y="-43" type="curve" smooth="yes"/>
      <point x="319" y="-7"/>
      <point x="342" y="22"/>
      <point x="372" y="45" type="curve"/>
      <point x="379" y="33"/>
      <point x="393" y="14"/>
      <point x="410" y="-1" type="curve"/>
      <point x="567" y="-156" type="line"/>
      <point x="575" y="-164" type="line"/>
      <point x="531" y="-196"/>
      <point x="482" y="-218"/>
      <point x="428" y="-228" type="curve" smooth="yes"/>
    </contour>
    <contour>
      <point x="765" y="1187" type="move" name="top"/>
    </contour>
    <contour>
      <point x="884" y="-70" type="move" name="bottom"/>
    </contour>
  </outline>
</glyph>
<glyph name="uni0926094D092D0941" format="1">
  <advance width="1301"/>
  <outline>
    <contour>
      <point x="1273" y="-91" type="line"/>
      <point x="1155" y="-25"/>
      <point x="1051" y="39"/>
      <point x="977" y="160" type="curve"/>
      <point x="993" y="168"/>
      <point x="1008" y="177"/>
      <point x="1024" y="187" type="curve" smooth="yes"/>
      <point x="1089" y="228"/>
      <point x="1168" y="313"/>
      <point x="1168" y="348" type="curve" smooth="yes"/>
      <point x="1168" y="361"/>
      <point x="1164" y="377"/>
      <point x="1149" y="393" type="curve" smooth="yes"/>
      <point x="1102" y="444"/>
      <point x="992" y="508"/>
      <point x="909" y="508" type="curve" smooth="yes"/>
      <point x="857" y="508"/>
      <point x="821" y="480"/>
      <point x="821" y="423" type="curve" smooth="yes"/>
      <point x="821" y="387"/>
      <point x="841" y="324"/>
      <point x="862" y="282" type="curve"/>
      <point x="813" y="251"/>
      <point x="724" y="231"/>
      <point x="643" y="231" type="curve" smooth="yes"/>
      <point x="616" y="231"/>
      <point x="522" y="241"/>
      <point x="507" y="256" type="curve" smooth="yes"/>
      <point x="465" y="296"/>
      <point x="431" y="399"/>
      <point x="431" y="508" type="curve" smooth="yes"/>
      <point x="431" y="613"/>
      <point x="463" y="716"/>
      <point x="681" y="716" type="curve" smooth="yes"/>
      <point x="1024" y="716" type="line"/>
      <point x="1033" y="762"/>
      <point x="1037" y="806"/>
      <point x="1036" y="851" type="curve"/>
      <point x="1036" y="912"/>
      <point x="1027" y="976"/>
      <point x="1010" y="1053" type="curve"/>
      <point x="1359" y="1053" type="line"/>
      <point x="1309" y="1187" type="line"/>
      <point x="-56" y="1187" type="line"/>
      <point x="-4" y="1053" type="line"/>
      <point x="877" y="1053" type="line"/>
      <point x="881" y="1009"/>
      <point x="883" y="986"/>
      <point x="881" y="959" type="curve" smooth="yes"/>
      <point x="879" y="932"/>
      <point x="880" y="907"/>
      <point x="872" y="864" type="curve"/>
      <point x="673" y="864" type="line" smooth="yes"/>
      <point x="330" y="864"/>
      <point x="264" y="700"/>
      <point x="264" y="558" type="curve" smooth="yes"/>
      <point x="264" y="290"/>
      <point x="504" y="98"/>
      <point x="732" y="98" type="curve" smooth="yes"/>
      <point x="779" y="98"/>
      <point x="821" y="103"/>
      <point x="861" y="114" type="curve"/>
      <point x="775" y="42"/>
      <point x="618" y="-54"/>
      <point x="517" y="-93" type="curve"/>
      <point x="506" y="-57"/>
      <point x="481" y="-9"/>
      <point x="462" y="27" type="curve" smooth="yes"/>
      <point x="403" y="147"/>
      <point x="303" y="231"/>
      <point x="186" y="231" type="curve" smooth="yes"/>
      <point x="102" y="231"/>
      <point x="3" y="172"/>
      <point x="-5" y="72" type="curve" smooth="yes"/>
      <point x="-12" y="-8"/>
      <point x="45" y="-89"/>
      <point x="152" y="-95" type="curve" smooth="yes"/>
      <point x="208" y="-98"/>
      <point x="276" y="-81"/>
      <point x="353" y="-47" type="curve"/>
      <point x="366" y="-79"/>
      <point x="376" y="-105"/>
      <point x="386" y="-143" type="curve"/>
      <point x="376" y="-148" type="line" smooth="yes"/>
      <point x="343" y="-165"/>
      <point x="238" y="-227"/>
      <point x="259" y="-269" type="curve" smooth="yes"/>
      <point x="294" y="-338"/>
      <point x="493" y="-415"/>
      <point x="535" y="-391" type="curve"/>
      <point x="585" y="-367"/>
      <point x="579" y="-261"/>
      <point x="557" y="-194" type="curve"/>
      <point x="701" y="-131"/>
      <point x="850" y="-60"/>
      <point x="947" y="21" type="curve"/>
      <point x="966" y="-16"/>
      <point x="985" y="-46"/>
      <point x="1005" y="-70" type="curve"/>
      <point x="975" y="-82"/>
      <point x="945" y="-99"/>
      <point x="913" y="-124" type="curve"/>
      <point x="1002" y="-241" type="line"/>
      <point x="1080" y="-177"/>
      <point x="1133" y="-164"/>
      <point x="1183" y="-164" type="curve" smooth="yes"/>
      <point x="1228" y="-164"/>
      <point x="1278" y="-187"/>
      <point x="1289" y="-205" type="curve" smooth="yes"/>
      <point x="1294" y="-213"/>
      <point x="1298" y="-245"/>
      <point x="1297" y="-267" type="curve" smooth="yes"/>
      <point x="1293" y="-356"/>
      <point x="1227" y="-416"/>
      <point x="1104" y="-416" type="curve" smooth="yes"/>
      <point x="1012" y="-416"/>
      <point x="929" y="-359"/>
      <point x="845" y="-258" type="curve"/>
      <point x="773" y="-319" type="line"/>
      <point x="852" y="-426"/>
      <point x="959" y="-547"/>
      <point x="1137" y="-547" type="curve" smooth="yes"/>
      <point x="1295" y="-547"/>
      <point x="1389" y="-460"/>
      <point x="1389" y="-309" type="curve" smooth="yes"/>
      <point x="1389" y="-217"/>
      <point x="1339" y="-138"/>
      <point x="1271" y="-92" type="curve"/>
    </contour>
    <contour>
      <point x="167" y="-5"/>
      <point x="124" y="42"/>
      <point x="124" y="90" type="curve"/>
      <point x="126" y="131"/>
      <point x="161" y="159"/>
      <point x="192" y="159" type="curve" smooth="yes"/>
      <point x="248" y="159"/>
      <point x="284" y="99"/>
      <point x="321" y="22" type="curve" smooth="yes"/>
      <point x="326" y="11" type="line"/>
      <point x="291" y="-2"/>
      <point x="261" y="-7"/>
      <point x="236" y="-6" type="curve" smooth="yes"/>
    </contour>
    <contour>
      <point x="945" y="1187" type="move" name="top"/>
    </contour>
    <contour>
      <point x="1074" y="-80" type="move" name="bottom"/>
    </contour>
  </outline>
</glyph>
